<svg xmlns="http://www.w3.org/2000/svg" xmlns:xlink="http://www.w3.org/1999/xlink" version="1.1" enable-background="new 0 0 99 99" xml:space="preserve" width="90" height="95"><rect id="backgroundrect" width="100%" height="100%" x="0" y="0" fill="none" stroke="none" class="" style=""/><g class="currentLayer" style=""><title>Layer 1</title><path fill-rule="evenodd" clip-rule="evenodd" d="M6.67,6.67 v6.66 h20 V6.67 H6.67 zM70,10 c0,0.92 0.7500000000000001,1.6700000000000002 1.6700000000000002,1.6700000000000002 s1.6600000000000001,-0.7500000000000001 1.6600000000000001,-1.6700000000000002 s-0.7400000000000001,-1.6700000000000002 -1.6600000000000001,-1.6700000000000002 S70,9.08 70,10 zM78.33,10 c0,0.92 0.7500000000000001,1.6700000000000002 1.6700000000000002,1.6700000000000002 s1.6700000000000002,-0.7500000000000001 1.6700000000000002,-1.6700000000000002 s-0.7500000000000001,-1.6700000000000002 -1.6700000000000002,-1.6700000000000002 S78.33,9.08 78.33,10 zM0,0 v20 h90 V0 H0 zM4.33,4.33 h81.34 v11.34 H4.33 V4.33 zM0,21.67 V95 h90 V21.67 H0 zM4.33,26 h81.34 v64.67 H4.33 V26 z" id="svg_1" class=""/></g></svg>