<svg xmlns="http://www.w3.org/2000/svg" data-name="Layer 6" width="91" height="90"><rect id="backgroundrect" width="100%" height="100%" x="0" y="0" fill="none" stroke="none" class="" style=""/><defs><style>.ac55b2e2-fcf2-4c0d-8d3d-7951ebc1e39a{fill:none;}</style></defs><title>Daily Tasks Collection</title><g class="currentLayer" style=""><title>Layer 1</title><polygon class="ac55b2e2-fcf2-4c0d-8d3d-7951ebc1e39a" points="42.3100004196167,81.9799976348877 43.19999980926514,88.03000068664551 45.52999782562256,88.03000068664551 45.089999198913574,81.9799976348877 42.3100004196167,81.9799976348877 " id="svg_1"/><path class="ac55b2e2-fcf2-4c0d-8d3d-7951ebc1e39a" d="M27.149999656677245,81.98999946594239 l0.51,3.85 a2.54,2.54 0 0 0 2.51,2.19 h0.44000000000000006 l-0.8900000000000001,-6 z" id="svg_2"/><polygon class="ac55b2e2-fcf2-4c0d-8d3d-7951ebc1e39a" points="31.600001335144043,67.93999671936035 31.15000057220459,64.86999702453613 27.95999813079834,64.86999702453613 28.409998893737793,67.93999671936035 31.600001335144043,67.93999671936035 " id="svg_3"/><path class="ac55b2e2-fcf2-4c0d-8d3d-7951ebc1e39a" d="M27.199999656677246,64.86999946594239 H24.049999656677247 a0.44000000000000006,0.44000000000000006 0 0 0 -0.3400000000000001,0.16000000000000003 a0.47000000000000003,0.47000000000000003 0 0 0 -0.1,0.35000000000000003 l0,0.32000000000000006 a1.7200000000000002,1.7200000000000002 0 0 0 0.51,1 l1.08,1.07 l0,0.16000000000000003 h2.38 z" id="svg_4"/><path class="ac55b2e2-fcf2-4c0d-8d3d-7951ebc1e39a" d="M51.359999656677246,67.23999946594239 a0.5,0.5 0 0 0 0,-0.36000000000000004 v0 l-1,-2 h-0.1 l-0.21000000000000002,2.93 l1.05,-0.33000000000000007 A0.52,0.52 0 0 0 51.359999656677246,67.23999946594239 z" id="svg_5"/><polygon class="ac55b2e2-fcf2-4c0d-8d3d-7951ebc1e39a" points="38.36999797821045,81.9799976348877 39.26000118255615,88.03000068664551 42.440001487731934,88.03000068664551 41.54999828338623,81.9799976348877 38.36999797821045,81.9799976348877 " id="svg_6"/><polygon class="ac55b2e2-fcf2-4c0d-8d3d-7951ebc1e39a" points="34.42000102996826,81.9799976348877 35.3100004196167,88.03000068664551 38.499999046325684,88.03000068664551 37.609999656677246,81.9799976348877 34.42000102996826,81.9799976348877 " id="svg_7"/><polygon class="ac55b2e2-fcf2-4c0d-8d3d-7951ebc1e39a" points="30.47999858856201,81.9799976348877 31.36999797821045,88.03000068664551 34.54999828338623,88.03000068664551 33.65999889373779,81.9799976348877 30.47999858856201,81.9799976348877 " id="svg_8"/><polygon class="ac55b2e2-fcf2-4c0d-8d3d-7951ebc1e39a" points="28.74000072479248,75.33999824523926 26.25999927520752,75.33999824523926 27.050000190734863,81.2299976348877 29.609999656677246,81.2299976348877 28.74000072479248,75.33999824523926 " id="svg_9"/><polygon class="ac55b2e2-fcf2-4c0d-8d3d-7951ebc1e39a" points="37.27999782562256,74.58999824523926 40.45999813079834,74.58999824523926 39.589999198913574,68.68999671936035 36.40999889373779,68.68999671936035 37.27999782562256,74.58999824523926 " id="svg_10"/><polygon class="ac55b2e2-fcf2-4c0d-8d3d-7951ebc1e39a" points="44.04999828338623,67.93999671936035 43.83000087738037,64.86999702453613 39.78999996185303,64.86999702453613 40.24000072479248,67.93999671936035 44.04999828338623,67.93999671936035 " id="svg_11"/><polygon class="ac55b2e2-fcf2-4c0d-8d3d-7951ebc1e39a" points="41.22000026702881,74.58999824523926 44.53999996185303,74.58999824523926 44.109999656677246,68.68999671936035 40.35000133514404,68.68999671936035 41.22000026702881,74.58999824523926 " id="svg_12"/><polygon class="ac55b2e2-fcf2-4c0d-8d3d-7951ebc1e39a" points="29.38999843597412,74.58999824523926 32.58000087738037,74.58999824523926 31.70999813079834,68.68999671936035 28.519999504089355,68.68999671936035 29.38999843597412,74.58999824523926 " id="svg_13"/><polygon class="ac55b2e2-fcf2-4c0d-8d3d-7951ebc1e39a" points="49.24000072479248,67.93999671936035 49.47000026702881,64.86999702453613 44.58000087738037,64.86999702453613 44.8100004196167,67.93999671936035 49.24000072479248,67.93999671936035 " id="svg_14"/><polygon class="ac55b2e2-fcf2-4c0d-8d3d-7951ebc1e39a" points="35.53999996185303,67.93999671936035 35.089999198913574,64.86999702453613 31.909998893737793,64.86999702453613 32.359999656677246,67.93999671936035 35.53999996185303,67.93999671936035 " id="svg_15"/><polygon class="ac55b2e2-fcf2-4c0d-8d3d-7951ebc1e39a" points="33.33000087738037,74.58999824523926 36.519999504089355,74.58999824523926 35.65000057220459,68.68999671936035 32.47000026702881,68.68999671936035 33.33000087738037,74.58999824523926 " id="svg_16"/><polygon class="ac55b2e2-fcf2-4c0d-8d3d-7951ebc1e39a" points="39.47999858856201,67.93999671936035 39.02999782562256,64.86999702453613 35.85000133514404,64.86999702453613 36.29999828338623,67.93999671936035 39.47999858856201,67.93999671936035 " id="svg_17"/><polygon class="ac55b2e2-fcf2-4c0d-8d3d-7951ebc1e39a" points="27.769999504089355,68.68999671936035 25.369999885559082,68.68999671936035 26.159998893737793,74.58999824523926 28.630000114440918,74.58999824523926 27.769999504089355,68.68999671936035 " id="svg_18"/><path class="ac55b2e2-fcf2-4c0d-8d3d-7951ebc1e39a" d="M13.669999656677245,17.439999465942382 L4.2199996566772455,33.21999946594238 l6.54,3.72 l5.13,-7.42 a1.4100000000000001,1.4100000000000001 0 0 1 2.56,1 L17.159999656677247,39.44999946594238 l7.3100000000000005,1.7400000000000002 l3.83,-18 l-7.63,-2.36 z" id="svg_19"/><path class="ac55b2e2-fcf2-4c0d-8d3d-7951ebc1e39a" d="M24.819999656677247,20.02999946594238 l1.18,-2.39 a62.52,62.52 0 0 1 -6.82,-2.7 L18.019999656677246,17.309999465942383 l3.52,1.71 z" id="svg_20"/><path class="ac55b2e2-fcf2-4c0d-8d3d-7951ebc1e39a" d="M44.49999965667725,23.899999465942383 l-1.44,0 a0.92,0.92 0 0 0 -0.92,0.8900000000000001 l0.9,7.3 l-0.77,7.32 a0.93,0.93 0 0 0 0.93,0.8800000000000001 h1.45 a0.9400000000000001,0.9400000000000001 0 0 0 0.92,-0.79 l0.44000000000000006,-2.79 a2.91,2.91 0 0 1 0.8,-1.61 l2.31,-2.35 a1,1 0 0 0 0.28,-0.6800000000000002 a1,1 0 0 0 -0.29000000000000004,-0.7200000000000001 L46.759999656677245,29.049999465942385 a2.94,2.94 0 0 1 -0.8400000000000001,-1.59 l-0.49000000000000005,-2.7800000000000002 A1,1 0 0 0 44.49999965667725,23.899999465942383 z" id="svg_21"/><path class="ac55b2e2-fcf2-4c0d-8d3d-7951ebc1e39a" d="M83.08999965667725,23.019999465942384 l3.36,0.53 l0.36000000000000004,0.06000000000000001 L88.35999965667725,18.669999465942382 l-1.75,-0.8200000000000001 l-0.4,-0.19000000000000003 L85.88999965667725,17.309999465942383 a4.19,4.19 0 0 0 -2.47,-1.4300000000000002 a4.13,4.13 0 0 0 -2.09,0.18000000000000002 l-0.28,0.09000000000000002 c-1,0.27 -1.78,0.5 -2.36,0.6800000000000002 a4.15,4.15 0 0 1 -0.92,3.2800000000000002 A7.12,7.12 0 0 1 74.58999965667725,22.309999465942383 a7.52,7.52 0 0 1 -2.5700000000000003,0.47000000000000003 a6.38,6.38 0 0 1 -1.08,-0.09000000000000002 a4.21,4.21 0 0 1 -3.07,-2 c-0.53,0.23 -1.22,0.56 -2.12,1 c-0.2,0.11000000000000001 -0.33000000000000007,0.15000000000000002 -0.3400000000000001,0.16000000000000003 a4.15,4.15 0 0 0 -2.7,3.89 v0.44000000000000006 l-0.18000000000000002,0.4 l-0.8200000000000001,1.7600000000000002 l4.34,2.81 l0.24000000000000002,-0.28 L68.51999965667724,28.309999465942383 l1.1600000000000001,3.2 l5,13.66 l14.58,-5.3100000000000005 l-5,-13.66 z" id="svg_22"/><path class="ac55b2e2-fcf2-4c0d-8d3d-7951ebc1e39a" d="M69.35999965667725,18.109999465942384 a0.36000000000000004,0.36000000000000004 0 0 1 0.28,0.09000000000000002 c0.41000000000000003,0.5900000000000001 -0.25,0.91 -0.1,1.33 a2.12,2.12 0 0 0 1.75,1.22 a4.23,4.23 0 0 0 0.7300000000000001,0.06000000000000001 a5.73,5.73 0 0 0 1.8900000000000001,-0.3400000000000001 c2,-0.7200000000000001 3.19,-2.3 2.75,-3.5300000000000002 c-0.16000000000000003,-0.42000000000000004 -1,-0.43000000000000005 -0.93,-1 c0,-0.24000000000000002 1.09,-0.6400000000000001 2.21,-1 l-1.18,-2 a55,55 0 0 1 -11.58,5.11 l0.38000000000000006,1.52 A14.09,14.09 0 0 1 69.35999965667725,18.109999465942384 z" id="svg_23"/><polygon class="ac55b2e2-fcf2-4c0d-8d3d-7951ebc1e39a" points="61.47000026702881,74.58999824523926 63.94999599456787,74.58999824523926 64.73999691009521,68.68999671936035 62.34000301361084,68.68999671936035 61.47000026702881,74.58999824523926 " id="svg_24"/><polygon class="ac55b2e2-fcf2-4c0d-8d3d-7951ebc1e39a" points="52.499999046325684,81.9799976348877 51.609999656677246,88.03000068664551 54.79999828338623,88.03000068664551 55.690001487731934,81.9799976348877 52.499999046325684,81.9799976348877 " id="svg_25"/><polygon class="ac55b2e2-fcf2-4c0d-8d3d-7951ebc1e39a" points="56.440001487731934,81.9799976348877 55.54999828338623,88.03000068664551 58.74000072479248,88.03000068664551 59.62999629974365,81.9799976348877 56.440001487731934,81.9799976348877 " id="svg_26"/><polygon class="ac55b2e2-fcf2-4c0d-8d3d-7951ebc1e39a" points="48.95999813079834,81.9799976348877 48.519999504089355,88.03000068664551 50.85000133514404,88.03000068664551 51.74000072479248,81.9799976348877 48.95999813079834,81.9799976348877 " id="svg_27"/><path class="ac55b2e2-fcf2-4c0d-8d3d-7951ebc1e39a" d="M48.549999656677244,76.82999946594238 a2.62,2.62 0 0 1 -1.52,-0.46 a3.47,3.47 0 0 1 -1,-1 H45.359999656677246 l0.43000000000000005,5.9 h2.49 l0.32000000000000006,-4.42 z" id="svg_28"/><polygon class="ac55b2e2-fcf2-4c0d-8d3d-7951ebc1e39a" points="60.499999046325684,81.2299976348877 63.059996604919434,81.2299976348877 63.84999752044678,75.33999824523926 61.359999656677246,75.33999824523926 60.499999046325684,81.2299976348877 " id="svg_29"/><polygon class="ac55b2e2-fcf2-4c0d-8d3d-7951ebc1e39a" points="46.27999782562256,88.03000068664551 47.769999504089355,88.03000068664551 48.20999813079834,81.9799976348877 45.839999198913574,81.9799976348877 46.27999782562256,88.03000068664551 " id="svg_30"/><path class="ac55b2e2-fcf2-4c0d-8d3d-7951ebc1e39a" d="M66.05999965667725,64.86999946594239 H62.89999965667725 l-0.45,3.07 h2.39 l0,-0.16000000000000003 l1.09,-1.07 a1.77,1.77 0 0 0 0.5,-1 l0,-0.32000000000000006 a0.46,0.46 0 0 0 -0.44000000000000006,-0.51 z" id="svg_31"/><path class="ac55b2e2-fcf2-4c0d-8d3d-7951ebc1e39a" d="M59.49999965667725,88.02999946594238 h0.44000000000000006 a2.52,2.52 0 0 0 2.5,-2.19 l0.52,-3.85 H60.359999656677246 z" id="svg_32"/><polygon class="ac55b2e2-fcf2-4c0d-8d3d-7951ebc1e39a" points="45.02999782562256,81.2299976348877 44.60000133514404,75.33999824523926 41.33000087738037,75.33999824523926 42.19999980926514,81.2299976348877 45.02999782562256,81.2299976348877 " id="svg_33"/><path class="ac55b2e2-fcf2-4c0d-8d3d-7951ebc1e39a" d="M45.299999656677244,74.58999946594238 h0.36000000000000004 a8.29,8.29 0 0 1 -0.3400000000000001,-0.93 a3.36,3.36 0 0 1 -0.13,-0.5 z" id="svg_34"/><path class="ac55b2e2-fcf2-4c0d-8d3d-7951ebc1e39a" d="M53.27999965667725,66.30999946594238 a2.48,2.48 0 0 1 -1.62,3.1 l-3.6,1.1400000000000001 a2.46,2.46 0 0 0 -0.8400000000000001,2.54 a3,3 0 0 0 0.92,1.6500000000000001 c0.1,0.07 0.3400000000000001,0.23 1,0 a26.72,26.72 0 0 0 4,-1.9100000000000001 A7.65,7.65 0 0 1 55.359999656677246,72.10999946594238 l3.11,-0.44000000000000006 a1.61,1.61 0 0 0 1.2,-0.78 a2.8600000000000003,2.8600000000000003 0 0 0 0,-1.6900000000000002 l-1.85,-3.63 a4.77,4.77 0 0 1 -0.41000000000000003,-1.11 a2.89,2.89 0 0 0 -0.15000000000000002,-0.49000000000000005 l-0.5,-1.09 a2.07,2.07 0 0 0 -1,-1 l-0.7000000000000001,-0.35000000000000003 a2.15,2.15 0 0 0 -0.93,-0.22000000000000003 H50.359999656677246 a2.09,2.09 0 0 0 -1.12,0.32000000000000006 h1.61 z" id="svg_35"/><polygon class="ac55b2e2-fcf2-4c0d-8d3d-7951ebc1e39a" points="60.609999656677246,75.33999824523926 57.42000102996826,75.33999824523926 56.54999828338623,81.2299976348877 59.739996910095215,81.2299976348877 60.609999656677246,75.33999824523926 " id="svg_36"/><path class="ac55b2e2-fcf2-4c0d-8d3d-7951ebc1e39a" d="M61.03999965667725,72.41999946594238 a3.68,3.68 0 0 1 -2.27,1.23 l-1.12,0.16000000000000003 l-0.12000000000000001,0.78 h3.19 z" id="svg_37"/><path class="ac55b2e2-fcf2-4c0d-8d3d-7951ebc1e39a" d="M46.98999965667725,68.80999946594238 l0.14,-0.1 l0.09000000000000002,0 H44.859999656677246 l0.26,3.5 A4.84,4.84 0 0 1 46.98999965667725,68.80999946594238 z" id="svg_38"/><polygon class="ac55b2e2-fcf2-4c0d-8d3d-7951ebc1e39a" points="41.440001487731934,81.2299976348877 40.5699987411499,75.33999824523926 37.38999843597412,75.33999824523926 38.26000118255615,81.2299976348877 41.440001487731934,81.2299976348877 " id="svg_39"/><polygon class="ac55b2e2-fcf2-4c0d-8d3d-7951ebc1e39a" points="29.499999046325684,75.33999824523926 30.36999797821045,81.2299976348877 33.54999828338623,81.2299976348877 32.690001487731934,75.33999824523926 29.499999046325684,75.33999824523926 " id="svg_40"/><polygon class="ac55b2e2-fcf2-4c0d-8d3d-7951ebc1e39a" points="37.499999046325684,81.2299976348877 36.63000011444092,75.33999824523926 33.440001487731934,75.33999824523926 34.3100004196167,81.2299976348877 37.499999046325684,81.2299976348877 " id="svg_41"/><polygon class="ac55b2e2-fcf2-4c0d-8d3d-7951ebc1e39a" points="61.690001487731934,67.93999671936035 62.13999843597412,64.86999702453613 59.739996910095215,64.86999702453613 61.27999782562256,67.93999671936035 61.690001487731934,67.93999671936035 " id="svg_42"/><polygon class="ac55b2e2-fcf2-4c0d-8d3d-7951ebc1e39a" points="56.65999889373779,75.33999824523926 53.47999858856201,75.33999824523926 52.609999656677246,81.2299976348877 55.79999828338623,81.2299976348877 56.65999889373779,75.33999824523926 " id="svg_43"/><path class="ac55b2e2-fcf2-4c0d-8d3d-7951ebc1e39a" d="M49.789999656677246,76.61999946594239 c-0.15000000000000002,0 -0.29000000000000004,0.07 -0.44000000000000006,0.11000000000000001 l-0.33000000000000007,4.51 h2.83 l0.8700000000000001,-5.9 h0 A21.05,21.05 0 0 1 49.789999656677246,76.61999946594239 z" id="svg_44"/><path class="ac55b2e2-fcf2-4c0d-8d3d-7951ebc1e39a" d="M56.869999656677244,73.91999946594238 l-1.21,0.17 a5.55,5.55 0 0 0 -1.58,0.48000000000000004 l0,0 h2.72 z" id="svg_45"/><polygon points="5.869999885559082,42.53999900817871 5.170000076293945,41.83999824523926 3.8999996185302734,43.10000038146973 3.8999996185302734,41.30999946594238 2.8999996185302734,41.30999946594238 2.8999996185302734,43.10000038146973 1.6299996376037598,41.83999824523926 0.9199995994567871,42.53999900817871 2.189999580383301,43.80999946594238 0.39999961853027344,43.80999946594238 0.39999961853027344,44.80999946594238 2.189999580383301,44.80999946594238 0.9199995994567871,46.079999923706055 1.6299996376037598,46.78999900817871 2.8999996185302734,45.51999855041504 2.8999996185302734,47.30999946594238 3.8999996185302734,47.30999946594238 3.8999996185302734,45.51999855041504 5.170000076293945,46.78999900817871 5.869999885559082,46.079999923706055 4.609999656677246,44.80999946594238 6.399999618530273,44.80999946594238 6.399999618530273,43.80999946594238 4.609999656677246,43.80999946594238 5.869999885559082,42.53999900817871 " id="svg_46" class=""/><polygon points="77.919997215271,5.079999923706055 78.62999629974365,5.779999732971191 79.90000057220459,4.5199995040893555 79.90000057220459,6.309999465942383 80.90000057220459,6.309999465942383 80.90000057220459,4.5199995040893555 82.169997215271,5.779999732971191 82.87000179290771,5.079999923706055 81.60999965667725,3.809999465942383 83.40000057220459,3.809999465942383 83.40000057220459,2.809999465942383 81.60999965667725,2.809999465942383 82.87000179290771,1.5399994850158691 82.169997215271,0.8399991989135742 80.90000057220459,2.09999942779541 80.90000057220459,0.3099994659423828 79.90000057220459,0.3099994659423828 79.90000057220459,2.09999942779541 78.62999629974365,0.8399991989135742 77.919997215271,1.5399994850158691 79.19000148773193,2.809999465942383 77.40000057220459,2.809999465942383 77.40000057220459,3.809999465942383 79.19000148773193,3.809999465942383 77.919997215271,5.079999923706055 " id="svg_47" class=""/><polygon points="60.40000057220459,53.80999946594238 62.190001487731934,53.80999946594238 60.919997215270996,55.079999923706055 61.62999629974365,55.78999900817871 62.90000057220459,54.51999855041504 62.90000057220459,56.30999946594238 63.90000057220459,56.30999946594238 63.90000057220459,54.51999855041504 65.169997215271,55.78999900817871 65.87000179290771,55.079999923706055 64.60999965667725,53.80999946594238 66.40000057220459,53.80999946594238 66.40000057220459,52.80999946594238 64.60999965667725,52.80999946594238 65.87000179290771,51.53999900817871 65.169997215271,50.83999824523926 63.90000057220459,52.10000038146973 63.90000057220459,50.30999946594238 62.90000057220459,50.30999946594238 62.90000057220459,52.10000038146973 61.62999629974365,50.83999824523926 60.919997215270996,51.53999900817871 62.190001487731934,52.80999946594238 60.40000057220459,52.80999946594238 60.40000057220459,53.80999946594238 " id="svg_48" class=""/><path d="M91.26999965667724,39.62999946594238 l-5.13,-14.1 l2.08,0.33000000000000007 l2.5300000000000002,-8.27 l-3.33,-1.55 a6.09,6.09 0 0 0 -4.7,-2.21 a6.09,6.09 0 0 0 -2.08,0.37000000000000005 l-0.7300000000000001,0.2 l-1.44,-2.51 A44.27,44.27 0 0 0 90.81999965667724,0.5799994659423824 l-0.8400000000000001,-0.54 a43.38,43.38 0 0 1 -12,11 l-1.3900000000000001,-2.4 l-1.73,1 l1.4100000000000001,2.45 a54.29,54.29 0 0 1 -11.33,5 l-0.79,-3.14 l-1.94,0.49000000000000005 l0.81,3.21 A62.28,62.28 0 0 1 46.359999656677246,19.809999465942383 l-1.07,0 l0.12000000000000001,-2.42 l-2,-0.11000000000000001 L43.359999656677246,19.739999465942383 A64.29,64.29 0 0 1 28.359999656677246,17.309999465942383 l1.3900000000000001,-2.83 l-1.8,-0.8800000000000001 l-1.53,3.12 a60.57,60.57 0 0 1 -6.82,-2.68 l1.23,-2.52 l-1.79,-0.8800000000000001 l-1.24,2.52 c-11.28,-5.7 -16.93,-13 -17,-13.16 l-0.8,0.6000000000000001 c0.09000000000000002,0.12000000000000001 5.87,7.63 17.38,13.46 l-1.1600000000000001,2.38 L14.059999656677245,15.399999465942383 a1.4,1.4 0 0 0 -1.82,0.55 L2.189999656677246,32.70999946594238 a1.4300000000000002,1.4300000000000002 0 0 0 0.51,2 l7.54,4.27 a1.4100000000000001,1.4100000000000001 0 0 0 1.85,-0.42000000000000004 l4,-5.8 l-1,7 A1.42,1.42 0 0 0 16.169999656677245,41.30999946594238 l8.43,2 a1.22,1.22 0 0 0 0.32000000000000006,0 a1.37,1.37 0 0 0 0.7600000000000001,-0.22000000000000003 a1.42,1.42 0 0 0 0.6300000000000001,-0.9 L30.359999656677246,23.079999465942382 h0 a1.4,1.4 0 0 0 -1,-1.6400000000000001 l-2.64,-0.81 l1.18,-2.4 a65.13,65.13 0 0 0 15.33,2.51 l-0.06000000000000001,1.17 h-0.17 a2.93,2.93 0 0 0 -2.9,3 l0.8900000000000001,7.25 L40.26999965667724,39.30999946594238 v0.11000000000000001 A2.93,2.93 0 0 0 43.19999965667725,42.30999946594238 h1.47 a2.93,2.93 0 0 0 2.87,-2.48 l0.44000000000000006,-2.79 a0.9,0.9 0 0 1 0.26,-0.51 l2.31,-2.35 A3,3 0 0 0 51.359999656677246,32.019999465942384 a2.92,2.92 0 0 0 -0.8900000000000001,-2.09 L48.15999965667724,27.619999465942385 a1,1 0 0 1 -0.27,-0.51 L47.359999656677246,24.309999465942383 a2.92,2.92 0 0 0 -2.19,-2.34 l0.06000000000000001,-1.2 l1.13,0 A63.29,63.29 0 0 0 63.25999965667725,18.609999465942384 l0.47000000000000003,1.86 a6.14,6.14 0 0 0 -3,5.29 l-1.54,3.33 l7.25,4.7 l1.3800000000000001,-1.59 L72.92999965667724,46.30999946594238 a1.54,1.54 0 0 0 1.18,1 L74.35999965667725,47.30999946594238 a1.52,1.52 0 0 0 0.51,-0.09000000000000002 L90.35999965667725,41.589999465942384 A1.53,1.53 0 0 0 91.26999965667724,39.62999946594238 zM19.179999656677246,14.939999465942382 a62.52,62.52 0 0 0 6.82,2.7 l-1.18,2.39 l-3.2800000000000002,-1 L18.019999656677246,17.309999465942383 zm9.12,8.25 l-3.83,18 L17.159999656677247,39.44999946594238 l1.29,-8.93 a1.4100000000000001,1.4100000000000001 0 0 0 -2.56,-1 L10.759999656677246,36.939999465942385 L4.2199996566772455,33.21999946594238 l9.45,-15.78 l7,3.39 zm17.13,1.49 l0.49000000000000005,2.7800000000000002 a2.94,2.94 0 0 0 0.8400000000000001,1.59 l2.35,2.31 a1,1 0 0 1 0.29000000000000004,0.7200000000000001 a1,1 0 0 1 -0.28,0.6800000000000002 L46.80999965667725,35.10999946594238 a2.91,2.91 0 0 0 -0.8,1.61 l-0.44000000000000006,2.79 a0.9400000000000001,0.9400000000000001 0 0 1 -0.92,0.79 H43.19999965667725 a0.93,0.93 0 0 1 -0.93,-0.8800000000000001 l0.77,-7.32 l-0.9,-7.3 a0.92,0.92 0 0 1 0.92,-0.8900000000000001 l1.44,0 A1,1 0 0 1 45.429999656677246,24.679999465942384 zM76.75999965667725,12.939999465942382 l1.18,2 c-1.12,0.36000000000000004 -2.17,0.7600000000000001 -2.21,1 c-0.09000000000000002,0.53 0.77,0.54 0.93,1 c0.44000000000000006,1.23 -0.78,2.81 -2.75,3.5300000000000002 a5.73,5.73 0 0 1 -1.8900000000000001,0.3400000000000001 a4.23,4.23 0 0 1 -0.7300000000000001,-0.06000000000000001 a2.12,2.12 0 0 1 -1.75,-1.22 c-0.15000000000000002,-0.42000000000000004 0.51,-0.7400000000000001 0.1,-1.33 A0.36000000000000004,0.36000000000000004 0 0 0 69.35999965667725,18.109999465942384 a14.09,14.09 0 0 0 -3.8,1.46 l-0.38000000000000006,-1.52 A55,55 0 0 0 76.75999965667725,12.939999465942382 zM74.64999965667725,45.17999946594238 l-5,-13.66 l-0.9500000000000001,-2.6 a0.37000000000000005,0.37000000000000005 0 0 0 -0.6300000000000001,-0.12000000000000001 l-1.81,2.09 l-0.24000000000000002,0.28 l-4.34,-2.81 l0.8200000000000001,-1.7600000000000002 l0.18000000000000002,-0.4 v-0.44000000000000006 a4.15,4.15 0 0 1 2.7,-3.89 s0.14,0 0.3400000000000001,-0.16000000000000003 c0.9,-0.46 1.59,-0.79 2.12,-1 a4.21,4.21 0 0 0 3.07,2 a6.38,6.38 0 0 0 1.08,0.09000000000000002 A7.52,7.52 0 0 0 74.58999965667725,22.309999465942383 a7.12,7.12 0 0 0 3.18,-2.22 a4.15,4.15 0 0 0 0.92,-3.2800000000000002 c0.5800000000000001,-0.18000000000000002 1.35,-0.41000000000000003 2.36,-0.6800000000000002 l0.28,-0.09000000000000002 a4.13,4.13 0 0 1 2.09,-0.18000000000000002 A4.19,4.19 0 0 1 85.88999965667725,17.309999465942383 l0.29000000000000004,0.3400000000000001 l0.4,0.19000000000000003 l1.75,0.8200000000000001 L86.80999965667725,23.609999465942384 l-0.36000000000000004,-0.06000000000000001 l-2.73,-0.43000000000000005 a0.37000000000000005,0.37000000000000005 0 0 0 -0.41000000000000003,0.5 l1,2.59 l5,13.66 z" id="svg_49" class=""/><path d="M66.05999965667725,62.869999465942385 H58.98999965667725 l-0.37000000000000005,-0.8200000000000001 a4.11,4.11 0 0 0 -1.9,-2 l-0.6900000000000002,-0.35000000000000003 A4.17,4.17 0 0 0 54.19999965667725,59.30999946594238 H50.359999656677246 a4.07,4.07 0 0 0 -2.89,1.2 l-0.55,0.55 v1.81 H24.049999656677247 a2.45,2.45 0 0 0 -2.42,2.77 l0,0.33000000000000007 a3.7600000000000002,3.7600000000000002 0 0 0 1.09,2.17 l0.5900000000000001,0.5800000000000001 L25.679999656677246,86.10999946594238 a4.54,4.54 0 0 0 4.49,3.92 H59.939999656677244 a4.53,4.53 0 0 0 4.48,-3.92 l2.33,-17.39 l0.6000000000000001,-0.5800000000000001 a3.7600000000000002,3.7600000000000002 0 0 0 1.09,-2.17 l0,-0.33000000000000007 a2.45,2.45 0 0 0 -2.42,-2.77 zm-3.92,2 l-0.45,3.07 h-0.41000000000000003 l-1.54,-3.07 zM53.47999965667724,75.30999946594238 H56.65999965667724 l-0.8600000000000001,5.9 H52.609999656677246 zm-1.6300000000000001,5.9 H49.01999965667724 L49.359999656677246,76.72999946594238 c0.15000000000000002,0 0.29000000000000004,-0.06000000000000001 0.44000000000000006,-0.11000000000000001 A21.05,21.05 0 0 0 52.66999965667725,75.30999946594238 h0 zm2.2,-6.65 l0,0 a5.55,5.55 0 0 1 1.58,-0.48000000000000004 l1.21,-0.17 l-0.1,0.6700000000000002 zm3.37,0.7500000000000001 h3.19 l-0.8700000000000001,5.9 H56.549999656677244 zm0.11000000000000001,-0.7500000000000001 l0.12000000000000001,-0.78 l1.12,-0.16000000000000003 a3.68,3.68 0 0 0 2.27,-1.23 l-0.32000000000000006,2.17 zM50.359999656677246,61.30999946594238 h3.8 a2.15,2.15 0 0 1 0.93,0.22000000000000003 l0.7000000000000001,0.35000000000000003 a2.07,2.07 0 0 1 1,1 l0.5,1.09 a2.89,2.89 0 0 1 0.15000000000000002,0.49000000000000005 a4.77,4.77 0 0 0 0.41000000000000003,1.11 l1.85,3.63 a2.8600000000000003,2.8600000000000003 0 0 1 0,1.6900000000000002 a1.61,1.61 0 0 1 -1.2,0.78 L55.359999656677246,72.10999946594238 a7.65,7.65 0 0 0 -2.23,0.6900000000000002 a26.72,26.72 0 0 1 -4,1.9100000000000001 c-0.7100000000000001,0.23 -0.9500000000000001,0.07 -1,0 a3,3 0 0 1 -0.92,-1.6500000000000001 a2.46,2.46 0 0 1 0.8400000000000001,-2.54 l3.6,-1.1400000000000001 A2.48,2.48 0 0 0 53.27999965667725,66.30999946594238 l-2.39,-4.65 H49.27999965667725 A2.09,2.09 0 0 1 50.359999656677246,61.30999946594238 zM45.119999656677244,72.18999946594238 l-0.26,-3.5 h2.36 l-0.09000000000000002,0 l-0.14,0.1 A4.84,4.84 0 0 0 45.119999656677244,72.18999946594238 zm0.54,2.4 h-0.36000000000000004 l-0.11000000000000001,-1.4300000000000002 a3.36,3.36 0 0 0 0.13,0.5 A8.29,8.29 0 0 0 45.65999965667724,74.58999946594238 zM33.439999656677244,75.30999946594238 h3.19 l0.8700000000000001,5.9 H34.359999656677246 zm0.11000000000000001,5.9 H30.359999656677246 L29.499999656677247,75.30999946594238 h3.19 zM37.359999656677246,75.30999946594238 h3.18 l0.8700000000000001,5.9 H38.259999656677245 zM41.359999656677246,75.30999946594238 h3.27 l0.43000000000000005,5.9 H42.19999965667725 zm8.68,-7.54 l0.21000000000000002,-2.93 H50.359999656677246 l1,2 v0 a0.5,0.5 0 0 1 0,0.36000000000000004 a0.52,0.52 0 0 1 -0.28,0.23 zm-0.54,-2.93 l-0.23,3.07 H44.80999965667725 l-0.23,-3.07 zm-4.93,9.72 H41.219999656677246 L40.359999656677246,68.68999946594238 h3.7600000000000002 zm-0.7100000000000001,-9.72 l0.22000000000000003,3.07 H40.23999965667725 l-0.45,-3.07 zM40.45999965667725,74.58999946594238 H37.27999965667725 l-0.8700000000000001,-5.9 h3.18 zm-1.4300000000000002,-9.72 l0.45,3.07 H36.299999656677244 l-0.45,-3.07 zm-2.51,9.72 H33.359999656677246 l-0.8600000000000001,-5.9 h3.18 zm-1.4300000000000002,-9.72 l0.45,3.07 H32.359999656677246 l-0.45,-3.07 zm-2.51,9.72 H29.359999656677246 l-0.8700000000000001,-5.9 h3.19 zm-1.4300000000000002,-9.72 l0.45,3.07 H28.409999656677243 l-0.45,-3.07 zm-5.91,2.91 L24.159999656677247,66.70999946594239 a1.7200000000000002,1.7200000000000002 0 0 1 -0.51,-1 l0,-0.32000000000000006 a0.47000000000000003,0.47000000000000003 0 0 1 0.1,-0.35000000000000003 a0.44000000000000006,0.44000000000000006 0 0 1 0.3400000000000001,-0.16000000000000003 h3.15 l0.45,3.07 H25.269999656677246 zm0.13,0.91 H27.759999656677245 l0.8700000000000001,5.9 H26.159999656677247 zM26.259999656677245,75.30999946594238 h2.48 l0.8700000000000001,5.9 H27.049999656677247 zm3.91,12.69 a2.54,2.54 0 0 1 -2.51,-2.19 l-0.51,-3.85 h2.5700000000000003 l0.8900000000000001,6 zm1.2,0 l-0.8900000000000001,-6 H33.65999965667724 l0.8900000000000001,6 zm3.94,0 l-0.8900000000000001,-6 h3.19 l0.8900000000000001,6 zm3.95,0 l-0.8900000000000001,-6 h3.18 l0.8900000000000001,6 zm3.94,0 l-0.8900000000000001,-6 h2.7800000000000002 l0.44000000000000006,6 zm4.57,0 H46.27999965667725 l-0.44000000000000006,-6 h2.37 zm-2,-6.79 L45.359999656677246,75.30999946594238 h0.7000000000000001 a3.47,3.47 0 0 0 1,1 a2.62,2.62 0 0 0 1.52,0.46 h0 l-0.32000000000000006,4.42 zm2.74,6.79 l0.44000000000000006,-6 h2.7800000000000002 l-0.8900000000000001,6 zm3.09,0 l0.8900000000000001,-6 h3.19 l-0.8900000000000001,6 zm3.94,0 l0.8900000000000001,-6 h3.19 l-0.8900000000000001,6 zm6.890000000000001,-2.19 a2.52,2.52 0 0 1 -2.5,2.19 h-0.44000000000000006 l0.8900000000000001,-6 H62.95999965667724 zm0.6200000000000001,-4.6 H60.49999965667725 L61.359999656677246,75.30999946594238 h2.49 zm0.8900000000000001,-6.65 H61.469999656677246 l0.8700000000000001,-5.9 h2.4 zm2.5,-8.89 a1.77,1.77 0 0 1 -0.5,1 L64.85999965667725,67.77999946594238 l0,0.16000000000000003 H62.44999965667725 l0.45,-3.07 H66.05999965667725 a0.46,0.46 0 0 1 0.44000000000000006,0.51 z" id="svg_50" class=""/></g></svg>