<svg xmlns="http://www.w3.org/2000/svg" width="207" height="228"><rect id="backgroundrect" width="100%" height="100%" x="0" y="0" fill="none" stroke="none" class="" style=""/><title>Upright vacuum cleaner </title><g class="currentLayer" style=""><title>Layer 1</title><g data-name="Layer 2" id="svg_1" class=""><g data-name="Layer 16" id="svg_2"><path d="M160.3336605155468,176.8774753883481 a46.16,46.16 0 0 0 -27,8.69 l-6.26,-12 a51.3,51.3 0 0 0 4,-53.75 L92.8936605155468,46.4474753883481 a1.15,1.15 0 0 0 -1.57,-0.5 L67.1936605155468,58.507475388348105 L57.9536605155468,40.7474753883481 a1.18,1.18 0 0 0 -1.58,-0.5 l-2.06,1.08 L46.9236605155468,26.7574753883481 A38.58,38.58 0 0 0 26.6436605155468,8.287475388348103 L6.013660515546799,0.19747538834810263 A4.67,4.67 0 0 0 2.6436605155467987,8.877475388348103 L23.183660515546798,16.977475388348104 A29.26,29.26 0 0 1 38.6436605155468,30.987475388348102 l7.43,14.65 L44.6436605155468,46.367475388348105 a1.1600000000000001,1.1600000000000001 0 0 0 -0.5700000000000001,0.6800000000000002 a1.19,1.19 0 0 0 0.08000000000000002,0.8900000000000001 L54.193660515546796,67.2574753883481 v0 l0.29000000000000004,-0.29000000000000004 a15.78,15.78 0 0 0 -1.33,16.65 L107.71366051554679,188.3774753883481 a1.1600000000000001,1.1600000000000001 0 0 0 0.6800000000000002,0.5700000000000001 a1.06,1.06 0 0 0 0.35000000000000003,0.05000000000000001 a1.13,1.13 0 0 0 0.54,-0.13 a51.28,51.28 0 0 0 6.22,-3.83 l6.38,12.25 a46.12,46.12 0 0 0 -8,26 a1.17,1.17 0 0 0 1.17,1.17 h6.75 a1.17,1.17 0 0 0 0,-2.34 h-5.57 A44.16,44.16 0 0 1 158.6436605155468,179.23747538834812 c-1.6800000000000002,4.62 -5.39,17.78 1.79,28.89 c4.25,6.58 11.54,11.18 21.74,13.79 l-25.27,-0.24000000000000002 h0 A1.17,1.17 0 0 0 155.6436605155468,222.8774753883481 a1.15,1.15 0 0 0 1.15,1.17 l48.77,0.47000000000000003 h0 a1.1600000000000001,1.1600000000000001 0 0 0 1.1600000000000001,-1.17 A46.5,46.5 0 0 0 160.3336605155468,176.8774753883481 zM126.5436605155468,170.1774753883481 a25.29,25.29 0 0 1 -19,-9.05 C85.6436605155468,136.2774753883481 90.9136605155468,67.8774753883481 92.6436605155468,50.937475388348105 L129.0036605155468,120.8774753883481 A48.94,48.94 0 0 1 126.5436605155468,170.1774753883481 zM40.6436605155468,29.927475388348103 A31.66,31.66 0 0 0 24.0336605155468,14.797475388348102 L3.4536605155467988,6.717475388348102 a2.34,2.34 0 0 1 0.8600000000000001,-4.51 a2.51,2.51 0 0 1 0.8500000000000001,0.16000000000000003 L25.7436605155468,10.457475388348103 A36.24,36.24 0 0 1 44.8436605155468,27.817475388348104 l7.4,14.58 l-4.14,2.16 zM46.7436605155468,47.8774753883481 l9.67,-5 l8.71,16.73 l-5.25,2.73 a15.59,15.59 0 0 0 -4,3 zm62.49,138.35 l-54,-103.73 a13.46,13.46 0 0 1 5.72,-18.13 l29.5,-15.36 a371.34,371.34 0 0 0 -2,44.55 c0.6600000000000001,33.6 6.47,56.84 17.28,69.1 a27.52,27.52 0 0 0 19.21,9.76 A48.49,48.49 0 0 1 109.2336605155468,186.2474753883481 zm14.18,8.92 l-6,-11.55 a50.63,50.63 0 0 0 8.11,-8.05 l5.94,11.41 A46.8,46.8 0 0 0 123.4136605155468,195.1674753883481 zM162.3536605155468,206.8774753883481 c-7,-10.870000000000001 -2.49,-24.44 -1.25,-27.65 a44.15,44.15 0 0 1 43.32,42.91 C182.9436605155468,221.9374753883481 168.78366051554679,216.8174753883481 162.3536605155468,206.8774753883481 zM139.6436605155468,201.0374753883481 a13.64,13.64 0 1 0 13.65,13.64 A13.66,13.66 0 0 0 139.6436605155468,201.0374753883481 zm0,24.94 a11.31,11.31 0 1 1 11.31,-11.3 A11.31,11.31 0 0 1 139.6436605155468,225.9774753883481 z" id="svg_3"/></g></g></g></svg>