<svg xmlns="http://www.w3.org/2000/svg" xmlns:xlink="http://www.w3.org/1999/xlink" version="1.1" enable-background="new 0 0 100 100" xml:space="preserve" width="42" height="92"><rect id="backgroundrect" width="100%" height="100%" x="0" y="0" fill="none" stroke="none" class="" style=""/><g class="currentLayer" style=""><title>Layer 1</title><path fill="#000000" d="M23.101398666381833,58.777 c-25.952,0 -23,-58.777 -23,-58.777 l3.08,1.214 c-0.03900000000000001,20.584 3.31,33.132 3.31,33.132 s-1.7510000000000001,-16.701 -1.61,-32.468 l3.629,1.431 c-0.32000000000000006,13.609 1.175,24.559 1.175,24.559 s0,-12.318 0.47300000000000003,-23.907 L13.313398666381836,5.199999999999999 c-0.44600000000000006,17.979 1.266,32.111 1.47,33.632 c-0.025000000000000005,-1.738 -0.42200000000000004,-19.295 0.19100000000000003,-32.967 l3.297,1.291 c-0.09000000000000002,7.373 0.511,16.56 0.511,16.56 s0.511,-8.945 0.8950000000000001,-15.998 l3.003,1.175 c0.19200000000000003,10.708 0.42200000000000004,24.725 0.42200000000000004,24.725 s1.2650000000000001,-9.672 1.2650000000000001,-24.061 l3.284,1.291 c0.038000000000000006,7.488 0.32000000000000006,16.228 0.32000000000000006,16.228 s0.8680000000000001,-6.517 0.932,-15.729 l3.182,1.252 c0.16600000000000004,14.491 -0.6000000000000001,31.97 -0.6000000000000001,31.97 s1.9020000000000001,-11.04 2.273,-31.306 l3.361,1.316 c0.3450000000000001,11.641 -0.921,26.872 -0.921,26.872 s2.748,-10.823 2.633,-26.194 l3.4370000000000003,1.354 C42.26739866638184,16.611 45.94739866638183,58.777 23.101398666381833,58.777 z" id="svg_1" class=""/><rect x="18.6294002532959" y="71.55599975585938" fill="#000000" width="8.944000244140625" height="20.444000244140625" id="svg_2" class=""/><rect x="18.6294002532959" y="60.055999755859375" fill="#000000" width="8.944000244140625" height="2.555999994277954" id="svg_3" class=""/><rect x="18.6294002532959" y="63.888999938964844" fill="#000000" width="8.944000244140625" height="2.555999994277954" id="svg_4" class=""/><rect x="18.6294002532959" y="67.7229995727539" fill="#000000" width="8.944000244140625" height="2.555000066757202" id="svg_5" class=""/></g></svg>