<svg xmlns="http://www.w3.org/2000/svg" xmlns:xlink="http://www.w3.org/1999/xlink" version="1.1" style="enable-background:new 0 0 300.727 237.184;" xml:space="preserve" width="301" height="237"><rect id="backgroundrect" width="100%" height="100%" x="0" y="0" fill="none" stroke="none" class="" style=""/><g class="currentLayer" style=""><title>Layer 1</title><g id="svg_1" class="selected" fill="#ffffff" fill-opacity="1"><rect x="98.44501304626465" y="199.33999633789062" width="202.281005859375" height="6" id="svg_2" fill="#ffffff" fill-opacity="1"/><path d="M252.59501335144043,193.605 h11.136 c3.08,0 5.572,-2.49 5.572,-5.564 v-16.699 h5.567 v-11.146 H130.08601335144044 v11.146 h5.568 v16.699 c0,3.074 2.487,5.564 5.572,5.564 h11.128 c3.081,0 5.573,-2.49 5.573,-5.564 v-16.699 h89.1 v16.699 C247.02701335144042,191.115 249.51701335144043,193.605 252.59501335144043,193.605 z" id="svg_3" fill="#ffffff" fill-opacity="1"/><path d="M38.35401335144043,195.34 v29.48 c0,6.83 5.537,12.363 12.363,12.363 c6.828,0 12.365,-5.533 12.365,-12.363 v-29.48 H38.35401335144043 z" id="svg_4" fill="#ffffff" fill-opacity="1"/><path d="M98.84201335144043,137.863 c-0.26,4.412 3.109,8.195 7.521,8.453 c0.15800000000000003,0.008000000000000002 0.31600000000000006,0.014000000000000002 0.47500000000000003,0.014000000000000002 c4.204,0 7.729,-3.283 7.978,-7.535 c0.404,-6.932 0.5920000000000001,-13.299 0.5920000000000001,-19.154 c-0.0020000000000000005,-1.179 -0.013000000000000003,-2.329 -0.029000000000000005,-3.467 H99.38201335144043 c0.016000000000000004,1.1320000000000001 0.025000000000000005,2.285 0.024000000000000004,3.467 C99.40601335144044,125.154 99.23001335144043,131.215 98.84201335144043,137.863 z" id="svg_5" fill="#ffffff" fill-opacity="1"/><path d="M92.44501335144042,195.34 H67.71701335144043 v29.48 c0,6.83 5.537,12.363 12.363,12.363 c6.828,0 12.365,-5.533 12.365,-12.363 V195.34 z" id="svg_6" fill="#ffffff" fill-opacity="1"/><path d="M69.06001335144043,44.699 c9.702,-1.5870000000000002 17.311,-9.378 18.63,-19.168 c-2.028,-0.10400000000000001 -4.1690000000000005,-0.32100000000000006 -6.37,-0.6640000000000001 c-11.52,-1.791 -20.4,-6.304 -20.146,-10.17 c1.524,3.46 10.442,6.119 21.247,6.119 c8.154,0 15.247,-1.513 18.892,-3.7430000000000003 c1.6620000000000001,-1.018 2.608,-2.184 2.608,-3.423 c0,-3.959 -9.627,-7.168 -21.501,-7.168 c-0.406,0 -0.803,0.013000000000000003 -1.203,0.021000000000000005 C77.15301335144044,2.483 71.56701335144042,0 65.39901335144043,0 c-12.426,0 -22.5,10.074 -22.5,22.5 c0,11.181 8.156,20.451 18.841,22.199 C62.93201335144043,44.894 64.15301335144044,45 65.39901335144043,45 C66.64601335144043,45 67.86801335144042,44.894 69.06001335144043,44.699 z" id="svg_7" fill="#ffffff" fill-opacity="1"/><path d="M33.38401335144043,168.309 c1.949,0 3.831,-0.9640000000000001 4.97,-2.6580000000000004 v26.689 h24.729 v-57.791 h4.635 v57.791 h24.729 v-65.52 v-18.939 V74.766 c0.5920000000000001,1.215 1.191,2.611 1.7810000000000001,4.238 c2.526,7.002 4.687,18.047 5.103,34.67 h16.003 c-0.6300000000000001,-26.451 -5.233,-41.601 -11.361,-50.963 c-3.283,-4.9879999999999995 -7.127,-8.186 -10.678,-9.957 c-3.549,-1.7890000000000001 -6.662,-2.145 -8.436,-2.1390000000000002 c-0.6370000000000001,0 -1.115,0.04300000000000001 -1.416,0.08000000000000002 c-0.006000000000000002,0.0020000000000000005 -0.011000000000000003,0.004000000000000001 -0.017000000000000005,0.004000000000000001 H47.37601335144043 c-0.008000000000000002,-0.0010000000000000002 -0.016000000000000004,-0.003000000000000001 -0.022000000000000006,-0.004000000000000001 h-0.0020000000000000005 c-0.29900000000000004,-0.035 -0.777,-0.07800000000000001 -1.412,-0.07800000000000001 c-1.774,-0.006000000000000002 -4.889,0.3480000000000001 -8.438,2.137 c-1.6260000000000001,0.806 -3.289,1.907 -4.933,3.329 c-3.791,3.282 -7.471,8.298 -10.304,15.511 c-0.5760000000000001,1.457 -1.122,3.016 -1.6420000000000001,4.663 c-2.845,9.024 -4.772,21.046 -5.157,37.417 H31.46001335144043 c0.501,-20.518 3.722,-32.461 6.894,-38.954 v33.161 v18.939 v12.654 l-4.433,-2.352 c0.013000000000000003,0.20900000000000002 0.021000000000000005,0.41300000000000003 0.03300000000000001,0.6230000000000001 c0.03300000000000001,0.554 0.008000000000000002,1.098 -0.04900000000000001,1.633 l9.088,4.821 c1.354,0.7180000000000001 2.122,2.102 2.124,3.537 c0,0.6310000000000001 -0.14900000000000002,1.271 -0.467,1.8760000000000001 l-7.734,14.571 h0.0010000000000000002 c-0.7200000000000001,1.354 -2.104,2.122 -3.539,2.124 c-0.6330000000000001,0 -1.271,-0.14900000000000002 -1.871,-0.467 L4.124013351440429,151.311 c-1.354,-0.7180000000000001 -2.124,-2.104 -2.126,-3.537 c0.0020000000000000005,-0.6360000000000001 0.14900000000000002,-1.27 0.467,-1.867 l7.737,-14.58 c0.6860000000000002,-1.294 1.979,-2.046 3.346,-2.113 c-0.021000000000000005,-0.6740000000000002 -0.03300000000000001,-1.33 -0.05100000000000001,-1.996 c-2.062,0.08200000000000002 -4.025,1.223 -5.063,3.174 l-7.735,14.575 c-0.47600000000000003,0.8910000000000001 -0.7010000000000001,1.859 -0.6990000000000002,2.808 c-0.0020000000000000005,2.1470000000000002 1.157,4.226 3.186,5.305 l27.385,14.531 c0.5720000000000001,0.30200000000000005 1.174,0.49300000000000005 1.783,0.6000000000000001 c0.3410000000000001,0.06000000000000001 0.6830000000000002,0.1 1.023,0.1 C33.38001335144043,168.309 33.38201335144043,168.309 33.38401335144043,168.309 z" id="svg_8" fill="#ffffff" fill-opacity="1"/><path d="M15.98401335144043,138.799 c0.25,4.25 3.775,7.531 7.979,7.531 c0.15700000000000003,0 0.31600000000000006,-0.004000000000000001 0.47600000000000003,-0.014000000000000002 c0.8800000000000001,-0.05200000000000001 1.7160000000000002,-0.24900000000000003 2.491,-0.559 c0.44200000000000006,1.189 1.578,2.041 2.9210000000000003,2.041 c1.726,0 3.125,-1.3980000000000001 3.125,-3.125 c0,-1.26 -0.7490000000000001,-2.338 -1.822,-2.832 c0.5870000000000001,-1.197 0.8860000000000001,-2.555 0.803,-3.98 c-0.39100000000000007,-6.65 -0.5670000000000001,-12.707 -0.5670000000000001,-18.221 c-0.0020000000000000005,-1.184 0.008000000000000002,-2.333 0.024000000000000004,-3.467 H15.41701335144043 c-0.016000000000000004,1.1400000000000001 -0.027000000000000007,2.286 -0.028000000000000004,3.467 C15.39101335144043,125.496 15.578013351440429,131.865 15.98401335144043,138.799 z" id="svg_9" fill="#ffffff" fill-opacity="1"/><circle cx="10.85201358795166" cy="147.7989959716797" r="3.125" id="svg_10" fill="#ffffff" fill-opacity="1"/><circle cx="32.89401435852051" cy="161.6739959716797" r="2.5420000553131104" id="svg_11" fill="#ffffff" fill-opacity="1"/><circle cx="20.185012817382812" cy="153.25799560546875" r="2.375" id="svg_12" fill="#ffffff" fill-opacity="1"/><circle cx="11.643013000488281" cy="139.08999633789062" r="2.125" id="svg_13" fill="#ffffff" fill-opacity="1"/><circle cx="39.643014907836914" cy="147.25799560546875" r="2.125" id="svg_14" fill="#ffffff" fill-opacity="1"/><circle cx="27.769012451171875" cy="154.7989959716797" r="2.125" id="svg_15" fill="#ffffff" fill-opacity="1"/><circle cx="33.47701454162598" cy="152.1739959716797" r="2.125" id="svg_16" fill="#ffffff" fill-opacity="1"/><path d="M144.72901335144044,63.507 c4.048,0 7.33,-3.283 7.332,-7.332 c-0.0020000000000000005,-4.051 -3.284,-7.336 -7.332,-7.336 c-4.053,0 -7.335,3.285 -7.338,7.336 C137.39301335144043,60.224 140.67601335144042,63.507 144.72901335144044,63.507 zM150.05901335144043,56.175 c-0.007000000000000002,2.9450000000000003 -2.39,5.3260000000000005 -5.331,5.333 c-2.948,-0.007000000000000002 -5.33,-2.388 -5.336,-5.333 c0.006000000000000002,-2.948 2.388,-5.33 5.336,-5.336 C147.67001335144042,50.845 150.05301335144043,53.227 150.05901335144043,56.175 z" id="svg_17" fill="#ffffff" fill-opacity="1"/><path d="M181.22601335144043,48.924 c0,-3.911 -3.171,-7.083 -7.083,-7.083 c-3.9130000000000003,0 -7.083,3.172 -7.083,7.083 c0,3.911 3.17,7.083 7.083,7.083 C178.05501335144044,56.007 181.22601335144043,52.835 181.22601335144043,48.924 zM174.14301335144043,43.839 c2.807,0.006000000000000002 5.077,2.278 5.083,5.085 c-0.006000000000000002,2.807 -2.276,5.079 -5.083,5.083 c-2.807,-0.004000000000000001 -5.078,-2.276 -5.085,-5.083 C169.06401335144042,46.117 171.33601335144044,43.845 174.14301335144043,43.839 z" id="svg_18" fill="#ffffff" fill-opacity="1"/><path d="M135.55901335144043,93.34 c0,-2.856 -2.315,-5.166 -5.166,-5.166 c-2.855,0 -5.168,2.311 -5.168,5.166 c0,2.853 2.313,5.166 5.168,5.168 C133.24401335144043,98.506 135.55901335144043,96.193 135.55901335144043,93.34 zM130.39301335144043,90.174 c1.7480000000000002,0.0020000000000000005 3.162,1.4180000000000001 3.166,3.166 c-0.004000000000000001,1.75 -1.4180000000000001,3.164 -3.166,3.168 c-1.75,-0.004000000000000001 -3.166,-1.4180000000000001 -3.168,-3.168 C127.22801335144042,91.592 128.64301335144043,90.176 130.39301335144043,90.174 z" id="svg_19" fill="#ffffff" fill-opacity="1"/><path d="M192.72701335144043,17.851 c-4.689,0 -8.49,3.799 -8.49,8.488 c0,4.69 3.801,8.488 8.49,8.488 c4.687,0 8.489,-3.798 8.489,-8.488 C201.21601335144044,21.649 197.41301335144044,17.851 192.72701335144043,17.851 zM186.23501335144044,26.339 c0.007000000000000002,-3.584 2.907,-6.481 6.491,-6.486 c3.583,0.006000000000000002 6.482,2.902 6.487,6.486 c-0.006000000000000002,3.585 -2.904,6.481 -6.487,6.49 C189.14301335144043,32.82 186.24201335144042,29.924 186.23501335144044,26.339 z" id="svg_20" fill="#ffffff" fill-opacity="1"/><path d="M191.72601335144043,57.673 c0,3.359 2.724,6.084 6.084,6.084 c3.359,0 6.082,-2.725 6.084,-6.084 h-0.0020000000000000005 c0,-3.361 -2.723,-6.084 -6.082,-6.084 C194.44901335144044,51.589 191.72601335144043,54.311 191.72601335144043,57.673 zM193.72601335144043,57.673 c0.004000000000000001,-2.255 1.8290000000000002,-4.08 4.084,-4.084 c2.254,0.004000000000000001 4.078,1.8290000000000002 4.083,4.084 c-0.005000000000000001,2.254 -1.8290000000000002,4.08 -4.083,4.085 C195.55501335144044,61.753 193.72901335144044,59.927 193.72601335144043,57.673 z" id="svg_21" fill="#ffffff" fill-opacity="1"/><path d="M216.22701335144043,90.09 c-3.362,0 -6.085,2.723 -6.085,6.083 c0,3.359 2.723,6.083 6.085,6.085 c3.358,-0.0020000000000000005 6.081,-2.726 6.083,-6.085 h-0.0020000000000000005 C222.30801335144042,92.813 219.58501335144044,90.09 216.22701335144043,90.09 zM216.22701335144043,100.256 c-2.2560000000000002,-0.0020000000000000005 -4.08,-1.8290000000000002 -4.085,-4.083 c0.005000000000000001,-2.257 1.8290000000000002,-4.079 4.085,-4.083 c2.253,0.004000000000000001 4.077,1.826 4.081,4.083 C220.30401335144043,98.427 218.47901335144044,100.254 216.22701335144043,100.256 z" id="svg_22" fill="#ffffff" fill-opacity="1"/><path d="M189.72601335144043,97.588 c-3.36,0.0020000000000000005 -6.084,2.724 -6.084,6.086 c0,3.36 2.724,6.082 6.084,6.084 c3.359,-0.0020000000000000005 6.082,-2.724 6.084,-6.084 h-0.0020000000000000005 C195.80801335144042,100.312 193.08501335144044,97.59 189.72601335144043,97.588 zM185.64301335144043,103.674 c0.003000000000000001,-2.257 1.828,-4.08 4.083,-4.085 c2.255,0.005000000000000001 4.078,1.828 4.082,4.085 c-0.004000000000000001,2.253 -1.8290000000000002,4.078 -4.082,4.083 C187.47101335144043,107.752 185.64501335144044,105.927 185.64301335144043,103.674 z" id="svg_23" fill="#ffffff" fill-opacity="1"/><path d="M234.30901335144043,60.173 h-0.0020000000000000005 c0,-3.36 -2.723,-6.082 -6.081,-6.082 c-3.361,0 -6.084,2.722 -6.084,6.082 c0,3.359 2.723,6.084 6.084,6.084 C231.58501335144044,66.257 234.30801335144042,63.532 234.30901335144043,60.173 zM228.22701335144043,56.089 c2.253,0.004000000000000001 4.078,1.827 4.083,4.084 c-0.005000000000000001,2.254 -1.83,4.079 -4.083,4.084 c-2.2560000000000002,-0.005000000000000001 -4.081,-1.83 -4.085,-4.084 C224.14501335144044,57.916 225.97101335144043,56.093 228.22701335144043,56.089 z" id="svg_24" fill="#ffffff" fill-opacity="1"/><path d="M271.72601335144043,105.758 c3.36,-0.003000000000000001 6.082,-2.725 6.084,-6.084 h-0.0020000000000000005 c0,-3.362 -2.722,-6.084 -6.082,-6.086 c-3.359,0.0020000000000000005 -6.084,2.724 -6.084,6.086 C265.6420133514404,103.033 268.3640133514404,105.755 271.72601335144043,105.758 zM271.72601335144043,95.588 c2.255,0.005000000000000001 4.079,1.8290000000000002 4.083,4.086 c-0.004000000000000001,2.252 -1.83,4.079 -4.083,4.083 c-2.254,-0.004000000000000001 -4.079,-1.831 -4.083,-4.083 C267.64601335144044,97.417 269.47001335144046,95.593 271.72601335144043,95.588 z" id="svg_25" fill="#ffffff" fill-opacity="1"/><path d="M251.25301335144042,70.41 c-1.247,-0.982 -2.816,-1.5710000000000002 -4.526,-1.5710000000000002 c-4.051,0 -7.334,3.283 -7.334,7.334 c0,0.41400000000000003 0.04300000000000001,0.8180000000000001 0.10800000000000001,1.213 c-3.063,-0.46900000000000003 -6.504,-0.981 -10.066,-1.488 c-1.017,-4.053 -4.675,-7.057 -9.04,-7.059 c-1.315,0 -2.565,0.275 -3.701,0.7670000000000001 c-1.117,-3.9050000000000002 -4.704,-6.767 -8.966,-6.767 c-5.156,0 -9.335,4.179 -9.335,9.336 c0,0.35000000000000003 0.023000000000000007,0.6940000000000002 0.06100000000000001,1.034 c-4.766,0.32700000000000007 -11.291,1.102 -17.886,1.991 c-1.243,-3.6950000000000003 -4.728,-6.359 -8.841,-6.361 c-1.723,0 -3.33,0.47600000000000003 -4.715,1.2890000000000001 c-1.6900000000000002,-2.391 -4.47,-3.954 -7.619,-3.954 c-4.077,0 -7.534,2.617 -8.806000000000001,6.263 c-1.133,-0.49000000000000005 -2.3810000000000002,-0.7640000000000001 -3.692,-0.7640000000000001 c-5.156,0 -9.335,4.18 -9.335,9.336 c0,4.054 2.59,7.492 6.201,8.78 c-0.018000000000000002,0.23800000000000002 -0.036000000000000004,0.47600000000000003 -0.036000000000000004,0.7180000000000001 c0.0010000000000000002,2.826 1.263,5.353 3.247,7.063 l-2.673,7.129 c-1.272,-0.6500000000000001 -2.7110000000000003,-1.025 -4.238,-1.025 c-5.156,0 -9.333,4.178 -9.336,9.334 c0.003000000000000001,4.371 3.012,8.029 7.069,9.043 l-1.854,4.947 c-3.7560000000000002,1.047 -5.854,1.742 -5.854,1.742 v28.363 H274.87001335144043 V128.74 c0,0 -2.099,-0.6950000000000002 -5.851,-1.742 l-13.611,-36.321 c2.984,-0.929 5.15,-3.713 5.152,-7.003 c-0.0010000000000000002,-1.113 -0.256,-2.165 -0.6990000000000002,-3.109 c3.092,-0.8600000000000001 5.365,-3.688 5.365,-7.057 c0,-4.052 -3.281,-7.333 -7.331,-7.335 C254.95201335144043,66.175 252.42101335144042,67.909 251.25301335144042,70.41 zM241.39301335144043,76.173 c0.006000000000000002,-2.944 2.388,-5.328 5.334,-5.332 c1.5470000000000002,0.0020000000000000005 2.927,0.6710000000000002 3.9,1.723 c-0.04000000000000001,0.31100000000000005 -0.06700000000000002,0.6230000000000001 -0.06700000000000002,0.9440000000000001 c0,1.53 0.47000000000000003,2.948 1.271,4.124 c-0.6400000000000001,2.23 -2.668,3.87 -5.104,3.875 C243.78001335144043,81.501 241.39801335144043,79.119 241.39301335144043,76.173 zM247.89301335144043,83.674 c0,-0.09400000000000003 0.023000000000000007,-0.18000000000000002 0.027000000000000007,-0.272 c2.423,-0.3970000000000001 4.441,-1.978 5.447,-4.133 c1.204,0.9470000000000001 2.7110000000000003,1.522 4.354,1.562 c0.522,0.8240000000000001 0.8370000000000001,1.794 0.8390000000000001,2.8440000000000003 c-0.006000000000000002,2.944 -2.39,5.328 -5.332,5.332 C250.28001335144043,89.002 247.89601335144042,86.618 247.89301335144043,83.674 zM252.55901335144043,73.508 c0.006000000000000002,-2.946 2.387,-5.329 5.336,-5.333 c2.941,0.004000000000000001 5.327,2.387 5.331,5.333 c-0.004000000000000001,2.944 -2.388,5.327 -5.331,5.331 C254.94601335144043,78.835 252.56501335144043,76.452 252.55901335144043,73.508 zM200.39201335144043,72.175 c0.008000000000000002,-4.052 3.285,-7.328 7.336,-7.335 c3.523,0.005000000000000001 6.459,2.489 7.166,5.804 c-2.321,1.697 -3.835,4.434 -3.837,7.53 c0,0.17300000000000001 0.017000000000000005,0.3410000000000001 0.026000000000000006,0.511 c-1.006,0.521 -2.145,0.8200000000000001 -3.356,0.8220000000000001 C203.67701335144042,79.501 200.39901335144043,76.222 200.39201335144043,72.175 zM227.72601335144043,78.174 c-0.007000000000000002,4.049 -3.284,7.3260000000000005 -7.331,7.333 c-4.052,-0.007000000000000002 -7.329,-3.284 -7.336,-7.333 c0.007000000000000002,-4.052 3.284,-7.327 7.336,-7.333 C224.44101335144043,70.847 227.71901335144042,74.122 227.72601335144043,78.174 zM145.72501335144042,90.507 c0.008000000000000002,-4.05 3.284,-7.3260000000000005 7.336,-7.334 c4.049,0.008000000000000002 7.325,3.284 7.331,7.334 h0.0020000000000000005 c-0.008000000000000002,4.049 -3.284,7.325 -7.333,7.333 C149.00901335144042,97.832 145.73201335144043,94.556 145.72501335144042,90.507 zM146.89501335144044,73.674 c1.161,0.0020000000000000005 2.255,0.28 3.23,0.7610000000000001 c-0.04000000000000001,0.35300000000000004 -0.06600000000000002,0.7100000000000001 -0.06600000000000002,1.074 c0.0010000000000000002,2.16 0.7420000000000001,4.143 1.975,5.724 c-3.754,0.41300000000000003 -6.835,3.046 -7.9030000000000005,6.561 c-2.677,-1.094 -4.564,-3.717 -4.57,-6.784 C139.56601335144043,76.956 142.84401335144042,73.681 146.89501335144044,73.674 zM159.39301335144043,68.173 c2.491,0.006000000000000002 4.687,1.25 6.012,3.148 c-1.848,1.705 -3.012,4.139 -3.012,6.852 c0,1.2890000000000001 0.261,2.516 0.7330000000000001,3.633 c-1.095,0.6500000000000001 -2.367,1.031 -3.733,1.033 c-0.3980000000000001,0 -0.786,-0.04100000000000001 -1.167,-0.10400000000000001 c-0.9560000000000001,-0.6370000000000001 -2.036,-1.1 -3.197,-1.35 c-1.7970000000000002,-1.336 -2.966,-3.466 -2.971,-5.877 C152.06501335144043,71.456 155.34201335144044,68.182 159.39301335144043,68.173 zM179.05901335144043,78.173 h0.0020000000000000005 c-0.008000000000000002,4.049 -3.285,7.327 -7.334,7.334 c-0.06600000000000002,0 -0.132,-0.009000000000000003 -0.19800000000000004,-0.011000000000000003 c-1.271,-0.8790000000000001 -2.7680000000000002,-1.453 -4.388,-1.61 c-1.6720000000000002,-1.344 -2.744,-3.401 -2.748,-5.713 c0.007000000000000002,-4.051 3.284,-7.3260000000000005 7.334,-7.334 C175.77501335144044,70.847 179.05301335144043,74.122 179.05901335144043,78.173 zM173.55801335144042,93.174 h0.003000000000000001 c-0.009000000000000003,4.048 -3.286,7.3260000000000005 -7.334,7.333 c-2.707,-0.005000000000000001 -5.063,-1.476 -6.335,-3.6580000000000004 c1.5470000000000002,-1.665 2.5,-3.89 2.5,-6.3420000000000005 h0.0020000000000000005 c0,-1.12 -0.20800000000000002,-2.188 -0.5690000000000001,-3.184 c1.227,-0.925 2.747,-1.481 4.402,-1.484 C170.27601335144044,85.848 173.55201335144042,89.122 173.55801335144042,93.174 zM140.06101335144044,105.673 c4.049,0.007000000000000002 7.324,3.283 7.333,7.335 c-0.009000000000000003,4.047 -3.284,7.324 -7.333,7.332 c-4.052,-0.008000000000000002 -7.328,-3.285 -7.335,-7.332 C132.73201335144043,108.956 136.00901335144042,105.68 140.06101335144044,105.673 zM151.41601335144043,150.904 c-5.186,0 -9.385,-4.201 -9.385,-9.385 c0,-5.184 4.199,-9.385 9.385,-9.385 c5.181,0 9.385,4.201 9.385,9.385 C160.80101335144042,146.703 156.59701335144044,150.904 151.41601335144043,150.904 zM176.72701335144043,115.508 c4.049,0.007000000000000002 7.3260000000000005,3.283 7.332,7.332 c-0.006000000000000002,4.051 -3.283,7.3260000000000005 -7.332,7.334 c-4.051,-0.008000000000000002 -7.328,-3.283 -7.334,-7.334 C169.39901335144043,118.791 172.67701335144042,115.515 176.72701335144043,115.508 zM262.9240133514404,141.52 c0,5.184 -4.198,9.385 -9.385,9.385 c-5.179,0 -9.38,-4.201 -9.38,-9.385 c0,-5.184 4.201,-9.385 9.38,-9.385 C258.72601335144043,132.135 262.9240133514404,136.336 262.9240133514404,141.52 zM202.47901335144044,117.607 c-5.121,0 -11.236,0.38700000000000007 -17.465,0.9530000000000001 c-1.552,-3 -4.6770000000000005,-5.054 -8.286,-5.054 c-4.344,0 -7.983,2.9690000000000003 -9.025,6.986 c-10.451,1.35 -18.455,2.6630000000000003 -18.455,2.6630000000000003 l9.28,-24.71 c1.6830000000000003,2.45 4.502,4.061 7.699,4.062 c5.154,-0.0020000000000000005 9.333,-4.181 9.333,-9.334 c0,-2.186 -0.7570000000000001,-4.19 -2.014,-5.781 c10.228,-1.509 23.045,-3.205 28.938,-3.205 c2.72,0 6.917,0.36200000000000004 11.654,0.9 c1.6560000000000001,1.498 3.846,2.42 6.256,2.42 c1.565,0 3.038,-0.39100000000000007 4.334,-1.073 c7.291,1.006 14.316,2.104 18.223,2.7270000000000003 l12.74,33.994 C255.69101335144043,123.156 221.92601335144042,117.607 202.47901335144044,117.607 z" id="svg_26" fill="#ffffff" fill-opacity="1"/></g></g></svg>