<svg xmlns:dc="http://purl.org/dc/elements/1.1/" xmlns:cc="http://creativecommons.org/ns#" xmlns:rdf="http://www.w3.org/1999/02/22-rdf-syntax-ns#" xmlns:svg="http://www.w3.org/2000/svg" xmlns="http://www.w3.org/2000/svg" xmlns:sodipodi="http://sodipodi.sourceforge.net/DTD/sodipodi-0.dtd" xmlns:inkscape="http://www.inkscape.org/namespaces/inkscape" version="1.1" width="24.9795918367347" height="25.653061224489797" style=""><rect id="backgroundrect" width="100%" height="100%" x="0" y="0" fill="none" stroke="none" class="" style=""/><g class="currentLayer" style=""><title>Layer 1</title><g id="svg_1" class="selected" fill="#ffffff" fill-opacity="1"><path d="m14.185930133743284,0.0009355245018127789 a0.26472526,0.26460223 0 0 0 -0.18196000000000007,0.07970000000000003 l-1.32092,1.3123200000000004 a0.26472526,0.26460223 0 0 0 -0.03210000000000002,0.40719 l1.3393100000000002,1.3304500000000001 a0.26472526,0.26460223 0 1 0 0.3731800000000001,-0.3750500000000001 l-0.8746600000000002,-0.8693000000000002 c4.92671,0.22205000000000005 9.50156,4.0082 10.54019,8.85111 v0.002000000000000001 v0.002000000000000001 c0.3761400000000001,1.6153 0.4006800000000001,3.31339 0.06730000000000003,4.93774 a0.26472526,0.26460223 0 1 0 0.51854,0.10617000000000003 c0.34898000000000023,-1.70008 0.3233800000000002,-3.47314 -0.07,-5.16277 c-1.09737,-5.10918 -5.87875,-9.05642 -11.07412,-9.26781 l0.90512,-0.8998500000000003 a0.26472526,0.26460223 0 0 0 -0.19119000000000005,-0.45474 zm-3.7258400000000007,1.58508 v0.00009000000000000003 a0.26472526,0.26460223 0 0 0 -0.04450000000000002,0.005000000000000002 c-1.7522700000000002,0.3546200000000001 -3.41518,1.11573 -4.8379900000000005,2.19328 c0,0.00017000000000000007 0,0.0006599999999999999 -0.002000000000000001,0.0007900000000000002 c-4.15611,3.02584 -5.83736,8.84648 -4.06663,13.63631 l-1.13085,-0.51603 a0.26472526,0.26460223 0 0 0 -0.10227000000000003,-0.025300000000000013 a0.26472526,0.26460223 0 0 0 -0.11759000000000006,0.50663 l1.6829300000000005,0.7679900000000004 a0.26472526,0.26460223 0 0 0 0.2824700000000001,0.024300000000000013 a0.26472526,0.26460223 0 0 0 0.1426,-0.17953000000000005 l0.7530500000000002,-1.67355 a0.26472526,0.26460223 0 0 0 -0.23808,-0.3765100000000001 a0.26472526,0.26460223 0 0 0 -0.24503000000000005,0.15937 l-0.5203099999999998,1.1568100000000001 c-1.6978500000000005,-4.56263 -0.08480000000000003,-10.17237 3.87256,-13.05258 l0.002000000000000001,-0.002000000000000001 l0.002000000000000001,-0.002000000000000001 c1.3609900000000001,-1.03168 2.95405,-1.7608900000000005 4.62736,-2.09953 a0.26472526,0.26460223 0 0 0 -0.06050000000000002,-0.52419 zm-0.4423300000000001,3.50625 a0.26476349,0.26464046 0 1 0 0,0.52925 c1.30285,0 2.37339,0.96916 2.53575,2.22947 c-0.3199000000000002,-0.06780000000000003 -0.6439400000000004,-0.10714000000000003 -0.96948,-0.10884 v0 v0 c-0.8116700000000002,0 -1.58626,0.19557000000000005 -2.28737,0.5468400000000002 c-0.7011000000000002,0.3513400000000001 -1.3291300000000001,0.8578500000000002 -1.8546400000000005,1.48048 c-0.26276,0.3113100000000002 -0.5001599999999998,0.6519100000000002 -0.7081700000000002,1.01676 a0.26473141999999994,0.26460842 0 0 0 -0.005000000000000002,0.007000000000000004 a0.2647645,0.26464146 0 0 0 -0.005000000000000002,0.007000000000000004 a0.26473141999999994,0.26460842 0 0 0 -0.007000000000000004,0.017000000000000008 a0.2647645,0.26464146 0 0 0 -0.002000000000000001,0.007000000000000004 a0.2647645,0.26464146 0 0 0 0,0.0006599999999999999 a0.26473141999999994,0.26460842 0 0 0 -0.005000000000000002,0.017000000000000008 a0.2647645,0.26464146 0 0 0 -0.002000000000000001,0.007000000000000004 a0.26473141999999994,0.26460842 0 0 0 -0.005000000000000002,0.019400000000000008 a0.2647645,0.26464146 0 0 0 -0.002000000000000001,0.007000000000000004 a0.2647645,0.26464146 0 0 0 -0.00015000000000000007,0.0006599999999999999 a0.26473141999999994,0.26460842 0 0 0 -0.002000000000000001,0.019400000000000008 a0.2647645,0.26464146 0 0 0 0,0.007000000000000004 a0.26473141999999994,0.26460842 0 0 0 0,0.019400000000000008 a0.2647645,0.26464146 0 0 0 0,0.007000000000000004 a0.26473141999999994,0.26460842 0 0 0 0.002000000000000001,0.019400000000000008 a0.2647645,0.26464146 0 0 0 0,0.007000000000000004 a0.26473141999999994,0.26460842 0 0 0 0.005000000000000002,0.019400000000000008 a0.2647645,0.26464146 0 0 0 0.002000000000000001,0.005000000000000002 a0.26473141999999994,0.26460842 0 0 0 0.005000000000000002,0.019400000000000008 a0.2647645,0.26464146 0 0 0 0.002000000000000001,0.007000000000000004 a0.26473141999999994,0.26460842 0 0 0 0.007000000000000004,0.019400000000000008 a0.2647645,0.26464146 0 0 0 0.002000000000000001,0.005000000000000002 a0.2647645,0.26464146 0 0 0 0,0.0007999999999999999 a0.26473141999999994,0.26460842 0 0 0 0.007000000000000004,0.014600000000000004 a0.2647645,0.26464146 0 0 0 0.005000000000000002,0.007000000000000004 a0.2647645,0.26464146 0 0 0 0.00010000000000000003,0.00012000000000000003 a0.26473141999999994,0.26460842 0 0 0 0.010000000000000004,0.014600000000000004 a0.2647645,0.26464146 0 0 0 0.005000000000000002,0.007000000000000004 a0.2647645,0.26464146 0 0 0 0,0.0006299999999999999 a0.26473141999999994,0.26460842 0 0 0 0.010000000000000004,0.012200000000000006 a0.2647645,0.26464146 0 0 0 0.007000000000000004,0.007000000000000004 a0.26473141999999994,0.26460842 0 0 0 0.012100000000000003,0.012200000000000006 a0.2647645,0.26464146 0 0 0 0.007000000000000004,0.007000000000000004 a0.26473141999999994,0.26460842 0 0 0 0.014600000000000004,0.012100000000000003 a0.2647645,0.26464146 0 0 0 0.007000000000000004,0.005000000000000002 a0.2647645,0.26464146 0 0 0 0,0.0004800000000000002 a0.26473141999999994,0.26460842 0 0 0 0.014600000000000004,0.010000000000000004 a0.2647645,0.26464146 0 0 0 0.010000000000000004,0.005000000000000002 a0.2647645,0.26464146 0 0 0 0,0.00045000000000000015 a0.26473141999999994,0.26460842 0 0 0 0.012100000000000003,0.007000000000000004 a0.2647645,0.26464146 0 0 0 0.012100000000000003,0.005000000000000002 a0.2647645,0.26464146 0 0 0 0,0.00032000000000000013 a0.26473141999999994,0.26460842 0 0 0 0.014600000000000004,0.005000000000000002 a0.2647645,0.26464146 0 0 0 0.010000000000000004,0.002000000000000001 a0.26473141999999994,0.26460842 0 0 0 0.014600000000000004,0.005000000000000002 a0.2647645,0.26464146 0 0 0 0.012100000000000003,0.002000000000000001 a0.2647645,0.26464146 0 0 0 0,0.00010000000000000003 a0.26473141999999994,0.26460842 0 0 0 0.014600000000000004,0.002000000000000001 a0.2647645,0.26464146 0 0 0 0.012200000000000006,0.002000000000000001 a0.26473141999999994,0.26460842 0 0 0 0.012100000000000003,0.0010000000000000005 a0.2647645,0.26464146 0 0 0 0.017000000000000008,0.0007700000000000003 c0,0 0.002000000000000001,0 0.002000000000000001,0 c2.24616,0.0007900000000000002 4.02964,1.5874000000000001 4.02964,3.50739 c0,1.90687 -1.7594500000000002,3.48434 -3.98392,3.50667 a0.26472526,0.26460223 0 0 0 -0.25084,0.08600000000000003 a0.26472526,0.26460223 0 0 0 -0.06560000000000003,0.23055 a0.26472534,0.26460231 0 0 0 0.007000000000000004,0.025700000000000008 a0.26472526,0.26460223 0 0 0 0,0.00010000000000000003 a0.26472526,0.26460223 0 0 0 0.06320000000000003,0.10689000000000003 c0.20067,0.3448100000000002 0.4273100000000002,0.6676800000000004 0.6772500000000002,0.9638300000000002 c0.5255299999999998,0.6226500000000003 1.1535600000000001,1.12904 1.8546400000000005,1.48038 c0.7011000000000002,0.3513500000000001 1.47572,0.5469400000000002 2.2873900000000003,0.5469400000000002 v0 v0 c0.4213800000000002,-0.002000000000000001 0.84016,-0.06830000000000003 1.25061,-0.17686000000000004 c0.4123200000000002,0.10932000000000003 0.8331000000000002,0.17467 1.2564,0.17686000000000004 v0 v0 c0.8116200000000002,0 1.58614,-0.19557000000000005 2.2872500000000002,-0.5469400000000002 c0.7011200000000002,-0.3513400000000001 1.32923,-0.8577300000000002 1.8547600000000002,-1.48038 c0.25001,-0.2962200000000001 0.4767200000000001,-0.61933 0.6773400000000004,-0.96426 a0.26472534,0.26460231 0 0 0 -0.08070000000000004,-0.4239900000000001 a0.26472526,0.26460223 0 0 0 -0.11588000000000002,-0.027500000000000014 h-0.00010000000000000003 a0.26472526,0.26460223 0 0 0 -0.0367,0.002000000000000001 c-2.23096,-0.017000000000000008 -3.99758,-1.59617 -3.99758,-3.50698 c0,-1.9205 1.7844799999999998,-3.50737 4.03147,-3.50737 a0.2647645,0.26464146 0 0 0 0.007000000000000004,-0.0005000000000000001 a0.26473141999999994,0.26460842 0 0 0 0.012100000000000003,-0.0006399999999999998 a0.2647645,0.26464146 0 0 0 0.014600000000000004,-0.002000000000000001 a0.26473141999999994,0.26460842 0 0 0 0.012100000000000003,-0.002000000000000001 a0.2647645,0.26464146 0 0 0 0.012100000000000003,-0.002000000000000001 a0.26473141999999994,0.26460842 0 0 0 0.014600000000000004,-0.002000000000000001 a0.2647645,0.26464146 0 0 0 0.012200000000000006,-0.005000000000000002 a0.26473141999999994,0.26460842 0 0 0 0.014600000000000004,-0.005000000000000002 a0.2647645,0.26464146 0 0 0 0.010000000000000004,-0.005000000000000002 a0.26473141999999994,0.26460842 0 0 0 0.014600000000000004,-0.007000000000000004 a0.2647645,0.26464146 0 0 0 0.010000000000000004,-0.005000000000000002 a0.26473141999999994,0.26460842 0 0 0 0.014600000000000004,-0.010000000000000004 a0.2647645,0.26464146 0 0 0 0.007000000000000004,-0.005000000000000002 a0.26473141999999994,0.26460842 0 0 0 0.014600000000000004,-0.012200000000000006 a0.2647645,0.26464146 0 0 0 0.005000000000000002,-0.005000000000000002 a0.26473141999999994,0.26460842 0 0 0 0.014600000000000004,-0.012100000000000003 a0.2647645,0.26464146 0 0 0 0.005000000000000002,-0.005000000000000002 a0.26473141999999994,0.26460842 0 0 0 0.012100000000000003,-0.014600000000000004 a0.2647645,0.26464146 0 0 0 0.005000000000000002,-0.005000000000000002 a0.26473141999999994,0.26460842 0 0 0 0.012100000000000003,-0.017000000000000008 a0.2647645,0.26464146 0 0 0 0.002000000000000001,-0.005000000000000002 a0.26473141999999994,0.26460842 0 0 0 0.010000000000000004,-0.017000000000000008 a0.2647645,0.26464146 0 0 0 0.002000000000000001,-0.007000000000000004 a0.26473141999999994,0.26460842 0 0 0 0.007000000000000004,-0.017000000000000008 a0.2647645,0.26464146 0 0 0 0.002000000000000001,-0.005000000000000002 a0.26473141999999994,0.26460842 0 0 0 0.007000000000000004,-0.019400000000000008 a0.2647645,0.26464146 0 0 0 0.002000000000000001,-0.007000000000000004 a0.26473141999999994,0.26460842 0 0 0 0.005000000000000002,-0.017000000000000008 a0.2647645,0.26464146 0 0 0 0.002000000000000001,-0.007000000000000004 a0.26473141999999994,0.26460842 0 0 0 0.002000000000000001,-0.017000000000000008 a0.2647645,0.26464146 0 0 0 0,-0.007000000000000004 a0.26473141999999994,0.26460842 0 0 0 0,-0.019400000000000008 a0.2647645,0.26464146 0 0 0 0,-0.007000000000000004 a0.26473141999999994,0.26460842 0 0 0 -0.002000000000000001,-0.019400000000000008 a0.2647645,0.26464146 0 0 0 0,-0.007000000000000004 a0.26473141999999994,0.26460842 0 0 0 -0.002000000000000001,-0.019400000000000008 a0.2647645,0.26464146 0 0 0 -0.002000000000000001,-0.007000000000000004 a0.26473141999999994,0.26460842 0 0 0 -0.005000000000000002,-0.017000000000000008 a0.2647645,0.26464146 0 0 0 -0.002000000000000001,-0.010000000000000004 a0.26473141999999994,0.26460842 0 0 0 -0.007000000000000004,-0.017000000000000008 a0.2647645,0.26464146 0 0 0 -0.002000000000000001,-0.007000000000000004 a0.26473141999999994,0.26460842 0 0 0 -0.010000000000000004,-0.017000000000000008 c-0.20796000000000006,-0.3648500000000001 -0.4454100000000002,-0.70545 -0.7082,-1.01676 c-0.5255099999999998,-0.6226600000000002 -1.15351,-1.12914 -1.8546400000000005,-1.48048 c-0.7011000000000002,-0.3513400000000001 -1.4757,-0.5468400000000002 -2.28736,-0.5468400000000002 v0 v0 c-0.3194700000000002,0.002000000000000001 -0.63748,0.040300000000000016 -0.9514400000000002,0.10617000000000003 c0.04060000000000002,-0.19557000000000005 0.11637000000000003,-0.3774600000000002 0.22011000000000006,-0.5398000000000002 c0.22083000000000005,0.11370000000000004 0.4708400000000001,0.15063000000000001 0.6953200000000004,0.15063000000000001 c0.4039600000000001,0.005000000000000002 0.79444,-0.15889000000000006 1.19229,-0.3046700000000001 c0.3984900000000001,-0.14601000000000006 0.79896,-0.2795800000000001 1.15921,-0.28009 a0.26472526,0.26460223 0 0 0 0.22618000000000005,-0.40078 c-0.2963600000000001,-0.4923500000000001 -0.7783599999999998,-0.84806 -1.31344,-1.04023 c-0.3270900000000001,-0.12098 -0.6878800000000004,-0.17953000000000005 -1.04423,-0.15743000000000007 c-0.3529000000000001,0.021900000000000013 -0.70096,0.12463000000000003 -1.00821,0.3215400000000001 c-0.4019200000000001,0.22375000000000006 -0.6091500000000002,0.7231900000000002 -0.4064600000000001,1.15771 c0.02720000000000001,0.07070000000000003 0.06240000000000002,0.13702 0.10349000000000003,0.1984800000000001 c-0.024500000000000008,0.035 -0.04830000000000002,0.07070000000000003 -0.07070000000000003,0.10714000000000003 c-0.45,-1.15055 -1.5687900000000004,-1.96841 -2.87531,-1.96841 zm4.40011,0.7116700000000002 c0.24442000000000005,-0.002000000000000001 0.4922200000000001,0.042000000000000016 0.7185,0.12584 a0.26472526,0.26460223 0 0 0 0.002000000000000001,0.00082 c0.2890500000000001,0.10349000000000003 0.5338900000000002,0.2828000000000001 0.7456100000000002,0.4897700000000001 c-0.2878100000000001,0.06100000000000002 -0.56596,0.14406000000000005 -0.81988,0.23711000000000004 c-0.40423,0.14819000000000004 -0.7659000000000002,0.2759100000000001 -1.00481,0.27263 a0.26472526,0.26460223 0 0 0 -0.005000000000000002,0 c-0.10909000000000003,0.00017000000000000007 -0.21501000000000006,-0.014600000000000004 -0.31063,-0.04060000000000002 c0.27173,-0.20625000000000004 0.6108300000000002,-0.3285500000000001 0.97961,-0.3285500000000001 a0.2648080800000001,0.264685 0 1 0 0,-0.52937 c-0.5266700000000002,0 -1.00983,0.19168000000000004 -1.3843,0.50828 a0.26472526,0.26460223 0 0 0 -0.002000000000000001,-0.002000000000000001 c-0.0734,-0.15135 0.017000000000000008,-0.3865400000000001 0.18755000000000005,-0.47964 a0.26472526,0.26460223 0 0 0 0.017000000000000008,-0.012100000000000003 c0.22204000000000007,-0.14431000000000005 0.4905700000000001,-0.22132000000000004 0.7682500000000002,-0.23833000000000001 c0,0 0.00010000000000000003,0 0.00010000000000000003,0 c0.034700000000000016,-0.002000000000000001 0.06950000000000003,-0.002000000000000001 0.10446000000000003,-0.002000000000000001 zm-2.8365400000000003,2.46746 c0.3990100000000002,0.002000000000000001 0.7966300000000002,0.05780000000000002 1.18568,0.16666000000000006 a0.2647645,0.26464146 0 0 0 0.005000000000000002,0.002000000000000001 l0.06800000000000003,0.019400000000000008 l0.0714,-0.019400000000000008 c0.3877500000000001,-0.10859000000000003 0.78402,-0.16447000000000006 1.18174,-0.16714000000000007 c0.7264200000000002,0.00017000000000000007 1.41722,0.17394000000000007 2.04892,0.49059 c0.6320300000000002,0.3167500000000001 1.2047400000000001,0.77688 1.6874700000000002,1.34884 c0.11977000000000006,0.14188 0.23395000000000005,0.29063 0.3421100000000002,0.4457500000000001 c-0.11030000000000002,-0.03720000000000001 -0.22035000000000005,-0.08210000000000003 -0.33738000000000024,-0.13046000000000005 c-0.2982800000000001,-0.12342000000000003 -0.6410500000000002,-0.26716 -1.0806,-0.26716 c-0.4395300000000001,0 -0.78183,0.14382 -1.08009,0.26716 c-0.29829,0.12341 -0.5525,0.22666000000000006 -0.8781900000000002,0.22666000000000006 c-0.3256400000000001,0 -0.57946,-0.10325000000000002 -0.8777200000000004,-0.22666000000000006 c-0.2982800000000001,-0.12342000000000003 -0.6409500000000002,-0.26716 -1.08053,-0.26716 c-0.4395300000000001,0 -0.78222,0.14382 -1.08048,0.26716 c-0.29829,0.12341 -0.5520900000000002,0.22666000000000006 -0.8777800000000002,0.22666000000000006 c-0.3256300000000001,0 -0.5798500000000002,-0.10325000000000002 -0.8781300000000002,-0.22666000000000006 c-0.2982800000000001,-0.12342000000000003 -0.6406600000000002,-0.26716 -1.08022,-0.26716 c-0.4395300000000001,0 -0.78219,0.14382 -1.0805,0.26716 c-0.11686000000000003,0.04830000000000002 -0.22715000000000005,0.09330000000000004 -0.3374000000000002,0.13046000000000005 c0.10811000000000003,-0.15524000000000007 0.22229000000000007,-0.3039000000000001 0.3420600000000002,-0.4457500000000001 c0.48273,-0.57196 1.05544,-1.03209 1.6874500000000001,-1.34884 c0.6316000000000004,-0.3165000000000001 1.32233,-0.4903500000000001 2.04863,-0.49059 zm-2.66021,2.41676 c0.3256700000000001,0 0.57947,0.10325000000000002 0.8777300000000002,0.22666000000000006 c0.2983000000000001,0.12342000000000003 0.6411000000000002,0.26716 1.08063,0.26716 c0.4395200000000002,0 0.7818,-0.14382 1.08011,-0.26716 c0.29826,-0.12341 0.55248,-0.22666000000000006 0.8781400000000003,-0.22666000000000006 c0.3256900000000001,0 0.57946,0.10325000000000002 0.8777500000000003,0.22666000000000006 c0.2982800000000001,0.12342000000000003 0.6409500000000002,0.26716 1.0805,0.26716 c0.4395600000000001,0 0.78235,-0.14382 1.08061,-0.26716 c0.2983000000000001,-0.12341 0.55198,-0.22666000000000006 0.8776500000000004,-0.22666000000000006 c0.23954000000000006,0 0.4406000000000001,0.05610000000000002 0.6488200000000004,0.13459000000000004 c-1.87031,0.49664 -3.25114,2.02875 -3.25114,3.86641 c0,1.8376800000000002 1.38088,3.36969 3.25124,3.86632 c-0.20820000000000005,0.07870000000000003 -0.40929,0.13483 -0.6489200000000004,0.13483 c-0.3256700000000001,0 -0.57935,-0.10325000000000002 -0.8776500000000004,-0.22667 c-0.29826,-0.12341 -0.6410500000000002,-0.26672 -1.08061,-0.26672 c-0.4395500000000001,0 -0.78183,0.14333 -1.08009,0.26672 c-0.29826,0.12342000000000003 -0.55247,0.22667 -0.87816,0.22667 c-0.3256600000000001,0 -0.5798800000000002,-0.10325000000000002 -0.8781400000000003,-0.22667 c-0.2983100000000002,-0.12341 -0.6405900000000002,-0.26672 -1.08011,-0.26672 c-0.4395300000000001,0 -0.78233,0.14333 -1.08063,0.26672 c-0.29826,0.12342000000000003 -0.55206,0.22667 -0.8777300000000002,0.22667 c-0.23954000000000006,0 -0.4405500000000001,-0.05610000000000002 -0.6488200000000004,-0.13483 c1.87036,-0.49663 3.25114,-2.02864 3.25114,-3.86632 c0,-1.83763 -1.38073,-3.36977 -3.25104,-3.86641 c0.20820000000000005,-0.07870000000000003 0.40914,-0.13459000000000004 0.6487200000000004,-0.13459000000000004 zm2.94394,0.95886 c-0.04250000000000002,0.002000000000000001 -0.08570000000000005,0.007000000000000004 -0.129,0.019400000000000008 c-0.3468000000000002,0.09300000000000005 -0.51319,0.47009 -0.4232,0.80654 c0.044900000000000016,0.16811000000000006 0.13969,0.3456100000000002 0.2634700000000001,0.5153 c0.06190000000000002,0.08480000000000003 0.129,0.16423000000000007 0.21622000000000005,0.23128 c0.08720000000000006,0.06700000000000003 0.21840000000000007,0.14139000000000004 0.3856700000000001,0.09650000000000006 c0.16738000000000006,-0.044900000000000016 0.24364000000000005,-0.17467 0.28569,-0.27615 c0.042000000000000016,-0.10155 0.06070000000000002,-0.20407 0.0719,-0.3085900000000001 c0.021900000000000013,-0.20893000000000006 0.017000000000000008,-0.40993 -0.029200000000000007,-0.57815 c-0.06750000000000003,-0.2523200000000001 -0.2720200000000001,-0.45226 -0.51625,-0.4972000000000001 c-0.04080000000000002,-0.007000000000000004 -0.08260000000000003,-0.010000000000000004 -0.12511,-0.010000000000000004 zm1.94533,0 c-0.04250000000000002,-0.002000000000000001 -0.08430000000000003,0.002000000000000001 -0.12487000000000002,0.010000000000000004 c-0.24425000000000005,0.044900000000000016 -0.4487800000000001,0.24489000000000005 -0.51627,0.49723 c-0.04500000000000002,0.16811000000000006 -0.05170000000000002,0.3692700000000001 -0.029400000000000013,0.57813 c0.012100000000000003,0.10446000000000003 0.029900000000000013,0.20698000000000005 0.0719,0.3086000000000001 c0.042000000000000016,0.10155 0.11831000000000003,0.23128 0.2856800000000001,0.27616 c0.16738000000000006,0.044900000000000016 0.2985000000000001,-0.029600000000000008 0.3856700000000001,-0.09650000000000006 c0.08720000000000006,-0.06680000000000003 0.15426000000000006,-0.14625000000000005 0.21621000000000007,-0.23128 c0.12366000000000003,-0.16982000000000005 0.2184100000000001,-0.3470000000000002 0.26345,-0.51521 c0.08990000000000004,-0.3364200000000002 -0.07650000000000003,-0.71357 -0.4233300000000001,-0.8066400000000002 c-0.043200000000000016,-0.012100000000000003 -0.08650000000000004,-0.017000000000000008 -0.129,-0.019400000000000008 zm-1.92402,0.52915 c0.033000000000000015,0.0007900000000000002 0.08600000000000003,0.030400000000000014 0.10835,0.11394000000000003 c0.012200000000000006,0.04790000000000001 0.029900000000000013,0.24124000000000007 0.014600000000000004,0.3851900000000001 c0,0.002000000000000001 0,0.002000000000000001 -0.002000000000000001,0.007000000000000004 c-0.002000000000000001,-0.002000000000000001 -0.002000000000000001,-0.002000000000000001 -0.005000000000000002,-0.005000000000000002 c-0.08530000000000003,-0.11686000000000003 -0.1669000000000001,-0.2924600000000001 -0.17978000000000005,-0.3402200000000002 c-0.02550000000000001,-0.09550000000000006 0.019400000000000008,-0.15111000000000005 0.04960000000000002,-0.15913000000000005 c0.005000000000000002,-0.0009800000000000004 0.007000000000000004,-0.0010000000000000005 0.012100000000000003,-0.0010000000000000005 zm1.90274,0 c0.005000000000000002,-0.00009000000000000003 0.010000000000000004,0.0005000000000000001 0.012100000000000003,0.0010000000000000002 c0.029900000000000013,0.007000000000000004 0.0753,0.06370000000000003 0.04960000000000002,0.15912 c-0.012100000000000003,0.04790000000000001 -0.09450000000000006,0.22327000000000005 -0.17978000000000005,0.3402200000000002 c-0.002000000000000001,0.002000000000000001 -0.002000000000000001,0.002000000000000001 -0.005000000000000002,0.005000000000000002 c0,-0.002000000000000001 0,-0.002000000000000001 -0.002000000000000001,-0.007000000000000004 c-0.014600000000000004,-0.14407 0.002000000000000001,-0.3374200000000002 0.014600000000000004,-0.3851800000000002 c0.021900000000000013,-0.08360000000000004 0.07560000000000003,-0.11322000000000006 0.10835,-0.11394000000000003 zm-1.7296400000000005,3.8727300000000002 c-0.11151000000000003,0.005000000000000002 -0.20165,0.05950000000000002 -0.26709,0.10981 c-0.08720000000000006,0.06700000000000003 -0.15427000000000005,0.14650000000000005 -0.21622000000000005,0.23128 c-0.12366000000000003,0.16958000000000006 -0.2184100000000001,0.3473800000000003 -0.2634700000000001,0.5156200000000002 c-0.08990000000000004,0.3364000000000002 0.07650000000000003,0.71316 0.4232,0.80623 c0.3468300000000002,0.09300000000000005 0.6803400000000004,-0.15038 0.77032,-0.4867800000000001 c0.04500000000000002,-0.16812000000000005 0.05170000000000002,-0.3692000000000001 0.029200000000000007,-0.5780400000000002 c-0.012100000000000003,-0.10446000000000003 -0.029900000000000013,-0.20674000000000006 -0.0719,-0.30819 c-0.042000000000000016,-0.10155 -0.11831000000000003,-0.23177 -0.2857,-0.2765700000000001 c-0.04180000000000002,-0.012100000000000003 -0.08140000000000003,-0.014600000000000004 -0.11855000000000003,-0.012100000000000003 zm1.55652,0 c-0.03720000000000001,-0.002000000000000001 -0.07680000000000002,0.002000000000000001 -0.11855000000000003,0.012100000000000003 c-0.16739000000000007,0.044900000000000016 -0.24365,0.17516 -0.2856800000000001,0.2765600000000001 c-0.042000000000000016,0.10155 -0.06070000000000002,0.20383 -0.0719,0.3082000000000001 c-0.021900000000000013,0.20893000000000006 -0.014600000000000004,0.4098200000000002 0.029400000000000013,0.57803 c0.08990000000000004,0.3364500000000002 0.4234000000000001,0.5798500000000002 0.77019,0.4867800000000001 c0.3468300000000002,-0.09300000000000005 0.51332,-0.4698000000000001 0.4233300000000001,-0.80622 c-0.044900000000000016,-0.16812000000000005 -0.13969,-0.3459300000000001 -0.26345,-0.5156200000000002 c-0.06190000000000002,-0.08480000000000003 -0.129,-0.16447000000000006 -0.21621000000000007,-0.23128 c-0.06540000000000003,-0.05030000000000002 -0.15549000000000007,-0.10471000000000003 -0.26709,-0.10981 zm-1.60834,0.6481200000000003 c0,0.002000000000000001 0.002000000000000001,0.002000000000000001 0.002000000000000001,0.007000000000000004 c0.014600000000000004,0.14406000000000005 -0.002000000000000001,0.3370100000000002 -0.014600000000000004,0.3847700000000001 c-0.02550000000000001,0.09550000000000006 -0.09130000000000003,0.12050000000000002 -0.12123000000000003,0.11248000000000002 c-0.029900000000000013,-0.007000000000000004 -0.07510000000000003,-0.06290000000000003 -0.04960000000000002,-0.15864000000000006 c0.012100000000000003,-0.04790000000000001 0.09450000000000006,-0.22375000000000006 0.17978000000000005,-0.3406500000000001 c0.002000000000000001,-0.002000000000000001 0.002000000000000001,-0.002000000000000001 0.005000000000000002,-0.005000000000000002 zm1.66016,0 c0.002000000000000001,0.002000000000000001 0.002000000000000001,0.002000000000000001 0.005000000000000002,0.005000000000000002 c0.08530000000000003,0.11686000000000003 0.1669000000000001,0.2928700000000002 0.17978000000000005,0.3406500000000001 c0.02550000000000001,0.09550000000000006 -0.019400000000000008,0.15038 -0.04960000000000002,0.15840000000000007 c-0.029900000000000013,0.007000000000000004 -0.09570000000000008,-0.017000000000000008 -0.12123000000000003,-0.11248000000000002 c-0.012200000000000006,-0.04790000000000001 -0.029900000000000013,-0.24076000000000006 -0.014600000000000004,-0.3847700000000001 c0,-0.002000000000000001 0.002000000000000001,-0.005000000000000002 0.002000000000000001,-0.007000000000000004 zm9.99692,0.97376 a0.26472526,0.26460223 0 0 0 -0.005000000000000002,0.0005000000000000001 a0.26472526,0.26460223 0 0 0 -0.12171000000000003,0.03550000000000001 l-1.72498,0.6562500000000002 a0.26472526,0.26460223 0 1 0 0.18803000000000006,0.49453 l1.17292,-0.4461700000000001 c-2.04984,4.29054 -7.00633,7.023 -11.73812,6.36089 l-0.002000000000000001,-0.0005099999999999998 l-0.002000000000000001,-0.00047000000000000015 c-3.25156,-0.3942400000000001 -6.30755,-2.25558 -8.12268,-4.9827 a0.26472526,0.26460223 0 1 0 -0.4408000000000002,0.2930200000000001 c1.90486,2.86185 5.08951,4.80134 8.49858,5.21502 c4.97722,0.6946000000000004 10.13396,-2.14738 12.28543,-6.65676 l0.4404800000000002,1.17727 a0.26472526,0.26460223 0 1 0 0.4958900000000001,-0.18512 l-0.6517200000000004,-1.7415500000000002 a0.26472526,0.26460223 0 0 0 -0.07700000000000003,-0.14358 a0.26472526,0.26460223 0 0 0 -0.010000000000000004,-0.007000000000000004 a0.26472526,0.26460223 0 0 0 -0.007000000000000004,-0.005000000000000002 a0.26472526,0.26460223 0 0 0 -0.16131000000000006,-0.06170000000000002 a0.26472526,0.26460223 0 0 0 -0.005000000000000002,-0.0004800000000000002 a0.26472526,0.26460223 0 0 0 -0.005000000000000002,0.00010000000000000003 a0.26472526,0.26460223 0 0 0 -0.007000000000000004,-0.00010000000000000003 zm-12.78525,1.055 c0.3256800000000002,0 0.57946,0.10349000000000003 0.8777400000000004,0.2269000000000001 c0.29829,0.12342000000000003 0.6409800000000002,0.2668500000000001 1.08051,0.2668500000000001 c0.4395500000000001,0 0.78225,-0.14358 1.08051,-0.2668500000000001 c0.29825,-0.12341 0.55208,-0.2269000000000001 0.8777400000000004,-0.2269000000000001 c0.3256900000000001,0 0.5799000000000002,0.10349000000000003 0.87816,0.2269000000000001 c0.29826,0.12342000000000003 0.6405700000000002,0.2668500000000001 1.0801,0.2668500000000001 c0.4395500000000001,0 0.78234,-0.14358 1.0806,-0.2668500000000001 c0.11685000000000002,-0.04830000000000002 0.22715000000000005,-0.09330000000000004 0.3373000000000002,-0.13045 c-0.10811000000000003,0.15499000000000007 -0.22229000000000007,0.3036200000000001 -0.3420400000000001,0.4454300000000001 c-0.4827200000000001,0.57196 -1.05541,1.03199 -1.68744,1.34871 c-0.63158,0.3165100000000001 -1.32224,0.4907700000000001 -2.04856,0.4910100000000001 c-0.3996600000000001,-0.002000000000000001 -0.7979200000000002,-0.05830000000000002 -1.18762,-0.16739000000000007 l-0.0714,-0.019400000000000008 l-0.0714,0.019400000000000008 c-0.38773,0.10860000000000003 -0.7840400000000002,0.1649600000000001 -1.18171,0.16739000000000007 c-0.7264700000000002,-0.00014000000000000004 -1.41737,-0.17443000000000006 -2.04907,-0.4910100000000001 c-0.6320100000000002,-0.3167200000000001 -1.2047,-0.77675 -1.6874500000000001,-1.34871 c-0.11977000000000006,-0.14188 -0.23371000000000006,-0.29049 -0.3419400000000002,-0.4454300000000001 c0.11030000000000002,0.03720000000000001 0.22035000000000005,0.08210000000000003 0.3372800000000002,0.13045 c0.2983100000000002,0.12342000000000003 0.6410000000000002,0.2668500000000001 1.08053,0.2668500000000001 c0.4395500000000001,0 0.78191,-0.14358 1.0802100000000001,-0.2668500000000001 c0.29826,-0.12341 0.55248,-0.2269000000000001 0.8781400000000003,-0.2269000000000001 z" style="color: rgb(0, 0, 0); font: medium sans-serif; font-feature-settings: normal; text-indent: 0px; text-align: start; text-decoration: none solid rgb(0, 0, 0); letter-spacing: normal; word-spacing: normal; text-transform: none; writing-mode: lr-tb; direction: ltr; text-orientation: mixed; dominant-baseline: auto; baseline-shift: baseline; text-anchor: start; white-space: normal; clip-rule: nonzero; display: inline; overflow: visible; visibility: visible; opacity: 1; isolation: auto; mix-blend-mode: normal; color-interpolation: srgb; color-interpolation-filters: linearrgb; vector-effect: none; fill-rule: nonzero; stroke: none; stroke-width: 2.64583; stroke-linecap: round; stroke-linejoin: miter; stroke-miterlimit: 4; stroke-dasharray: none; stroke-dashoffset: 0; stroke-opacity: 1; color-rendering: auto; image-rendering: auto; shape-rendering: auto; text-rendering: auto;" id="svg_2" fill="#ffffff" fill-opacity="1"/></g></g></svg>