<svg xmlns="http://www.w3.org/2000/svg" data-name="Layer 6" width="84" height="90" style=""><rect id="backgroundrect" width="100%" height="100%" x="0" y="0" fill="none" stroke="none" class="" style=""/><defs><style>.b0761929-2354-4826-aaa1-4bf2e91d1eec{fill:none;}</style></defs><title>Daily Tasks Collection</title><g class="currentLayer" style=""><title>Layer 1</title><path class="b0761929-2354-4826-aaa1-4bf2e91d1eec selected" d="M16.48048017501831,49.15 a2.33,2.33 0 0 0 -0.55,2.93 c1,-1.08 1.6700000000000002,-1.75 1.7000000000000002,-1.78 s0.7000000000000001,-0.6800000000000002 1.79,-1.7000000000000002 A2.35,2.35 0 0 0 16.48048017501831,49.15 z" id="svg_1" fill="#ffffff" fill-opacity="1"/><path class="b0761929-2354-4826-aaa1-4bf2e91d1eec selected" d="M77.44048017501831,58.290000000000006 H70.28048017501831 v4.53 S76.15048017501832,61 78.00048017501831,61 a1,1 0 0 0 1,-0.7100000000000001 A1.58,1.58 0 0 0 77.44048017501831,58.290000000000006 z" id="svg_2" fill="#ffffff" fill-opacity="1"/><path class="b0761929-2354-4826-aaa1-4bf2e91d1eec selected" d="M15.920480175018312,62.81999999999999 V60 l-2.21,2.21 C15.00048017501831,62.519999999999996 15.920480175018312,62.81999999999999 15.920480175018312,62.81999999999999 z" id="svg_3" fill="#ffffff" fill-opacity="1"/><path class="b0761929-2354-4826-aaa1-4bf2e91d1eec selected" d="M18.920480175018312,57 v24 a19.91,19.91 0 0 0 0.41000000000000003,5.28 c0.22000000000000003,0.6500000000000001 0.33000000000000007,0.78 1.12,0.78 h45.3 c0.79,0 0.9,-0.13 1.12,-0.78 a19.91,19.91 0 0 0 0.41000000000000003,-5.28 V56.76 H19.12048017501831 z" id="svg_4" fill="#ffffff" fill-opacity="1"/><path class="b0761929-2354-4826-aaa1-4bf2e91d1eec selected" d="M73.16048017501831,23.48 a7.39,7.39 0 0 0 -4,1.13 a10.59,10.59 0 0 0 -2.7,3.6900000000000004 a4.59,4.59 0 0 1 -7,1.3900000000000001 a4.86,4.86 0 0 0 -3.17,-1 c-4.83,0 -5.14,5.06 -5.15,6.07 c0,4.48 -2.73,11.17 -10.22,11.17 c-2,0 -3.06,0.52 -3.6100000000000003,1.24 H71.25048017501831 a1.58,1.58 0 0 0 1.12,-1.55 a1.13,1.13 0 0 0 -0.17,-0.7200000000000001 a4.23,4.23 0 0 1 -0.47000000000000003,-4 a4.15,4.15 0 0 1 3,-2.55 A7.25,7.25 0 0 0 78.00048017501831,36.77 a7.5,7.5 0 0 0 -4.79,-13.29 z" id="svg_5" fill="#ffffff" fill-opacity="1"/><path class="b0761929-2354-4826-aaa1-4bf2e91d1eec selected" d="M13.830480175018309,54.09 l0.6200000000000001,-0.6100000000000001 a5.37,5.37 0 0 1 -0.5900000000000001,-1.2 a4.29,4.29 0 0 1 1.21,-4.55 a4.39,4.39 0 0 1 5.75,-0.6300000000000001 l0.6000000000000001,-0.6000000000000001 a4.68,4.68 0 0 0 -2.72,-1.25 h-0.24000000000000002 a5.7,5.7 0 0 0 -3.9,2 a5.48,5.48 0 0 0 -2,4.15 A4.74,4.74 0 0 0 13.830480175018309,54.09 z" id="svg_6" fill="#ffffff" fill-opacity="1"/><path class="b0761929-2354-4826-aaa1-4bf2e91d1eec selected" d="M7.78048017501831,60.92 c0.79,-0.8800000000000001 1.59,-1.77 2.38,-2.63 h-1.4 a1.59,1.59 0 0 0 -1.56,2 A0.9400000000000001,0.9400000000000001 0 0 0 7.78048017501831,60.92 z" id="svg_7" fill="#ffffff" fill-opacity="1"/><path class="b0761929-2354-4826-aaa1-4bf2e91d1eec selected" d="M13.00048017501831,19 c8.77,0 9,-4.84 9,-5 l0,-1 H78.7704801750183 a1,1 0 0 0 0,-2 H22.00048017501831 V10 c0,-0.19000000000000003 -0.2,-5 -9,-5 c-9,0 -9,2.19 -9,7 S4.0004801750183105,19 13.00048017501831,19 z" id="svg_8" fill="#ffffff" fill-opacity="1"/><path class="b0761929-2354-4826-aaa1-4bf2e91d1eec selected" d="M38.33048017501831,34.71 c-2,0.9400000000000001 -15.06,12.77 -19.29,17 S3.0004801750183105,69 2.0004801750183105,71 v0 l36.3,-36.3 z" id="svg_9" fill="#ffffff" fill-opacity="1"/><path d="M73.16048017501831,20.48 a10.31,10.31 0 0 0 -5.5600000000000005,1.6 c-1.53,1 -2.89,3.17 -3.7600000000000002,4.84 a1.56,1.56 0 0 1 -1.3900000000000001,0.8300000000000001 a1.61,1.61 0 0 1 -1,-0.37000000000000005 a7.78,7.78 0 0 0 -5.08,-1.73 c-8.15,0 -8.15,9.06 -8.15,9.06 s0,8.18 -7.22,8.18 c-5.36,0 -6.8100000000000005,3.13 -7.17,5.27 a1.6800000000000002,1.6800000000000002 0 0 0 1.6500000000000001,2 H71.50048017501831 a1.7200000000000002,1.7200000000000002 0 0 0 0.6000000000000001,-0.1 a4.76,4.76 0 0 0 3.27,-4.45 a4.1,4.1 0 0 0 -0.7200000000000001,-2.45 a1.22,1.22 0 0 1 0.7200000000000001,-1.8900000000000001 a10.33,10.33 0 0 0 4.49,-2.15 a10.5,10.5 0 0 0 -6.7,-18.61 zM78.00048017501831,36.77 a7.25,7.25 0 0 1 -3.19,1.54 a4.15,4.15 0 0 0 -3,2.55 a4.23,4.23 0 0 0 0.47000000000000003,4 a1.13,1.13 0 0 1 0.17,0.7200000000000001 a1.58,1.58 0 0 1 -1.12,1.55 H37.36048017501831 c0.55,-0.7200000000000001 1.59,-1.24 3.6100000000000003,-1.24 c7.49,0 10.22,-6.69 10.22,-11.17 c0,-1 0.32000000000000006,-6.07 5.15,-6.07 a4.86,4.86 0 0 1 3.17,1 a4.59,4.59 0 0 0 7,-1.3900000000000001 a10.59,10.59 0 0 1 2.7,-3.6900000000000004 a7.39,7.39 0 0 1 4,-1.13 a7.53,7.53 0 0 1 5.21,2.08 A7.5,7.5 0 0 1 78.00048017501831,36.77 z" id="svg_10" class="selected" fill="#ffffff" fill-opacity="1"/><path d="M77.44048017501831,55.29 H70.28048017501831 V53.76 H22.12048017501831 L41.53048017501831,34.35 l-0.7000000000000001,-0.7100000000000001 a3.8,3.8 0 0 0 -2.63,-0.93 c-1.4300000000000002,0 -9.59,7.33 -15.2,12.53 a6.72,6.72 0 0 0 -4.14,-2 c-2,-0.15000000000000002 -3.88,0.7200000000000001 -5.72,2.55 s-2.6900000000000004,3.7600000000000002 -2.55,5.71 a6.6,6.6 0 0 0 1.6400000000000001,3.77 H8.76048017501831 A4.65,4.65 0 0 0 5.0004801750183105,57.23 a4.42,4.42 0 0 0 -0.6300000000000001,4 a4,4 0 0 0 1.4100000000000001,2 C2.5904801750183104,66.84 0.0004801750183105469,70 0.0004801750183105469,70.86 A3.8,3.8 0 0 0 1.0004801750183105,73.49 l0.7100000000000001,0.7100000000000001 l9.58,-9.58 c1.2,0.31000000000000005 2.5700000000000003,0.6900000000000002 3.7800000000000002,1.07 l0.8800000000000001,0.27 v15 c0,4.53 0,9.06 4.53,9.06 h45.3 c4.53,0 4.53,-4.53 4.53,-9.06 V66 l0.8900000000000001,-0.27 A44,44 0 0 1 78.00048017501831,64 a4,4 0 0 0 3.88,-2.7600000000000002 a4.39,4.39 0 0 0 -0.6300000000000001,-4 A4.640000000000001,4.640000000000001 0 0 0 77.44048017501831,55.29 zM14.56048017501831,47.23 a5.7,5.7 0 0 1 3.9,-2 h0.24000000000000002 a4.68,4.68 0 0 1 2.72,1.25 l-0.6000000000000001,0.6000000000000001 a4.39,4.39 0 0 0 -5.75,0.6300000000000001 a4.29,4.29 0 0 0 -1.21,4.55 a5.37,5.37 0 0 0 0.5900000000000001,1.2 l-0.6200000000000001,0.6100000000000001 a4.74,4.74 0 0 1 -1.25,-2.71 A5.48,5.48 0 0 1 14.56048017501831,47.23 zm4.86,1.37 c-1.09,1 -1.7600000000000002,1.6600000000000001 -1.79,1.7000000000000002 s-0.6800000000000002,0.7000000000000001 -1.7000000000000002,1.78 a2.33,2.33 0 0 1 0.55,-2.93 A2.35,2.35 0 0 1 19.420480175018312,48.6 zM8.76048017501831,58.290000000000006 h1.4 c-0.79,0.8600000000000001 -1.59,1.75 -2.38,2.63 a0.9400000000000001,0.9400000000000001 0 0 1 -0.5800000000000001,-0.6200000000000001 A1.59,1.59 0 0 1 8.76048017501831,58.290000000000006 zm7.16,4.53 s-1,-0.30000000000000004 -2.21,-0.6500000000000001 L15.920480175018312,60 zM2.0004801750183105,71 v0 c0.9400000000000001,-2 12.77,-15 17,-19.28 s17.32,-16.06 19.29,-17 h0 zM67.28048017501831,58.290000000000006 V80.94 a19.91,19.91 0 0 1 -0.41000000000000003,5.28 c-0.22000000000000003,0.6500000000000001 -0.33000000000000007,0.78 -1.12,0.78 H20.45048017501831 c-0.79,0 -0.9,-0.13 -1.12,-0.78 a19.91,19.91 0 0 1 -0.41000000000000003,-5.28 V57 l0.2,-0.2 H67.28048017501831 zM79.00048017501831,60.3 A1,1 0 0 1 78.00048017501831,61 c-1.81,0 -7.68,1.81 -7.68,1.81 V58.290000000000006 h7.16 A1.58,1.58 0 0 1 79.00048017501831,60.3 z" id="svg_11" class="selected" fill="#ffffff" fill-opacity="1"/><polygon points="13.040481090545654,27.5 11.25048017501831,27.5 12.510480403900146,26.229999542236328 11.810479640960693,25.530000686645508 10.540481090545654,26.790000915527344 10.540481090545654,25 9.540481090545654,25 9.540481090545654,26.790000915527344 8.270480632781982,25.530000686645508 7.56048059463501,26.229999542236328 8.830480098724365,27.5 7.040480136871338,27.5 7.040480136871338,28.5 8.830480098724365,28.5 7.56048059463501,29.770000457763672 8.270480632781982,30.479999542236328 9.540481090545654,29.209999084472656 9.540481090545654,31 10.540481090545654,31 10.540481090545654,29.209999084472656 11.810479640960693,30.479999542236328 12.510480403900146,29.770000457763672 11.25048017501831,28.5 13.040481090545654,28.5 13.040481090545654,27.5 " id="svg_12" class="selected" fill="#ffffff" fill-opacity="1"/><polygon points="40.560481548309326,4.770000457763672 41.27048063278198,5.470000267028809 42.540481090545654,4.210000038146973 42.540481090545654,6 43.540481090545654,6 43.540481090545654,4.210000038146973 44.810481548309326,5.470000267028809 45.510478496551514,4.770000457763672 44.25048017501831,3.5 46.040481090545654,3.5 46.040481090545654,2.5 44.25048017501831,2.5 45.510478496551514,1.2300000190734863 44.810481548309326,0.5299997329711914 43.540481090545654,1.7899999618530273 43.540481090545654,0 42.540481090545654,0 42.540481090545654,1.7899999618530273 41.27048063278198,0.5299997329711914 40.560481548309326,1.2300000190734863 41.830482006073,2.5 40.040481090545654,2.5 40.040481090545654,3.5 41.830482006073,3.5 40.560481548309326,4.770000457763672 " id="svg_13" class="selected" fill="#ffffff" fill-opacity="1"/><path d="M13.00048017501831,21 c8.32,0 10.33,-4.09 10.82,-6 H78.7704801750183 a3,3 0 0 0 0,-6 H23.83048017501831 C23.34048017501831,7.050000000000001 21.32048017501831,3 13.00048017501831,3 C2.570480175018311,3 2.0004801750183105,6.41 2.0004801750183105,12 S2.570480175018311,21 13.00048017501831,21 zm0,-16 c8.77,0 9,4.79 9,5 v1 H78.7704801750183 a1,1 0 0 1 0,2 H22.00048017501831 l0,1 c0,0.2 -0.2,5 -9,5 c-9,0 -9,-2.2 -9,-7 S4.0004801750183105,5 13.00048017501831,5 z" id="svg_14" class="selected" fill="#ffffff" fill-opacity="1"/></g></svg>