<svg xmlns="http://www.w3.org/2000/svg" xmlns:xlink="http://www.w3.org/1999/xlink" version="1.1" enable-background="new 0 0 100 68.647" xml:space="preserve" width="100" height="69"><rect id="backgroundrect" width="100%" height="100%" x="0" y="0" fill="none" stroke="none" class="" style=""/><g class="currentLayer" style=""><title>Layer 1</title><g id="svg_1" class=""><path d="M96.09291202354432,9.317875545501709 l-31.468,2.723 c-0.47900000000000004,-5.553 -1.064,-6.191 -2.128,-6.191 H61.20991202354431 c-0.04300000000000001,-0.18100000000000002 -0.07400000000000001,-0.36200000000000004 -0.11700000000000002,-0.532 c0.8720000000000001,-0.798 1.245,-2.074 0.8300000000000001,-3.266 c-0.553,-1.585 -2.298,-2.436 -3.894,-1.883 L41.62491202354431,5.849875545501709 H18.88091202354431 c-0.8620000000000001,0 -2.66,0 -2.66,21.276 c0,7.713 0.234,12.628 0.5740000000000001,15.766 L2.827912023544312,43.96587554550171 c-1.681,0.128 -2.947,1.596 -2.819,3.277 c0.07400000000000001,0.9680000000000001 0.5960000000000001,1.787 1.34,2.287 c-0.11700000000000002,0.38300000000000006 -0.17,0.787 -0.138,1.202 c0.011000000000000003,0.18100000000000002 0.04300000000000001,0.35100000000000003 0.08500000000000002,0.521 c-0.3940000000000001,0.511 -0.6280000000000001,1.138 -0.6280000000000001,1.83 c0,1.468 1.032,2.681 2.394,2.989 c0.11700000000000002,1.234 0.404,2.681 0.8620000000000001,4.372 c1.106,4.053 2.777,8.202 6.904,8.202 h32.34 c4.128,0 5.798,-4.149 6.904,-8.202 c0.47900000000000004,-1.7770000000000001 0.7660000000000001,-3.277 0.8720000000000001,-4.543 c1.085,-0.47900000000000004 1.851,-1.553 1.851,-2.819 c0,-1.021 -0.511,-1.915 -1.2770000000000001,-2.479 c0.011000000000000003,-0.31900000000000006 0.03200000000000001,-0.6280000000000001 0.03200000000000001,-0.926 c0.542,-0.28700000000000003 0.989,-0.7340000000000001 1.2770000000000001,-1.2770000000000001 h9.67 c0.8620000000000001,0 2.66,0 2.66,-21.276 c0,-2.723 -0.04300000000000001,-5.383 -0.128,-7.915 l31.691,-2.734 c1.968,-0.17 3.436,-1.915 3.266,-3.894 C99.81591202354431,10.647875545501709 98.0819120235443,9.147875545501709 96.09291202354432,9.317875545501709 zM58.73191202354431,2.179875545501709 c0.47900000000000004,-0.17 1.011,0.08500000000000002 1.181,0.5740000000000001 c0.17,0.47900000000000004 -0.08500000000000002,1.011 -0.5740000000000001,1.181 L53.81691202354431,5.849875545501709 h-5.691 L58.73191202354431,2.179875545501709 zM2.1369120235443115,47.08287554550171 c-0.04300000000000001,-0.511 0.3400000000000001,-0.9570000000000001 0.8510000000000001,-1 l45.872,-3.532 c0.521,-0.03200000000000001 0.9680000000000001,0.35100000000000003 1,0.8620000000000001 c0.021000000000000005,0.19100000000000003 -0.04300000000000001,0.36200000000000004 -0.128,0.521 L4.018912023544312,47.44487554550171 c-0.47900000000000004,0.04300000000000001 -0.915,0.19100000000000003 -1.298,0.42600000000000005 C2.4019120235443117,47.74287554550171 2.1579120235443114,47.44487554550171 2.1369120235443115,47.08287554550171 zM43.16791202354431,66.51887554550171 h-32.34 c-2.17,0 -3.574,-1.9260000000000002 -4.851,-6.628 c-0.3940000000000001,-1.457 -0.6380000000000001,-2.702 -0.7660000000000001,-3.745 h38.521 c0.021000000000000005,0.43600000000000005 0.11700000000000002,0.7660000000000001 0.30900000000000005,1.011 c0.31900000000000006,0.3940000000000001 0.777,0.43600000000000005 1.085,0.468 c0.08500000000000002,0.011000000000000003 0.22300000000000003,0.03200000000000001 0.22300000000000003,0.11700000000000002 c0,0.128 -0.04300000000000001,0.43600000000000005 -0.10600000000000001,0.8190000000000001 c-0.3940000000000001,2.798 -0.44700000000000006,4.287 0.404,4.713 c0.22300000000000003,0.10600000000000001 0.458,0.17 0.7020000000000001,0.17 c0.16000000000000003,0 0.31900000000000006,-0.04300000000000001 0.47900000000000004,-0.09600000000000003 C45.83791202354431,65.5618755455017 44.699912023544314,66.51887554550171 43.16791202354431,66.51887554550171 zM49.74191202354431,54.01887554550171 H3.7219120235443115 c-0.511,0 -0.926,-0.41500000000000004 -0.926,-0.936 c0,-0.511 0.41500000000000004,-0.926 0.926,-0.926 h46.021 c0.511,0 0.926,0.41500000000000004 0.926,0.926 C50.66791202354431,53.604875545501706 50.25291202354431,54.01887554550171 49.74191202354431,54.01887554550171 zM50.199912023544314,47.90287554550171 L22.508912023544312,50.02987554550171 H3.7219120235443115 c-0.09600000000000003,0 -0.18100000000000002,0.021000000000000005 -0.266,0.021000000000000005 c0.14900000000000002,-0.255 0.404,-0.457 0.7340000000000001,-0.47900000000000004 l45.872,-3.532 c0.511,-0.04300000000000001 0.9570000000000001,0.35100000000000003 1,0.8620000000000001 C51.092912023544315,47.412875545501706 50.70991202354431,47.85987554550171 50.199912023544314,47.90287554550171 zM96.52891202354431,14.359875545501708 l-33.702,2.904 l0.04300000000000001,1.021 c0.10600000000000001,2.798 0.16000000000000003,5.777 0.16000000000000003,8.84 c0,10.372 -0.6060000000000001,17.372 -1.106,19.149 h-8.83 c-0.19100000000000003,-0.7660000000000001 -0.6380000000000001,-1.404 -1.266,-1.83 c0.10600000000000001,-0.30800000000000005 0.17,-0.6380000000000001 0.17,-0.989 c0,-0.06400000000000002 0,-0.138 -0.011000000000000003,-0.21300000000000002 c-0.128,-1.681 -1.606,-2.936 -3.287,-2.808 l-29.766000000000002,2.287 c-0.31900000000000006,-3.372 -0.5850000000000001,-8.745000000000001 -0.5850000000000001,-15.596 c0,-10.372 0.6060000000000001,-17.372 1.106,-19.149 h3.681 c-0.33000000000000007,3.542 -0.532,7.521 -0.532,8.191 c0,1.234 0.7130000000000001,2.245 1.596,2.245 c0.8830000000000001,0 1.596,-1.011 1.596,-2.245 c0,-0.6700000000000002 -0.202,-4.649 -0.532,-8.191 h3.362 c-0.42500000000000004,5.681 -0.7020000000000001,13.447 -0.7020000000000001,14.585 c0,1.84 0.7130000000000001,3.319 1.596,3.319 c0.8830000000000001,0 1.596,-1.479 1.596,-3.319 c0,-1.138 -0.277,-8.904 -0.7020000000000001,-14.585 h2.904 c-0.521,8.5 -0.8720000000000001,23.106 -0.8720000000000001,25.053 c0,2.755 0.7130000000000001,5 1.596,5 s1.596,-2.245 1.596,-5 c0,-1.947 -0.35100000000000003,-16.553 -0.8720000000000001,-25.053 h10.181 c-0.47900000000000004,7.638 -0.798,19.596 -0.798,21.244 c0,2.457 0.7130000000000001,4.447 1.596,4.447 s1.596,-1.9889999999999999 1.596,-4.447 c0,-1.649 -0.31900000000000006,-13.606 -0.798,-21.244 h15.372 c0.16000000000000003,0.5640000000000001 0.42500000000000004,1.957 0.6810000000000002,5.298 l0.07400000000000001,1.074 l33.617,-2.915 c0.798,-0.05300000000000001 1.5110000000000001,0.543 1.585,1.34 C97.93291202354432,13.57287554550171 97.3379120235443,14.285875545501709 96.52891202354431,14.359875545501708 z" id="svg_2"/></g></g></svg>