<svg xmlns="http://www.w3.org/2000/svg" xmlns:xlink="http://www.w3.org/1999/xlink" version="1.1" enable-background="new 0 0 100 100" xml:space="preserve" width="73" height="90" style=""><rect id="backgroundrect" width="100%" height="100%" x="0" y="0" fill="none" stroke="none" class="" style=""/><g class="currentLayer" style=""><title>Layer 1</title><path fill="#ffffff" d="M2.7465820373606675e-7,90 h73.125 l-3.75,-27.422 C47.452000274658204,48.164 24.131000274658206,47.93 3.750000274658202,62.813 L2.7465820373606675e-7,90 z" id="svg_1" class="selected" fill-opacity="1"/><path fill="#ffffff" d="M56.250000274658206,35.625 c-3.656,-1.275 -7.5,-2.606 -11.25,-3.75 c-2.813,-0.8620000000000001 -3.75,-4.106 -3.75,-5.625 v-8.756 c2.813,-1.6320000000000001 4.688000000000001,-4.65 4.688000000000001,-8.119 C45.9370002746582,4.199999999999999 41.7370002746582,0 36.5620002746582,0 s-9.375,4.2 -9.375,9.375 c0,3.469 1.875,6.487 4.688000000000001,8.119 v8.756 c0,1.557 -0.46900000000000003,4.612 -3.75,5.625 c-2.307,0.7120000000000001 -8.362,2.85 -11.25,3.75 c-7.031,2.193 -11.719,9.15 -13.125,22.5 c21.899,-13.35 43.236,-13.482 65.625,0 C68.0800002746582,48.75 66.09300027465821,39.057 56.250000274658206,35.625 zM36.5620002746582,4.688000000000001 c2.587,0 4.688000000000001,2.1 4.688000000000001,4.688000000000001 S39.149000274658206,14.062999999999999 36.5620002746582,14.062999999999999 c-2.587,0 -4.688000000000001,-2.1 -4.688000000000001,-4.688000000000001 S33.9750002746582,4.688000000000001 36.5620002746582,4.688000000000001 z" id="svg_2" class="selected" fill-opacity="1"/></g></svg>