<svg xmlns="http://www.w3.org/2000/svg" width="59" height="59" style=""><rect id="backgroundrect" width="100%" height="100%" x="0" y="0" fill="none" stroke="none" class="" style=""/><title>cleaning-clean-bursh-chore-brush</title><g class="currentLayer" style=""><title>Layer 1</title><g data-name="Layer 22" id="svg_1" class="" fill="#ffffff" fill-opacity="1"><path d="M50.13164678192139,3.4012340011596685 a11.591,11.591 0 0 0 -19.462,5.438 A12.949,12.949 0 0 0 19.011646781921385,19.23323400115967 a12.865,12.865 0 0 0 -6.640000000000001,3.543 a13.015,13.015 0 0 0 -1.864,16.007 L2.048646781921387,47.242234001159666 a7,7 0 0 0 9.9,9.9 a3.007,3.007 0 0 0 0,-4.242 a3.073,3.073 0 0 0 -4.243,0 a1,1 0 1 1 -1.4140000000000001,-1.415 l8.459,-8.459 A12.991,12.991 0 0 0 30.75664678192139,41.157234001159665 a12.865,12.865 0 0 0 3.543,-6.640000000000001 A12.949,12.949 0 0 0 44.69364678192139,22.863234001159668 A11.591,11.591 0 0 0 50.13164678192139,3.4012340011596685 zM4.875646781921387,50.07023400115967 a3,3 0 1 0 4.242,4.243 a1.027,1.027 0 0 1 1.4140000000000001,0 a1,1 0 0 1 0,1.4140000000000001 A5,5 0 1 1 3.4626467819213866,48.657234001159665 l8.238,-8.238 c0.21600000000000003,0.252 0.43300000000000005,0.5 0.6710000000000002,0.7430000000000001 s0.49100000000000005,0.455 0.7430000000000001,0.6710000000000002 zM43.56464678192139,21.057234001159667 a1,1 0 0 0 -0.8300000000000001,0.9650000000000001 a10.936,10.936 0 0 1 -8.726,10.513 l-1.5550000000000002,-1.556 l-1.4140000000000001,1.4140000000000001 l1.359,1.36 a10.882,10.882 0 0 1 -3.056,5.995 A11,11 0 0 1 13.785646781921386,24.190234001159666 a10.9,10.9 0 0 1 6.233,-3.1 a1,1 0 0 0 0.8500000000000001,-0.8500000000000001 A10.927,10.927 0 0 1 30.713646781921383,10.857234001159668 l1.7400000000000002,1.7400000000000002 l1.4140000000000001,-1.4140000000000001 l-1.355,-1.355 A9.594,9.594 0 1 1 43.56464678192139,21.057234001159667 z" id="svg_2" fill="#ffffff" fill-opacity="1"/><path d="M47.30264678192139,7.644234001159669 L45.88864678192139,9.057234001159667 a4,4 0 0 1 0,5.657 l1.4140000000000001,1.4140000000000001 a6,6 0 0 0 0,-8.485 z" id="svg_3" fill="#ffffff" fill-opacity="1"/><path d="M15.129646781921387,27.089234001159667 a6.509,6.509 0 0 0 0,9.193 l1.4140000000000001,-1.4140000000000001 a4.507,4.507 0 0 1 0,-6.365 z" id="svg_4" fill="#ffffff" fill-opacity="1"/><path d="M5.575646781921387,16.28223400115967 v-2 a3,3 0 0 1 -0.538,-5.946 a5.083,5.083 0 0 0 0.6600000000000001,0.8250000000000001 L7.114646781921387,7.7472340011596685 a3,3 0 0 1 0,-4.244 A3.071,3.071 0 0 1 11.125646781921386,3.317234001159668 a4.934,4.934 0 0 0 -0.525,2.186 h2 a3,3 0 0 1 6,0 h2 A4.974,4.974 0 0 0 12.345646781921387,1.739234001159668 A4.982,4.982 0 0 0 4.236646781921387,5.625234001159668 a5.073,5.073 0 0 0 0.08100000000000002,0.8380000000000001 A4.989,4.989 0 0 0 5.575646781921387,16.28223400115967 z" id="svg_5" fill="#ffffff" fill-opacity="1"/><rect x="4.675646781921387" y="10.857234001159668" width="2" height="2" id="svg_6" fill="#ffffff" fill-opacity="1"/><rect x="14.675646781921387" y="3.857234001159668" width="2" height="2" id="svg_7" fill="#ffffff" fill-opacity="1"/><path d="M58.50364678192139,36.392234001159665 a4.99,4.99 0 0 0 -2.115,-4.069 a4.989,4.989 0 0 0 -7.834,-6.052 l1.4140000000000001,1.4140000000000001 a3,3 0 0 1 5.121,2.121 a2.971,2.971 0 0 1 -0.534,1.7000000000000002 a4.987,4.987 0 0 0 -1.052,-0.11600000000000002 v2 a2.992,2.992 0 0 1 0.30000000000000004,5.97 a4.932,4.932 0 0 0 -1.175,-1.919 L51.21064678192138,38.85723400115967 a3,3 0 0 1 -4.242,4.243 l-1.4140000000000001,1.4140000000000001 a4.973,4.973 0 0 0 8.5,-3.177 A4.99,4.99 0 0 0 58.50364678192139,36.392234001159665 z" id="svg_8" fill="#ffffff" fill-opacity="1"/><rect x="50.67564678192139" y="28.857234001159668" width="2" height="2" id="svg_9" fill="#ffffff" fill-opacity="1"/><rect x="48.67564678192139" y="39.85723400115967" width="2" height="2" id="svg_10" fill="#ffffff" fill-opacity="1"/></g></g></svg>