<svg xmlns:dc="http://purl.org/dc/elements/1.1/" xmlns:cc="http://creativecommons.org/ns#" xmlns:rdf="http://www.w3.org/1999/02/22-rdf-syntax-ns#" xmlns:svg="http://www.w3.org/2000/svg" xmlns="http://www.w3.org/2000/svg" xmlns:sodipodi="http://sodipodi.sourceforge.net/DTD/sodipodi-0.dtd" xmlns:inkscape="http://www.inkscape.org/namespaces/inkscape" version="1.1" xml:space="preserve" width="90" height="98" style=""><rect id="backgroundrect" width="100%" height="100%" x="0" y="0" fill="none" stroke="none" class="" style=""/><g class="currentLayer" style=""><title>Layer 1</title><path d="m51.45887783111572,0.11937553911361687 c-0.17617,-0.0006659999999999999 -0.35517200000000004,0.02484 -0.532471,0.07929000000000003 l-8.89346,2.730429 C41.34064283111572,3.141800539113617 40.84442283111572,3.750065439113617 40.77590883111572,4.471019439113617 c-0.06851000000000002,0.7209450000000002 0.304155,1.41228 0.9441780000000001,1.751274 l9.482346,5.026293 l-7.587929,7.590258 c-0.33564700000000003,0.3358900000000001 -0.524077,0.791074 -0.524077,1.2658960000000001 v16.001612 c0,0.9887940000000001 0.8016400000000001,1.790433 1.790442,1.790433 c0.988801,0 1.790442,-0.8016390000000001 1.790442,-1.790433 V20.846096439113616 l8.251885,-8.254214 h31.615284 v63.978442 h-3.9389760000000003 c-0.988804,0 -1.790442,0.8016480000000001 -1.790442,1.790442 c0,0.988803 0.8016380000000001,1.790442 1.790442,1.790442 h5.729417 C89.31772383111573,80.15120843911362 90.11936283111572,79.34956943911362 90.11936283111572,78.36076643911362 V10.801439439113617 C90.11888583111572,9.812636439113618 89.31725683111573,9.010997139113616 88.32845283111573,9.010997139113616 H55.50462083111572 L53.16352583111572,1.384838539113617 c-0.23566700000000002,-0.7679070000000001 -0.941252,-1.26252 -1.7046480000000002,-1.265436 zM50.265249831115725,4.147406439113617 L51.20103383111572,7.195814139113617 L47.21636883111572,5.083658439113617 zM12.811448831115722,8.827730139113617 c-0.988802,0 -1.790441,0.8016393 -1.790441,1.7904423 V22.322250439113617 L0.9040798311157223,29.189808439113616 c-0.4908204000000001,0.33326000000000006 -0.7847172,0.8880840000000001 -0.7847172,1.4813100000000001 v60.875017 c0,0.988803 0.8016408000000002,1.790442 1.790442,1.790442 H21.007848831115723 c0.988802,0 1.790441,-0.8016390000000001 1.790441,-1.790442 c0,-0.988803 -0.8016400000000001,-1.790442 -1.790441,-1.790442 H3.700245631115722 V74.46466643911361 H16.235201831115724 c0.988801,0 1.790441,-0.8016390000000001 1.790441,-1.790441 v-26.3097 c0,-0.988803 -0.8016400000000001,-1.790442 -1.790441,-1.790442 H3.700245631115722 V32.461559439113614 H32.82476283111572 v3.167307 c0,0.988803 0.8016410000000002,1.790442 1.790442,1.790442 c0.988801,0 1.790441,-0.8016390000000001 1.790441,-1.790442 v-4.9577480000000005 c0,-0.593226 -0.29365800000000003,-1.148284 -0.784717,-1.4813100000000001 L25.503534831115722,22.322250439113617 V10.618172439113618 c0,-0.988803 -0.8016400000000001,-1.7904423 -1.790441,-1.7904423 zm1.790441,3.5808843 h7.321227 v9.071568 h-7.321227 zm-1.2397880000000001,12.652452 h9.800803 l5.626835,3.81961 H7.735266831115723 zm12.658983,14.745501 c-0.988801,0 -1.790442,0.8016390000000001 -1.790442,1.790442 v54.66815 c0,0.988811 0.8016410000000002,1.790441 1.790442,1.790441 h26.737261 c0.988802,0 1.790442,-0.8016300000000001 1.790442,-1.790441 v-54.66815 c0,-0.988803 -0.8016400000000001,-1.790442 -1.790442,-1.790442 zm1.790441,3.580884 h2.148531 v6.923043 h-2.148531 zm5.729414,0 h4.058334 v6.923043 h-4.058334 zm7.639218,0 h4.058334 v6.923043 h-4.058334 zm7.639217,0 h2.14853 v6.923043 h-2.14853 zM3.700245631115722,48.15496743911362 H14.444292831115721 V70.88378343911361 H3.700245631115722 zm61.3128322,5.020227 c-0.9888,0 -1.790441,0.8016480000000001 -1.790441,1.790442 v4.699917 l-5.7019020000000005,5.196942 c-0.37241300000000005,0.3392280000000001 -0.5846910000000002,0.8197740000000001 -0.5846910000000002,1.323242 v25.066188 c0,0.988803 0.8016400000000001,1.790442 1.790442,1.790442 h18.859316 c0.988802,0 1.790442,-0.8016390000000001 1.790442,-1.790442 V66.18573743911362 c0,-0.5037119999999999 -0.21205000000000002,-0.9840139999999999 -0.584226,-1.323242 l-5.702369,-5.196942 v-4.699917 c0,-0.9887940000000001 -0.8016400000000001,-1.790442 -1.790442,-1.790442 zm-37.201552,0.716184 h23.156379 v40.58334 H27.811525831115723 zm38.991994,2.8647 h2.705246 v1.909809 h-2.705246 zm-1.09711,5.490693 h4.899469 l2.357416,2.148524 h-9.6143 zm-33.479395,2.778912 c-0.988801,0 -1.790441,0.8016380000000001 -1.790441,1.790442 v15.041105 c0,0.988803 0.8016400000000001,1.790442 1.790441,1.790442 H46.552412831115724 c0.988802,0 1.790442,-0.8016390000000001 1.790442,-1.790442 V66.81612543911362 c0.00023899999999999998,-0.988804 -0.8016400000000001,-1.790442 -1.790442,-1.790442 zm28.289912,2.9504960000000002 H75.79535983111572 V89.46148343911362 H60.516926831115725 zm-26.49947,0.6303880000000001 h10.744514 v11.46023 H34.01745683111572 z" style="" stroke-width="0.23872556" id="svg_1" class="selected" fill="#ffffff" fill-opacity="1"/></g></svg>