<svg xmlns="http://www.w3.org/2000/svg" width="64" height="64"><rect id="backgroundrect" width="100%" height="100%" x="0" y="0" fill="none" stroke="none" class="" style=""/><title>cleaning-clean-broom-sweep</title><g class="currentLayer" style=""><title>Layer 1</title><g data-name="Layer 6" id="svg_1" class=""><path d="M17,8.5A8.5,8.5,0,1,0,8.5,17,8.51,8.51,0,0,0,17,8.5ZM2,8.5A6.5,6.5,0,1,1,8.5,15,6.508,6.508,0,0,1,2,8.5Z" id="svg_2"/><path d="M14,8.5H12A3.5,3.5,0,0,1,8.5,12v2A5.506,5.506,0,0,0,14,8.5Z" id="svg_3"/><path d="M57,14a7,7,0,1,0,7,7A7.008,7.008,0,0,0,57,14Zm0,12a5,5,0,1,1,5-5A5.006,5.006,0,0,1,57,26Z" id="svg_4"/><path d="M59,21a2,2,0,0,1-2,2v2a4,4,0,0,0,4-4Z" id="svg_5"/><path d="M20,35.5H18A2.5,2.5,0,0,1,15.5,38v2A4.505,4.505,0,0,0,20,35.5Z" id="svg_6"/><path d="M50.572,46.713,50,35.71A12.726,12.726,0,0,0,40,23.3V18a1,1,0,0,0-1-1H36V1a1,1,0,0,0-1-1H29a1,1,0,0,0-1,1V17H25a1,1,0,0,0-1,1v5.309a12.713,12.713,0,0,0-7.435,4.776,7.491,7.491,0,0,0-2.932,14.67l-.2,3.958a84.388,84.388,0,0,1-2.4,16.044A1,1,0,0,0,12,64H38a1,1,0,0,0,.97-.757L41,55.123l2.03,8.12A1,1,0,0,0,44,64h8a1,1,0,0,0,.97-1.243A84.388,84.388,0,0,1,50.572,46.713ZM30,2h4V17H30ZM26,23V19H38v4H26ZM10,35.5A5.5,5.5,0,1,1,15.5,41,5.506,5.506,0,0,1,10,35.5ZM44.781,62,41.97,50.757a1,1,0,0,0-1.94,0L37.219,62H34V55H32v7H28V55H26v7H22V55H20v7H13.271a86.426,86.426,0,0,0,2.155-15.184l.2-3.822a7.491,7.491,0,0,0,3.007-14.3A10.718,10.718,0,0,1,26.71,25H37.29A10.735,10.735,0,0,1,48,35.762l.573,11.054A86.426,86.426,0,0,0,50.729,62Z" id="svg_7"/></g></g></svg>