<svg xmlns="http://www.w3.org/2000/svg" xmlns:xlink="http://www.w3.org/1999/xlink" version="1.1" style="enable-background:new 0 0 244.217 285.413;" xml:space="preserve" width="244" height="285"><rect id="backgroundrect" width="100%" height="100%" x="0" y="0" fill="none" stroke="none" class="" style=""/><g class="currentLayer" style=""><title>Layer 1</title><g id="svg_1" class="selected" fill="#ffffff" fill-opacity="1"><path d="M102.8352759861052,275.413 c0,5.523 4.478,10 10,10 c5.523,0 10,-4.477 10,-10 v-51.298 c-5,1.017 -12,1.745 -20,1.839 V275.413 z" id="svg_2" fill="#ffffff" fill-opacity="1"/><path d="M79.8352759861052,275.413 c0,5.523 4.481,10 10,10 c5.524,0 10,-4.477 10,-10 v-49.46 c-8,-0.09400000000000003 -14,-0.8220000000000001 -20,-1.839 V275.413 z" id="svg_3" fill="#ffffff" fill-opacity="1"/><path d="M132.3782759861052,182.223 c-1.484,0 -2.908,-0.3340000000000001 -4.193,-0.934 l3.533,17.363 c0.3970000000000001,1.952 -0.7620000000000001,3.896 -2.6790000000000003,4.44 c-6.356,1.803 -15.558,3.543 -27.397,3.543 c-11.839,0 -21.042,-1.7400000000000002 -27.398,-3.543 c-1.917,-0.544 -3.076,-2.488 -2.6790000000000003,-4.44 l12.648,-62.162 l-7.727,-32.228 C64.4652759861052,100.154 44.2192759861052,90.88 23.421275986105204,70.974 L39.0852759861052,30.86 l8.461,3.3040000000000003 L57.5492759861052,8.548 L35.6592759861052,0 L25.655275986105202,25.616 l8.461,3.3040000000000003 L18.951275986105205,67.755 c-2.204,-0.6120000000000001 -4.664,-0.04400000000000001 -6.38,1.702 c-2.517,2.56 -2.482,6.675 0.07700000000000001,9.192 c0.49700000000000005,0.48900000000000005 0.994,0.9510000000000001 1.491,1.429 l-2.757,7.06 l4.969,1.941 l1.986,-5.085 c20.103,18.15 39.472,27.389 52.223,31.954 c-9.447,4.686 -24.725,9.765 -44.725,7.302 v-5.827 c0,-1.6380000000000001 -1.08,-3.084 -2.339,-3.946 c0.35600000000000004,-0.276 0.3390000000000001,-0.7040000000000001 0.3390000000000001,-1.19 v-3.116 c0,-0.8340000000000001 -0.32800000000000007,-1.339 -1.162,-1.339 h-2.6470000000000002 c-0.132,-2 -2.503,-4.318 -2.503,-5.048 c0,-0.18900000000000003 -0.010000000000000002,-0.452 -0.031000000000000007,-0.6860000000000002 c0.28800000000000003,-0.43800000000000006 0.459,-0.983 0.459,-1.5470000000000002 c0,-1.5390000000000001 -1.248,-2.7960000000000003 -2.785,-2.7960000000000003 c-1.5390000000000001,0 -2.786,1.241 -2.786,2.7800000000000002 c0,0.5630000000000001 0.17,1.083 0.457,1.521 c-0.021000000000000005,0.234 -0.031000000000000007,0.54 -0.031000000000000007,0.7290000000000001 c0,0.7300000000000001 -2.37,3.046 -2.502,5.046 H7.658275986105203 c-0.8340000000000001,0 -1.823,0.504 -1.823,1.339 v3.116 c0,0.48600000000000004 0.48300000000000004,0.913 0.8390000000000001,1.19 c-1.26,0.8620000000000001 -1.839,2.308 -1.839,3.946 v23.535 c0,2.636 1.9580000000000002,4.8740000000000006 4.595,4.8740000000000006 h11.472 c2.6350000000000002,0 4.933,-2.238 4.933,-4.8740000000000006 v-4.63 c3,0.38800000000000007 7,0.5900000000000001 10.336,0.5900000000000001 c14.42,0 26.302,-3.302 35.2,-7.052 c-7.377,11.694 -21.47,28.324 -45.74,38.574 l-5.816,-11.555 l-16.684,8.381 l3.178,6.329 l4.801,-2.4130000000000003 l12.852,25.577 l-4.803,2.4130000000000003 l4.172,8.302 l16.679,-8.382 l-8.543,-17.001 c17.613,-7.558 30.38,-17.995 39.437,-28.028 l-6.301,30.967 l-6.295,30.936 c0,0 15.014,9 43.334,9 c28.32,0 43.333,-9 43.333,-9 l-5.8790000000000004,-28.897 l-0.9510000000000001,-4.676 c-1.106,0.779 -2.366,1.335 -3.73,1.617 C133.74627598610522,182.153 133.0602759861052,182.223 132.3782759861052,182.223 zM52.120275986105206,11.795 l-6.183,15.837 l-2.795,-1.091 l6.183,-15.836 L52.120275986105206,11.795 zM46.1832759861052,9.476 l-6.185,15.836 l-2.793,-1.09 l6.182,-15.836 L46.1832759861052,9.476 zM31.267275986105204,21.902 l6.183,-15.837 l2.795,1.093 l-6.184,15.835 L31.267275986105204,21.902 zM20.902275986105202,143.833 H9.430275986105205 c-1.258,0 -2.595,-1.617 -2.595,-2.874 v-1.126 h7 v-2 h-7 v-4 h7 v-2 h-7 v-4 h7 v-2 h-7 v-4 h7 v-2 h-7 v-2.409 c0,-1.258 1.336,-2.591 2.595,-2.591 h11.472 c1.2570000000000001,0 1.933,1.3330000000000002 1.933,2.591 v23.535 C22.835275986105202,142.215 22.159275986105204,143.833 20.902275986105202,143.833 z" id="svg_4" fill="#ffffff" fill-opacity="1"/><path d="M120.17027598610521,141.895 c0.9570000000000001,-1.037 2.142,-1.8850000000000002 3.513,-2.453 l7.763,-3.217 l-6.393,-14.187 c-0.27,-0.5960000000000001 -0.503,-1.21 -0.7010000000000001,-1.84 l-1.465,0.36900000000000005 l-3.817,15.92 L120.17027598610521,141.895 z" id="svg_5" fill="#ffffff" fill-opacity="1"/><path d="M89.59227598610521,136.833 h24.097 l3.452,-14.607 l-6.18,1.453 c-0.7230000000000001,0.18200000000000002 -1.465,0.22200000000000003 -2.204,0.22200000000000003 c-4.126,0 -7.712,-2.823 -8.722,-6.828 c-0.5880000000000001,-2.331 -0.233,-4.765000000000001 1,-6.829 c1.232,-2.064 3.195,-3.5300000000000002 5.526,-4.118 l1.913,-0.48600000000000004 c-2.15,-0.24900000000000003 -4.484,-0.42500000000000004 -6.833,-0.42500000000000004 c-6.254,0 -12.428,1.225 -15.19,1.855 c-0.8960000000000001,-0.18500000000000003 -2.306,-0.29700000000000004 -4.135,-0.798 L89.59227598610521,136.833 z" id="svg_6" fill="#ffffff" fill-opacity="1"/><path d="M121.3032759861052,70.543 c-3.337,-7.548 -10.878,-12.821 -19.661,-12.821 c-11.874,0 -21.5,9.626 -21.5,21.5 s9.626,21.5 21.5,21.5 c7.314,0 13.765,-3.6590000000000003 17.649,-9.239 c-0.39000000000000007,-0.6550000000000001 -0.7480000000000001,-1.334 -1.057,-2.046 C115.4032759861052,82.885 116.8472759861052,75.556 121.3032759861052,70.543 z" id="svg_7" fill="#ffffff" fill-opacity="1"/><path d="M140.6382759861052,96.409 c7.752,-3.348 11.324,-12.352 7.968,-20.109 c-3.354,-7.748 -12.359,-11.32 -20.111,-7.965 c-7.755,3.356 -11.315,12.359 -7.966,20.109 C123.88427598610521,96.2 132.8842759861052,99.761 140.6382759861052,96.409 z" id="svg_8" fill="#ffffff" fill-opacity="1"/><path d="M125.4062759861052,174.96 c1.122,2.871 3.907,4.763 6.973,4.763 c0.504,0 1.016,-0.05100000000000001 1.528,-0.15700000000000003 c4.057,-0.8400000000000001 6.664,-4.809 5.823,-8.865 l-0.08400000000000002,-0.404 L125.4062759861052,174.96 z" id="svg_9" fill="#ffffff" fill-opacity="1"/><path d="M126.2142759861052,117.15 c0.18900000000000003,1.302 0.549,2.601 1.117,3.8600000000000003 l7.453,16.538 l-10.144,4.204 c-3.326,1.3780000000000001 -5.203,4.925 -4.473,8.45 l1.5430000000000001,7.45 l17.848,-5.844 l11.768,-4.877 c1.028,-0.21100000000000002 2.05,-0.527 3.048,-0.977 c7.255,-3.257 10.487,-11.791 7.218,-19.041 L153.5992759861052,109.17 c-2.714,-6.022 -9.053,-9.256 -15.278,-8.318 c-0.463,0.014000000000000002 -0.931,0.07400000000000001 -1.399,0.19100000000000003 l-29.75,7.5 c-3.481,0.8770000000000001 -5.5920000000000005,4.411 -4.714,7.892 c0.7430000000000001,2.948 3.391,4.913 6.298,4.913 c0.526,0 1.061,-0.06400000000000002 1.594,-0.19900000000000004 L126.2142759861052,117.15 z" id="svg_10" fill="#ffffff" fill-opacity="1"/><path d="M52.818275986105206,228.833 c-1.117,-3 -3.053,-5.88 -5.946,-7.828 l-0.251,-0.09700000000000003 l-0.13,-0.23800000000000002 c-0.03900000000000001,-0.08300000000000002 -3.992,-8.274000000000001 -11.49,-10.276 c-1.104,-0.29400000000000004 -2.235,-0.43200000000000005 -3.3890000000000002,-0.43200000000000005 c-3.517,0 -7.255,1.37 -11.158,4.086 c-4.908,3.417 -5.854,5.339 -5.888,6.292 c3.072,-0.28 5.58,0.06100000000000001 6.436,0.20500000000000002 c7.655,-2.541 16.338,1.19 19.721,5.028 c1.344,1.525 1.484,3.261 1.279,3.261 H52.818275986105206 z" id="svg_11" fill="#ffffff" fill-opacity="1"/><path d="M54.754275986105206,231.833 H34.32727598610521 c-2.284,0 -4.067,2.266 -5.914,4.039 c-2.384,2.29 -4.85,4.53 -8.44,4.7010000000000005 c-1.947,0.09300000000000003 -5.131,2.559 -7.94,4.792 c-1.113,0.8840000000000001 -2.208,1.7160000000000002 -3.275,2.491 l3.442,33.977 h37.442 L54.754275986105206,231.833 z" id="svg_12" fill="#ffffff" fill-opacity="1"/><path d="M10.664275986105205,243.578 c3.368,-2.676 6.548,-5.204 9.204,-5.33 c2.7670000000000003,-0.132 4.738,-2.025 7.021,-4.218 c2.839,-2.726 6.055,-5.822 11.375,-5.363 c1.315,0.10500000000000001 1.6430000000000002,-0.15900000000000003 1.6460000000000001,-0.16100000000000003 c0.005000000000000001,-0.18300000000000002 -0.43500000000000005,-1.146 -1.9849999999999999,-2.428 c-3.7510000000000003,-3.1 -10.503,-5.474 -16.47,-3.361 l-0.28500000000000003,0.101 l-0.29800000000000004,-0.06000000000000001 c-0.037000000000000005,-0.007000000000000002 -1.613,-0.30900000000000005 -3.878,-0.30900000000000005 c-3.17,0 -7.691,0.5910000000000001 -11.234,3.41 c-3.62,2.88 -5.551,7.541 -5.739,13.854 c-0.19800000000000004,6.634 1.032,8.255 1.782,8.631 C3.5592759861052037,249.225 7.499275986105204,246.093 10.664275986105205,243.578 z" id="svg_13" fill="#ffffff" fill-opacity="1"/><rect x="3.719353199005127" y="155.10267639160156" transform="matrix(0.8935,-0.449,0.449,0.8935,-69.632,21.0622) " width="11.75" height="4.5" id="svg_14" fill="#ffffff" fill-opacity="1"/><path d="M202.1942759861052,259.648 c0.3340000000000001,1.145 -0.11800000000000002,2.306 -1.344,3.454 c-0.8300000000000001,0.778 -1.086,1.472 -0.998,1.6940000000000002 c0.19100000000000003,0.48200000000000004 2.058,1.738 8.324,1.738 c0.47900000000000004,0 0.982,-0.008000000000000002 1.505,-0.021000000000000005 c0.32300000000000006,-0.010000000000000002 0.6370000000000001,-0.07300000000000001 0.9490000000000001,-0.07300000000000001 c6.683,0 10.899000000000001,2.392 12.863,4.392 h11.008 l3.302,-50 h3.032 v-6 h-51 v6 h2.365 l0.251,3.864 l23.264,-6.453 c1.064,-0.29400000000000004 2.167,0.3410000000000001 2.463,1.404 c0.29600000000000004,1.064 -0.32600000000000007,2.174 -1.3900000000000001,2.471 l-24.068,6.71 l1.82,27.562 c0.777,0.17200000000000001 1.537,0.31900000000000006 2.242,0.452 C199.6022759861052,257.371 201.6412759861052,257.755 202.1942759861052,259.648 z" id="svg_15" fill="#ffffff" fill-opacity="1"/><path d="M193.3992759861052,226.296 c-0.29600000000000004,-1.064 -1.397,-1.463 -2.462,-1.463 c0,0 -0.0010000000000000002,0 -0.0010000000000000002,0 l-5.722,1.7680000000000002 c-1.064,0.29700000000000004 -1.6860000000000002,1.486 -1.389,2.55 c0.24700000000000003,0.8850000000000001 1.05,1.5070000000000001 1.925,1.5070000000000001 c0.17800000000000002,0 0.35800000000000004,-0.10200000000000001 0.538,-0.15100000000000002 l5.722,-1.673 c0,0 0.0010000000000000002,0 0.0010000000000000002,0 C193.0742759861052,228.833 193.6962759861052,227.359 193.3992759861052,226.296 z" id="svg_16" fill="#ffffff" fill-opacity="1"/><path d="M156.7742759861052,155.428 c-1.116,-3.411 -4.784,-5.273 -8.199,-4.154 l-28.5,9.333 c-3.412,1.117 -5.271,4.789 -4.154,8.2 c0.8960000000000001,2.74 3.441,4.479 6.176,4.479 c0.6700000000000002,0 1.352,-0.10400000000000001 2.023,-0.32500000000000007 l28.5,-9.333 C156.0322759861052,162.511 157.8912759861052,158.84 156.7742759861052,155.428 z" id="svg_17" fill="#ffffff" fill-opacity="1"/><rect x="205.6562957763672" y="147.9838104248047" transform="matrix(0.9677,-0.2521,0.2521,0.9677,-31.1336,57.4667) " width="6.01800012588501" height="4.461999893188477" id="svg_18" fill="#ffffff" fill-opacity="1"/><path d="M214.7372759861052,161.583 l-1.6320000000000001,-6.263 l-5.823,1.517 l1.6310000000000002,6.259 c-4.613,4.589 -13.985,15.952 -14.175,32.687 c-0.16600000000000004,14.549 27.361,6.102 27.361,6.102 s28.159,-6.019 20.932,-18.648 C234.7212759861052,168.711 221.0032759861052,163.347 214.7372759861052,161.583 z" id="svg_19" fill="#ffffff" fill-opacity="1"/><path d="M196.4082759861052,91.24 c0.06400000000000002,-0.05100000000000001 0.128,-0.09800000000000003 0.19200000000000003,-0.15000000000000002 c2.803,-2.242 3.258,-6.332 1.015,-9.136 c-1.096,-1.37 -2.6340000000000003,-2.174 -4.247,-2.382 L174.3262759861052,6.492 l-5.825,1.512 l19.085,73.567 c-4.931,3.89 -9.752,7.298 -14.752,10.263 V55.833 h-5 v38.948 c-5,3.19 -10.968,5.792 -15.984,7.911 c1.6390000000000002,1.5110000000000001 3.038,3.348 3.9859999999999998,5.451 l2.605,5.921 c3.038,-1.323 6.393,-2.813 9.393,-4.479 v47.754 c-4,-2.6990000000000003 -8.684000000000001,-5.797 -12.65,-9.055 c-0.6760000000000002,0.29700000000000004 -1.344,0.539 -2.071,0.7480000000000001 c2.697,0.8160000000000001 4.913,2.895 5.825,5.682 c0.7310000000000001,2.233 0.56,4.619 -0.502,6.715 c-0.6890000000000002,1.362 -1.6960000000000002,2.491 -2.93,3.319 c2.967,2.044 6.052,3.976 9.247,5.721 c0.989,0.541 1.975,0.797 3.028,0.797 c0.04500000000000001,0 0.05300000000000001,-0.008000000000000002 0.05300000000000001,-0.009000000000000003 v86.179 v2.049 c-5,1.308 -9.995,3.026 -6.609,5.974 c5.697,4.962 -5.086,13.844 9.157,14.989 c14.244,1.145 38.194,0.6580000000000001 47.309,-1.633 c9.116,-2.289 5.708,-10.685 -7.965,-10.303 c-13.674,0.38100000000000006 -13.099,-4.199 -10.251,-6.87 c2.849,-2.6710000000000003 -2.276,-2.29 -7.404,-3.816 c-5.128,-1.526 -9.196,-2.62 -14.324,-0.7120000000000001 c-1.143,0.42500000000000004 -2.9130000000000003,0.8300000000000001 -4.913,1.255 v-2.047 v-87.575 c0,-0.271 0.406,-0.556 0.5750000000000001,-0.8660000000000001 c1.28,-2.343 1.425,-5.126 -0.5750000000000001,-7.107 v-53.853 c6,-3.2720000000000002 12.105,-7.15 18.304,-11.717 l13.045,49.907 l5.844,-1.517 L196.4082759861052,91.24 z" id="svg_20" fill="#ffffff" fill-opacity="1"/></g></g></svg>