<svg xmlns="http://www.w3.org/2000/svg" xmlns:xlink="http://www.w3.org/1999/xlink" version="1.1" style="" xml:space="preserve" width="68" height="80"><rect id="backgroundrect" width="100%" height="100%" x="0" y="0" fill="none" stroke="none" class="" style=""/><g class="currentLayer" style=""><title>Layer 1</title><path d="M45.86573791503906,54.666503899999995 c-0.4775391,0.27636720000000004 -0.6416016000000002,0.8872070000000001 -0.36621090000000006,1.3652344 l2.7978516,4.8569336 h-8.2841797 v-4.8256836 c0,-0.3930664000000001 -0.23046880000000003,-0.7500000000000001 -0.5888672,-0.9116211000000001 c-0.35742190000000007,-0.16113280000000002 -0.7773438,-0.09814450000000004 -1.0732422,0.16210940000000004 l-9.3798828,8.2792969 c-0.21484380000000003,0.18945310000000004 -0.3378906000000001,0.46289060000000004 -0.3378906000000001,0.7495117 c0,0.2871094 0.12304690000000001,0.5600586000000001 0.3378906000000001,0.7495117 l9.3798828,8.2788086 c0.18652340000000003,0.16455080000000002 0.42285160000000005,0.25048830000000005 0.6621094000000002,0.25048830000000005 c0.13964840000000003,0 0.2792969,-0.028808600000000004 0.4111328,-0.08837890000000001 c0.35839840000000006,-0.16162110000000002 0.5888672,-0.5185546999999999 0.5888672,-0.9116211000000001 v-4.8251953 h11.8847656 c2.6455078,0 4.7978516,-2.1518555 4.7978516,-4.7973633 c0,-0.9013671999999999 -0.23828120000000003,-1.7900391 -0.6884766000000001,-2.5708008 l-4.5253906,-7.8481445 c-0.1328125,-0.22998050000000003 -0.35058590000000006,-0.3974609000000001 -0.6074219000000001,-0.4663086000000001 c-0.2558594,-0.06884770000000001 -0.5292969,-0.03320310000000001 -0.7587891000000001,0.09960940000000003 L45.86573791503906,54.666503899999995 zM54.27491761503906,61.427246100000005 v0.0004883000000000001 c0.27539060000000004,0.47705080000000005 0.42089840000000006,1.0200195 0.42089840000000006,1.5708008000000002 c0,1.5424805 -1.2548828,2.7973632999999998 -2.7978516,2.7973632999999998 H39.01319881503906 c-0.5527344000000001,0 -1,0.44775390000000004 -1,1 v3.6088867000000002 l-6.8691406,-6.0625 l6.8691406,-6.0629883 v3.609375 c0,0.5522461 0.44726560000000004,1 1,1 h9.5693359 c0.6640625,0 1.2578125,-0.34277340000000006 1.5898438000000001,-0.9174804999999999 c0.3310547000000001,-0.5742188 0.3310547000000001,-1.2602539 0,-1.8339844 l-2.4414062000000003,-4.237793 l2.5185547,-1.4541016 L54.27491761503906,61.427246100000005 z" id="svg_1" class="" fill="#ffffff" fill-opacity="1"/><path d="M27.16651921503906,39.2216797 l4.25,2.4536132999999998 c0.47558590000000006,0.27441410000000005 1.0869141,0.11230470000000002 1.3642578,-0.3637695 l2.1035156,-3.6186523 l3.4511719,5.9780273 l-3.9003906,2.2524414 c-0.34082030000000013,0.19677730000000004 -0.5341797,0.5747070000000001 -0.49511720000000004,0.9658203000000001 s0.30371090000000006,0.7231445000000001 0.6767578000000002,0.8481445000000001 l11.859375,3.9829102 c0.10351560000000001,0.035156200000000006 0.21093750000000003,0.05224610000000001 0.31835940000000007,0.05224610000000001 c0.1738281,0 0.3466797000000001,-0.04541020000000001 0.5,-0.13378910000000002 c0.24804690000000004,-0.1435547 0.42285160000000005,-0.3867188000000001 0.4804688000000001,-0.6679688000000001 l2.4804688,-12.262207 c0.0771484,-0.38525390000000004 -0.0771484,-0.7807617 -0.3964844000000001,-1.0102539 s-0.7431641,-0.25 -1.0839844,-0.05419920000000002 l-4.4570312,2.5732422 l-5.2509766,-9.0952148 c-0.6406250000000002,-1.1098633 -1.6757812000000003,-1.9038086 -2.9140625,-2.2353516 c-1.2402344,-0.3325195000000001 -2.53125,-0.16113280000000002 -3.6396484000000004,0.47900390000000004 c-0.78125,0.4506836 -1.4326172000000001,1.1015625 -1.8818359,1.8803711 l-3.8300781,6.6079102 c-0.1328125,0.22949220000000006 -0.16894530000000008,0.5029297 -0.1005859,0.7592773 C26.76905821503906,38.8701172 26.937027015039064,39.0888672 27.16651921503906,39.2216797 zM32.36280821503906,32.2475586 c0.27539060000000004,-0.47656250000000006 0.6728516000000002,-0.8740234000000001 1.1503906,-1.1499023 c0.6474609,-0.37304690000000007 1.4003906000000002,-0.4711914 2.1220703,-0.2792969 c0.7226562000000001,0.19335940000000004 1.3261719,0.6567383000000001 1.6992188000000001,1.3037109 l5.7509766,9.9614258 c0.1328125,0.22949220000000006 0.35156250000000006,0.3974609000000001 0.6074219000000001,0.4658203000000001 c0.2548828000000001,0.06884770000000001 0.5283203,0.03271480000000001 0.7587891000000001,-0.09960940000000003 l3.4033203,-1.965332 l-1.8164061999999999,8.9794922 l-8.6845703,-2.9165039 l2.8476562000000003,-1.6440430000000001 c0.47851560000000004,-0.27636720000000004 0.6425781,-0.8876953000000002 0.36621090000000006,-1.3662109 l-4.09375,-7.0908203 c-0.3320312,-0.5742188 -0.9257812000000001,-0.9174804999999999 -1.5898438000000001,-0.9174804999999999 c-0.6630859000000001,0 -1.2568359,0.34326170000000006 -1.5869141,0.9150391 l-1.7441406000000002,3.0004883 l-2.5195312,-1.4541016 L32.36280821503906,32.2475586 z" id="svg_2" class="" fill="#ffffff" fill-opacity="1"/><path d="M14.195816015039064,67.1020508 c0.78125,0.45019529999999996 1.6699219000000003,0.6884766000000001 2.5703125,0.6884766000000001 l9.0595703,0.005371100000000001 c0.0009766000000000004,0 0.0009766000000000004,0 0.0009766000000000004,0 c0.2646484,0 0.5195312,-0.1054688 0.7070312000000001,-0.2924805000000001 c0.18750000000000003,-0.18798830000000005 0.2929688000000001,-0.44238280000000013 0.2929688000000001,-0.7075195 v-4.9072265999999996 c0,-0.5517578000000001 -0.44726560000000004,-0.9995116999999999 -0.9990234,-1 l-5.6054688,-0.004882800000000001 l4.4179688,-7.6513672 l4.1787109000000004,2.4130859 c0.34082030000000013,0.19628910000000005 0.7646484000000002,0.17578120000000003 1.0839844,-0.05419920000000002 c0.31933590000000006,-0.22949220000000006 0.4736328,-0.6250000000000001 0.3964844000000001,-1.0102539 l-2.4804688,-12.262207 c-0.057617200000000014,-0.28125 -0.23242190000000001,-0.5244140999999999 -0.4804688000000001,-0.6679688000000001 c-0.24804690000000004,-0.1425781 -0.5468750000000001,-0.1728516 -0.8183594000000001,-0.08154300000000002 l-11.859375,3.9829102 c-0.37304690000000007,0.125 -0.6376953000000002,0.45703119999999997 -0.6767578000000002,0.8481445000000001 s0.15429690000000004,0.7690430000000001 0.49511720000000004,0.9658203000000001 l4.1787109000000004,2.4130859 l-6.2177734000000004,10.769043 c-0.6406250000000002,1.109375 -0.8105469,2.4023438 -0.47949220000000004,3.6401367000000002 C12.292495715039063,65.4262695 13.086441015039064,66.4609375 14.195816015039064,67.1020508 zM14.172378515039064,61.548339799999994 l6.7177734000000004,-11.6352539 c0.27636720000000004,-0.47802730000000004 0.11230470000000002,-1.0898438 -0.36621090000000006,-1.3662109 l-3.125,-1.8046875 l8.6835938,-2.9165039 l1.8164061999999999,8.9790039 L24.773941015039064,51 c-0.23046880000000003,-0.1328125 -0.5048828,-0.16845700000000005 -0.7587891000000001,-0.09960940000000003 c-0.2558594,0.0683594 -0.4746094,0.2363281 -0.6074219000000001,0.4658203000000001 l-5.0605469,8.7646484 c-0.3310547000000001,0.5747070000000001 -0.3310547000000001,1.2607422 0,1.8349609 c0.3320312,0.5747070000000001 0.9257812000000001,0.9174804999999999 1.5888672000000001,0.9174804999999999 l4.890625,0.0043945 v2.9077148 l-8.0595703,-0.004882800000000001 c-0.5507812000000001,0 -1.09375,-0.14550780000000002 -1.5712891,-0.42089840000000006 c-0.6474609,-0.3735352 -1.1103516,-0.9765624999999998 -1.3037109,-1.6987305000000001 C13.698745715039063,62.9492188 13.798355115039062,62.1953125 14.172378515039064,61.548339799999994 z" id="svg_3" class="" fill="#ffffff" fill-opacity="1"/><path d="M0.293472315039061,65.4975586 c0.9345703,5.171875 4.0996094,9.1450195 9.40625,11.8085938 C13.260269215039063,79.09375 17.295425415039062,80 21.69190981503906,80 h24.4570312 c4.3964844,0 8.4316406,-0.90625 11.9921875,-2.6938477 c5.3066406,-2.6635742000000002 8.4716797,-6.636718800000001 9.40625,-11.8085938 c2.7548828,-15.2466431 -14.6737061,-36.2836304 -19.3464355,-41.5975952 c1.6311035,-0.7521973000000001 2.7722168,-2.3928223 2.7722168,-4.303772 c0,-1.8982544000000001 -1.1273193,-3.5275269 -2.7410278000000003,-4.286438 c1.5332031,-1.4041748 3.3464966,-3.9335938 3.3464966,-8.0827026 c0,-0.5522461 -0.44726560000000004,-1 -1,-1 h-5.1641846000000005 c0.42395020000000005,-1.6488647 0.5999146000000001,-3.4416504 0.33020020000000005,-5.3657227 C45.67530821503906,0.3671875 45.25343321503906,0 44.75440981503906,0 H23.086441015039064 c-0.49902340000000006,0 -0.9208984000000001,0.36718750000000006 -0.9902344,0.8613281 c-0.2697144,1.9240723 -0.09375000000000003,3.7168579 0.33020020000000005,5.3657227 h-5.1641846000000005 c-0.5527344000000001,0 -1,0.44775390000000004 -1,1 c0,4.1491699 1.8133545,6.6785278 3.3465576,8.0827026 c-1.6137085,0.7589111000000001 -2.7410889000000003,2.3881836 -2.7410889000000003,4.286438 c0,1.9108887 1.1412354,3.5515137 2.7722778,4.3037109000000004 C14.967239415039064,29.2138062 -2.461410484960938,50.2509155 0.293472315039061,65.4975586 zM49.53468321503907,8.2270508 c-0.39093020000000006,4.3865967 -3.2902222,6.2205811 -4.0344238,6.6220703 h-5.2243652 c1.43927,-1.4564819 3.3066406,-3.7347412 4.482605,-6.6220703 H49.53468321503907 zM23.98976131503906,2 h19.8613281 c0.4249878000000001,6.739563 -5.2971191,11.8304443 -6.5355225,12.8491211 h-6.7902832 C29.286880515039066,13.8304443 23.564773515039064,8.739563 23.98976131503906,2 zM18.306167615039065,8.2270508 h4.7761841 c1.1759644,2.8873291 3.043335,5.1655884 4.482605,6.6220703 h-5.2244873 C21.596328715039064,14.4476318 18.69685361503906,12.6133423 18.306167615039065,8.2270508 zM21.61476131503906,16.8491211 h24.121582 c0.0011597000000000005,0 0.002258300000000001,0.0004883000000000001 0.0034180000000000013,0.0004883000000000001 c0.0007324000000000002,0 0.0015259000000000006,-0.0004883000000000001 0.002258300000000001,-0.0004883000000000001 h0.48406980000000005 c1.5146484,0 2.7470703,1.2324219 2.7470703,2.7470703 c0,1.5151366999999998 -1.2324219,2.7475586 -2.7470703,2.7475586 H21.61476131503906 c-1.5146484,0 -2.7470703,-1.2324219 -2.7470703,-2.7475586 C18.867691015039064,18.081543 20.100112915039062,16.8491211 21.61476131503906,16.8491211 zM21.926223715039065,24.34375 h23.9884033 c2.6473389000000003,2.9478149 22.4160156,25.5821533 19.6640015,40.7993164 c-0.8164062,4.519043 -3.6210938,8.0097656 -8.3339844,10.3759766 C54.01026921503906,77.1420898 50.17335511503906,78 46.148941015039064,78 H21.69190981503906 c-4.0244141,0 -7.8613281,-0.8579102000000001 -11.0957031,-2.480957 c-4.7128906,-2.3662109 -7.5175781,-5.8569336 -8.3339844,-10.3759766 C-0.48979188496093684,49.9259033 19.278884915039065,27.291564899999997 21.926223715039065,24.34375 z" id="svg_4" class="" fill="#ffffff" fill-opacity="1"/></g></svg>