<svg xmlns="http://www.w3.org/2000/svg" xmlns:xlink="http://www.w3.org/1999/xlink" version="1.1" style="" xml:space="preserve" width="62" height="80"><rect id="backgroundrect" width="100%" height="100%" x="0" y="0" fill="none" stroke="none" class="" style=""/><style type="text/css">
	.st0{fill:none;stroke:#000000;stroke-width:2;stroke-linecap:round;stroke-linejoin:round;stroke-miterlimit:10;}
	.st1{fill:none;stroke:#000000;stroke-width:2;stroke-linecap:round;stroke-linejoin:round;}
	.st2{fill:none;stroke:#000000;stroke-width:2;stroke-linecap:round;stroke-linejoin:round;stroke-dasharray:4.2934,4.2934;}
	.st3{fill:none;stroke:#000000;stroke-width:2;stroke-linecap:round;stroke-linejoin:round;stroke-dasharray:3.7696,3.7696;}
	.st4{fill:none;stroke:#000000;stroke-width:2;stroke-linecap:round;stroke-linejoin:round;stroke-dasharray:3.0341,5.0568;}
	.st5{fill:none;stroke:#000000;stroke-width:2;stroke-linecap:round;stroke-linejoin:round;stroke-dasharray:3.9789,3.9789;}
	.st6{fill:none;stroke:#000000;stroke-width:2;stroke-linecap:round;stroke-linejoin:round;stroke-dasharray:3.945,3.945;}
</style><g class="currentLayer" style=""><title>Layer 1</title><path d="M61.83299945068359,76.5259994506836 V3.474999450683594 c0,-1.916 -1.5590000000000002,-3.475 -3.475,-3.475 H3.474999450683594 c-1.916,0 -3.475,1.5590000000000002 -3.475,3.475 v73.051 c0,1.916 1.5590000000000002,3.475 3.475,3.475 h54.884 C60.27399945068359,80.0009994506836 61.83299945068359,78.4419994506836 61.83299945068359,76.5259994506836 zM16.915999450683593,2.0009994506835938 h28.001 v3.5140000000000002 H16.915999450683593 V2.0009994506835938 zM16.915999450683593,7.513999450683595 h28.001 v1.307 c0,1.3860000000000001 -1.154,2.513 -2.573,2.513 H19.487999450683596 c-1.4180000000000001,0 -2.572,-1.127 -2.572,-2.513 V7.513999450683595 zM19.487999450683596,13.333999450683592 h22.855 c2.521,0 4.573,-2.024 4.573,-4.513 v-1.307 h6.898 v64.306 H8.016999450683592 V7.513999450683595 h6.899 v1.307 C14.915999450683593,11.308999450683594 16.966999450683595,13.333999450683592 19.487999450683596,13.333999450683592 zM1.9999994506835925,76.5259994506836 V3.474999450683594 c0,-0.8130000000000001 0.6610000000000001,-1.475 1.475,-1.475 H14.915999450683593 v3.5140000000000002 h-7.899 c-0.553,0 -1,0.44700000000000006 -1,1 v66.306 c0,0.553 0.44700000000000006,1 1,1 h47.799 c0.553,0 1,-0.44700000000000006 1,-1 V6.513999450683595 c0,-0.553 -0.44700000000000006,-1 -1,-1 h-7.898 V2.0009994506835938 h11.441 c0.8130000000000001,0 1.475,0.6610000000000001 1.475,1.475 v73.051 c0,0.8130000000000001 -0.6610000000000001,1.475 -1.475,1.475 H3.474999450683594 C2.660999450683594,78.0009994506836 1.9999994506835925,77.33899945068359 1.9999994506835925,76.5259994506836 z" id="svg_1" class="" fill="#ffffff" fill-opacity="1"/><path d="M32.9689994506836,39.375999450683594 h13.204 c0.553,0 1,-0.44700000000000006 1,-1 s-0.44700000000000006,-1 -1,-1 H32.9689994506836 c-0.553,0 -1,0.44700000000000006 -1,1 S32.41599945068359,39.375999450683594 32.9689994506836,39.375999450683594 z" id="svg_2" class="" fill="#ffffff" fill-opacity="1"/><path d="M32.9689994506836,46.73099945068359 h13.204 c0.553,0 1,-0.44700000000000006 1,-1 s-0.44700000000000006,-1 -1,-1 H32.9689994506836 c-0.553,0 -1,0.44700000000000006 -1,1 S32.41599945068359,46.73099945068359 32.9689994506836,46.73099945068359 z" id="svg_3" class="" fill="#ffffff" fill-opacity="1"/><path d="M32.9689994506836,56.84499945068359 h13.204 c0.553,0 1,-0.44700000000000006 1,-1 s-0.44700000000000006,-1 -1,-1 H32.9689994506836 c-0.553,0 -1,0.44700000000000006 -1,1 S32.41599945068359,56.84499945068359 32.9689994506836,56.84499945068359 z" id="svg_4" class="" fill="#ffffff" fill-opacity="1"/><path d="M32.9689994506836,64.19999945068359 h13.204 c0.553,0 1,-0.44700000000000006 1,-1 s-0.44700000000000006,-1 -1,-1 H32.9689994506836 c-0.553,0 -1,0.44700000000000006 -1,1 S32.41599945068359,64.19999945068359 32.9689994506836,64.19999945068359 z" id="svg_5" class="" fill="#ffffff" fill-opacity="1"/><path d="M32.9689994506836,21.906999450683593 h13.204 c0.553,0 1,-0.44700000000000006 1,-1 s-0.44700000000000006,-1 -1,-1 H32.9689994506836 c-0.553,0 -1,0.44700000000000006 -1,1 S32.41599945068359,21.906999450683593 32.9689994506836,21.906999450683593 z" id="svg_6" class="" fill="#ffffff" fill-opacity="1"/><path d="M32.9689994506836,29.26099945068359 h13.204 c0.553,0 1,-0.44700000000000006 1,-1 s-0.44700000000000006,-1 -1,-1 H32.9689994506836 c-0.553,0 -1,0.44700000000000006 -1,1 S32.41599945068359,29.26099945068359 32.9689994506836,29.26099945068359 z" id="svg_7" class="" fill="#ffffff" fill-opacity="1"/><path d="M14.658999450683595,29.771999450683595 c0,0.553 0.44700000000000006,1 1,1 h10.375 c0.553,0 1,-0.44700000000000006 1,-1 V19.396999450683595 c0,-0.553 -0.44700000000000006,-1 -1,-1 H15.658999450683595 c-0.553,0 -1,0.44700000000000006 -1,1 V29.771999450683595 zM16.658999450683595,20.396999450683595 h8.375 v8.375 h-8.375 V20.396999450683595 z" id="svg_8" class="" fill="#ffffff" fill-opacity="1"/><path d="M26.033999450683595,35.865999450683596 H15.658999450683595 c-0.553,0 -1,0.44700000000000006 -1,1 V47.240999450683596 c0,0.553 0.44700000000000006,1 1,1 h10.375 c0.553,0 1,-0.44700000000000006 1,-1 V36.865999450683596 C27.033999450683595,36.31299945068359 26.586999450683592,35.865999450683596 26.033999450683595,35.865999450683596 zM25.033999450683595,46.240999450683596 h-8.375 v-8.375 h8.375 V46.240999450683596 z" id="svg_9" class="" fill="#ffffff" fill-opacity="1"/><path d="M26.033999450683595,53.3349994506836 H15.658999450683595 c-0.553,0 -1,0.44700000000000006 -1,1 v10.375 c0,0.553 0.44700000000000006,1 1,1 h10.375 c0.553,0 1,-0.44700000000000006 1,-1 V54.3349994506836 C27.033999450683595,53.78199945068359 26.586999450683592,53.3349994506836 26.033999450683595,53.3349994506836 zM25.033999450683595,63.7099994506836 h-8.375 v-8.375 h8.375 V63.7099994506836 z" id="svg_10" class="" fill="#ffffff" fill-opacity="1"/></g></svg>