<svg xmlns="http://www.w3.org/2000/svg" data-name="Layer 1" width="458" height="434" style=""><rect id="backgroundrect" width="100%" height="100%" x="0" y="0" fill="none" stroke="none" class="" style=""/><title>CleanToilet</title><g class="currentLayer" style=""><title>Layer 1</title><g data-name="Group" id="svg_1" class="selected" fill="#ffffff" fill-opacity="1"><path data-name="Path" d="M112.40386122131346,312.909 c-9.446,-1.718 -16.383,-6.139 -20.617,-13.143 A27.47,27.47 0 0 1 88.01986122131348,289.157 a7,7 0 0 0 -13.963000000000001,1.013 a40.308,40.308 0 0 0 5.332,16.141 c4.369,7.557 13.209,17.227 30.507,20.372 a7,7 0 1 0 2.5,-13.774000000000001 z" id="svg_2" fill="#ffffff" fill-opacity="1"/><path data-name="Compound Path" d="M128.71986122131347,56.272999999999996 l-18.474,6.159 a22.915,22.915 0 1 0 1.267,14.334 l21.635,-7.211 A7,7 0 0 0 128.71986122131347,56.272999999999996 zM89.21986122131348,80.43 a8.914,8.914 0 1 1 8.914,-8.913 A8.923,8.923 0 0 1 89.21986122131348,80.43 z" id="svg_3" fill="#ffffff" fill-opacity="1"/><path data-name="Compound Path" d="M216.95786122131346,420 h-34.42 a102.434,102.434 0 0 1 -1.552,-45.4 l2.477,-12.443 a110.331,110.331 0 0 0 69.016,-91.734 A18.65,18.65 0 0 0 270.0198612213135,251.666 v-2.235 A18.176,18.176 0 0 0 251.6198612213135,231 H184.01986122131348 V183 h23.477 A41.525,41.525 0 0 0 249.01986122131348,141.624 V40 h2.6 c10.359,0 18.4,-8.621 18.4,-18.979 V18.786 A18.478,18.478 0 0 0 251.6198612213135,0 H34.334861221313474 C23.976861221313477,0 16.019861221313477,8.427999999999997 16.019861221313477,18.786 v2.235 C16.019861221313477,31.379000000000005 23.976861221313477,40 34.334861221313474,40 H37.01986122131348 V141.624 A41.457,41.457 0 0 0 78.46286122131347,183 H102.01986122131348 v48 H34.334861221313474 A18.109,18.109 0 0 0 16.019861221313477,249.43099999999998 v2.235 A18.59,18.59 0 0 0 33.51986122131348,270.4 a110.376,110.376 0 0 0 69.094,91.707 l2.419,12.5 A102.45,102.45 0 0 1 103.41986122131348,420 H69.00086122131347 a7,7 0 0 0 0,14 H216.95786122131346 a7,7 0 0 0 0,-14 zM257.0198612213135,21.214 A4.785,4.785 0 0 1 252.23486122131345,26 H34.80486122131347 A4.785,4.785 0 0 1 30.019861221313477,21.214 V18.786 A4.785,4.785 0 0 1 34.80486122131347,14 h217.43 A4.785,4.785 0 0 1 257.0198612213135,18.786 zM51.01986122131348,141.624 V40 H235.01986122131348 V141.624 A27.51,27.51 0 0 1 207.49686122131348,169 H78.46286122131347 A27.441,27.441 0 0 1 51.01986122131348,141.624 zM116.01986122131348,183 h54 v48 H116.01986122131348 zm141,69.215 A4.785,4.785 0 0 1 252.23486122131345,257 H34.80486122131347 A4.785,4.785 0 0 1 30.019861221313477,252.21499999999997 v-2.43 A4.785,4.785 0 0 1 34.80486122131347,245 h217.43 A4.785,4.785 0 0 1 257.0198612213135,249.78500000000003 zM47.37186122131348,270 H238.58786122131346 a96.224,96.224 0 0 1 -191.216,0 zm71.331,101.857 l-0.973,-4.9190000000000005 a110.817,110.817 0 0 0 50.5,-0.04000000000000001 l-0.973,4.965 A116.948,116.948 0 0 0 168.11286122131347,420 H117.84686122131347 A116.977,116.977 0 0 0 118.70286122131347,371.857 z" id="svg_4" fill="#ffffff" fill-opacity="1"/><path data-name="Compound Path" d="M369.0198612213135,402.9 v-2.22 a55.6,55.6 0 0 0 -16.632,-39.337 A54.316,54.316 0 0 0 334.0198612213135,349.277 V340.6 a6.448,6.448 0 0 0 -6.735,-6.6 H320.0198612213135 V167 a7,7 0 0 0 -14,0 V334 h-7.345 A6.383,6.383 0 0 0 292.0198612213135,340.6 v8.663 a55.521,55.521 0 0 0 -35,51.414 v2.22 a15.45,15.45 0 0 0 -14.141,15.517 A15.74,15.74 0 0 0 258.6198612213135,434 H367.33586122131345 A15.775,15.775 0 0 0 383.1198612213135,418.417 A15.416,15.416 0 0 0 369.0198612213135,402.9 zm-98,-2.22 a41.714,41.714 0 0 1 29.72,-39.8 a7.314,7.314 0 0 0 5.28,-6.691 V348 h14 v6.186 a7.12,7.12 0 0 0 5.078,6.691 a42.665,42.665 0 0 1 17.456,10.366 A41.62,41.62 0 0 1 355.0198612213135,400.68 V402 H271.0198612213135 zM367.33586122131345,420 H258.6198612213135 a1.5,1.5 0 1 1 0,-3 H367.33586122131345 a1.5,1.5 0 1 1 0,3 z" id="svg_5" fill="#ffffff" fill-opacity="1"/><path data-name="Path" d="M376.40286122131346,248.95800000000003 L358.8798612213135,259.074 a7,7 0 1 0 7,12.125 l17.523,-10.116 a7,7 0 0 0 -7,-12.125 z" id="svg_6" fill="#ffffff" fill-opacity="1"/><path data-name="Path" d="M453.16986122131345,259.074 l-17.522,-10.116 a7,7 0 1 0 -7,12.125 L446.16986122131345,271.2 a7,7 0 1 0 7,-12.125 z" id="svg_7" fill="#ffffff" fill-opacity="1"/><path data-name="Path" d="M381.2578612213135,229 H361.02586122131345 a7,7 0 0 0 0,14 h20.232 a7,7 0 1 0 0,-14 z" id="svg_8" fill="#ffffff" fill-opacity="1"/><path data-name="Path" d="M451.02586122131345,229 H430.79186122131347 a7,7 0 1 0 0,14 h20.234 a7,7 0 0 0 0,-14 z" id="svg_9" fill="#ffffff" fill-opacity="1"/><path data-name="Path" d="M387.9548612213135,210.989 l-17.523,-9.655 a7,7 0 0 0 -6.756,12.262 l17.523,9.655 a7,7 0 1 0 6.756,-12.262 z" id="svg_10" fill="#ffffff" fill-opacity="1"/><path data-name="Path" d="M430.8528612213135,223.25099999999998 l17.521,-9.655 a7,7 0 0 0 -6.755,-12.262 l-17.522,9.655 a7,7 0 1 0 6.756,12.262 z" id="svg_11" fill="#ffffff" fill-opacity="1"/><path data-name="Path" d="M424.39786122131346,205.168 l10.116,-16.723 a7,7 0 1 0 -11.978,-7.246 L412.41986122131345,197.922 a7,7 0 1 0 11.979,7.246 z" id="svg_12" fill="#ffffff" fill-opacity="1"/><path data-name="Path" d="M399.63086122131347,197.922 L389.5198612213135,181.2 a7,7 0 0 0 -11.978,7.246 l10.116,16.723 a7,7 0 0 0 11.978,-7.246 z" id="svg_13" fill="#ffffff" fill-opacity="1"/><path data-name="Path" d="M399.0198612213135,172.146 v19.309 a7,7 0 1 0 14,0 V172.146 a7,7 0 1 0 -14,0 z" id="svg_14" fill="#ffffff" fill-opacity="1"/><path data-name="Path" d="M406.0198612213135,218.80700000000002 a7,7 0 0 0 -7,7 V427 a7,7 0 0 0 14,0 V225.80700000000002 A7,7 0 0 0 406.0198612213135,218.80700000000002 z" id="svg_15" fill="#ffffff" fill-opacity="1"/><path data-name="Compound Path" d="M68.50986122131347,374.143 a7,7 0 0 0 -3.076,-8.926 a26.129,26.129 0 0 1 -12.325,-31.111 a7,7 0 0 0 -12.8,-5.535 A26.129,26.129 0 0 1 9.200861221313474,340.9 a7,7 0 0 0 -5.535,12.8 a26.132,26.132 0 0 1 12.325,31.112 a7,7 0 0 0 12.8,5.534 A26.129,26.129 0 0 1 59.89986122131347,378.015 A7,7 0 0 0 68.50986122131347,374.143 zM30.519861221313477,368.771 a40.238,40.238 0 0 0 -5.286,-13.343 a40.263,40.263 0 0 0 13.342,-5.286 a40.22,40.22 0 0 0 5.286,13.342 A40.257,40.257 0 0 0 30.519861221313477,368.771 z" id="svg_16" fill="#ffffff" fill-opacity="1"/><path data-name="Compound Path" d="M274.9328612213135,106.453 a7,7 0 0 0 9,-2.838 a20.6,20.6 0 0 1 24.786,-9.066 a7,7 0 0 0 5.872,-12.646 a20.608,20.608 0 0 1 -9.066,-24.786 a7,7 0 0 0 -12.646,-5.872 a20.608,20.608 0 0 1 -24.787,9.067 a7,7 0 0 0 -5.872,12.645 a20.608,20.608 0 0 1 9.067,24.786 A7,7 0 0 0 274.9328612213135,106.453 zm16.2,-34.895 a34.74,34.74 0 0 0 3.146,8.6 a34.733,34.733 0 0 0 -8.6,3.146 a34.785,34.785 0 0 0 -3.145,-8.6 A34.778,34.778 0 0 0 291.1368612213135,71.558 z" id="svg_17" fill="#ffffff" fill-opacity="1"/><path data-name="Compound Path" d="M310.1198612213135,150.479 a6.994,6.994 0 0 0 9,-2.837 a20.606,20.606 0 0 1 24.788,-9.068 a7,7 0 0 0 5.872,-12.645 a20.608,20.608 0 0 1 -9.068,-24.786 a7,7 0 0 0 -12.645,-5.872 a20.61,20.61 0 0 1 -24.786,9.066 a7,7 0 0 0 -5.873,12.645 a20.611,20.611 0 0 1 9.067,24.788 A7,7 0 0 0 310.1198612213135,150.479 zm16.205,-34.9 a34.748,34.748 0 0 0 3.146,8.6 a34.715,34.715 0 0 0 -8.6,3.146 a34.676,34.676 0 0 0 -3.145,-8.6 A34.733,34.733 0 0 0 326.3288612213135,115.583 z" id="svg_18" fill="#ffffff" fill-opacity="1"/></g></g></svg>