<svg xmlns="http://www.w3.org/2000/svg" xmlns:xlink="http://www.w3.org/1999/xlink" version="1.1" enable-background="new 0 0 99 99" xml:space="preserve" width="80" height="85" style=""><rect id="backgroundrect" width="100%" height="100%" x="0" y="0" fill="none" stroke="none" class="" style=""/><g class="currentLayer" style=""><title>Layer 1</title><path fill-rule="evenodd" clip-rule="evenodd" d="M5.93,5.960000000000001 v7.46 h19.26 v-7.46 H5.93 zM62.221000000000004,10.440000000000001 c0,0.8200000000000001 0.6700000000000002,1.49 1.479,1.49 c0.8190000000000001,0 1.489,-0.6700000000000002 1.489,-1.49 c0,-0.8300000000000001 -0.6700000000000002,-1.49 -1.489,-1.49 C62.891000000000005,8.95 62.221000000000004,9.61 62.221000000000004,10.440000000000001 zM69.63,10.440000000000001 c0,0.8200000000000001 0.6600000000000001,1.49 1.479,1.49 c0.8200000000000001,0 1.48,-0.6700000000000002 1.48,-1.49 c0,-0.8300000000000001 -0.6600000000000001,-1.49 -1.48,-1.49 C70.29,8.95 69.63,9.61 69.63,10.440000000000001 zM21.22,47.721000000000004 c0,10.709 9.03,20.279 20.26,20.389 C52.12,68.2 61.5,59 61.739999999999995,47.721000000000004 C61.980000000000004,36.63 52.12,27.33 41.48,27.33 C30.840000000000003,27.33 21.25,36.5 21.22,47.721000000000004 zM24.92,47.721000000000004 c0,-9.211 7.41,-16.671 16.561,-16.671 c7.609,0 14.02,5.16 15.959,12.2 h-2.629 c-0.811,0 -1.48,0.6600000000000001 -1.48,1.49 v5.96 c0,0.8290000000000001 0.6700000000000002,1.489 1.48,1.489 h2.629 C55.5,59.230000000000004 49.09,64.391 41.48,64.391 C32.33,64.391 24.92,56.93000000000001 24.92,47.721000000000004 zM56.3,44.74 c0.81,0 1.479,0.6600000000000001 1.479,1.49 v2.979 c0,0.8190000000000001 -0.6700000000000002,1.49 -1.479,1.49 c-0.8190000000000001,0 -1.489,-0.6710000000000002 -1.489,-1.49 V46.23 C54.811,45.4 55.480000000000004,44.74 56.3,44.74 zM0,0 v85 h80 V0 H0 zM3.960000000000001,3.9800000000000004 h72.08 V15.399999999999999 H3.960000000000001 V3.9800000000000004 zM76.04,18.89 V81.02 H3.960000000000001 V18.89 H76.04 z" id="svg_1" class="selected" fill="#ffffff" fill-opacity="1"/></g></svg>