<svg xmlns="http://www.w3.org/2000/svg" data-name="Layer 6" width="90" height="89" style=""><rect id="backgroundrect" width="100%" height="100%" x="0" y="0" fill="none" stroke="none" class="" style=""/><defs><style>.be6317c4-6f27-486e-81da-43c25706b0d2{fill:none;}</style></defs><title>Daily Tasks Collection</title><g class="currentLayer" style=""><title>Layer 1</title><polygon class="be6317c4-6f27-486e-81da-43c25706b0d2" points="17.500020503997803,7.094823837280273 16.760018825531006,7.8348236083984375 16.73002004623413,7.864824295043945 16.55001974105835,10.964824676513672 18.96001958847046,8.54482364654541 17.500020503997803,7.094823837280273 " id="svg_1"/><path class="be6317c4-6f27-486e-81da-43c25706b0d2" d="M17.15001958847046,42.66482376098633 a0.19000000000000003,0.19000000000000003 0 0 0 0.26,0 l1.6400000000000001,-1.6400000000000001 a3.2,3.2 0 0 1 2.1,-0.93 l21.15,-1 H42.46001958847046 a3.19,3.19 0 0 1 3,2.18 l0.47000000000000003,1.42 a0.21000000000000002,0.21000000000000002 0 0 0 0.1,0.11000000000000001 a0.23,0.23 0 0 0 0.31000000000000005,0 l0.15000000000000002,-0.30000000000000004 l-0.48000000000000004,-9.43 a0.17,0.17 0 0 0 -0.05000000000000001,-0.12000000000000001 a0.19000000000000003,0.19000000000000003 0 0 0 -0.26,0 c-0.09000000000000002,0.08000000000000002 -0.11000000000000001,0.12000000000000001 -0.11000000000000001,0.16000000000000003 l-0.26,1.84 a3.21,3.21 0 0 1 -3.16,2.74 h-12 A3.19,3.19 0 0 1 27.88001958847046,32.17482376098633 l9.67,-9.67 a0.19000000000000003,0.19000000000000003 0 0 0 0,-0.26 L22.32001958847046,7.044823760986329 L17.37001958847046,2.9848237609863286 a0.2,0.2 0 0 0 -0.23,0 l-3.27,2.54 a0.21000000000000002,0.21000000000000002 0 0 0 -0.07,0.14 l-0.49000000000000005,11.2 a3.11,3.11 0 0 1 -0.93,2.11 L3.050019588470459,28.31482376098633 a0.21000000000000002,0.21000000000000002 0 0 0 0,0.26 zM14.76001958847046,7.394823760986329 a1.18,1.18 0 0 1 0.5800000000000001,-1 l1.19,-1.2 a1.33,1.33 0 0 1 1,-0.41000000000000003 a1.3800000000000001,1.3800000000000001 0 0 1 1,0.4 l2.37,2.35 a1.21,1.21 0 0 1 0.13,1.82 L16.46001958847046,13.854823760986328 a1.18,1.18 0 0 1 -0.8500000000000001,0.36000000000000004 A1.21,1.21 0 0 1 14.460019588470459,12.93482376098633 z" id="svg_2"/><path class="be6317c4-6f27-486e-81da-43c25706b0d2" d="M74.46001958847046,46.67482376098633 A3.77,3.77 0 0 0 75.46001958847046,49.17482376098633 a6.62,6.62 0 0 0 3.64,1.83 l0.09000000000000002,-0.1 a8.09,8.09 0 0 0 -1.28,-3.88 C77.17001958847045,46.17482376098633 75.51001958847046,46.39482376098633 74.46001958847046,46.67482376098633 z" id="svg_3"/><path class="be6317c4-6f27-486e-81da-43c25706b0d2" d="M74.34001958847045,64.92482376098633 c-1,-0.5 -2.42,0.37000000000000005 -3.25,1 a3.84,3.84 0 0 0 1.8800000000000001,2 a6.7,6.7 0 0 0 4.2,0.14 c-0.2,-0.51 -0.42000000000000004,-1 -0.6700000000000002,-1.58 A6.7,6.7 0 0 0 74.34001958847045,64.92482376098633 z" id="svg_4"/><path class="be6317c4-6f27-486e-81da-43c25706b0d2" d="M73.55001958847046,73.57482376098633 l-5,0.49000000000000005 l2.11,12.4 a1.24,1.24 0 0 0 1.26,0.7100000000000001 H83.27001958847046 c0.6800000000000002,0 1.21,-0.37000000000000005 1.27,-0.7100000000000001 l2.1,-12.4 l-5,-0.49000000000000005 A42.26,42.26 0 0 0 73.55001958847046,73.57482376098633 z" id="svg_5"/><path class="be6317c4-6f27-486e-81da-43c25706b0d2" d="M81.70001958847045,61.974823760986325 c1,-0.46 1.25,-2.11 1.25,-3.16 a3.75,3.75 0 0 0 -2.67,0.22000000000000003 A6.73,6.73 0 0 0 77.46001958847046,62.17482376098633 A8.36,8.36 0 0 0 81.70001958847045,61.974823760986325 z" id="svg_6"/><path class="be6317c4-6f27-486e-81da-43c25706b0d2" d="M11.210019588470459,64.72482376098633 a2.39,2.39 0 0 1 1.12,0.36000000000000004 l1.7400000000000002,-2.26 l-1,-1.71 a1.8900000000000001,1.8900000000000001 0 0 0 -3.16,-0.2 L8.27001958847046,63.17482376098633 L10.460019588470459,64.79482376098633 A2.15,2.15 0 0 1 11.210019588470459,64.72482376098633 z" id="svg_7"/><path class="be6317c4-6f27-486e-81da-43c25706b0d2" d="M4.18001958847046,71.87482376098633 l3,-0.29000000000000004 a44.7,44.7 0 0 1 8.5,0 l1.86,0.18000000000000002 a10.91,10.91 0 0 0 1.18,-0.93 l0.5900000000000001,-2.16 a0.43000000000000005,0.43000000000000005 0 0 0 -0.17,-0.49000000000000005 a0.42000000000000004,0.42000000000000004 0 0 0 -0.5,0 l-2.4,1.54 a2.47,2.47 0 0 1 -3.36,-0.6800000000000002 L11.460019588470459,66.91482376098632 a0.45,0.45 0 0 0 -0.3400000000000001,-0.2 a0.45,0.45 0 0 0 -0.36000000000000004,0.15000000000000002 L8.76001958847046,69.02482376098632 a2.44,2.44 0 0 1 -2.47,0.7300000000000001 l-2.44,-0.6700000000000002 a0.41000000000000003,0.41000000000000003 0 0 0 -0.45,0.13 a0.42000000000000004,0.42000000000000004 0 0 0 -0.08000000000000002,0.46 z" id="svg_8"/><path class="be6317c4-6f27-486e-81da-43c25706b0d2" d="M7.280019588470459,67.68482376098633 l1.5,-1.6700000000000002 L5.460019588470459,63.554823760986324 a0.42000000000000004,0.42000000000000004 0 0 0 -0.45,0 a0.45,0.45 0 0 0 -0.27,0.37000000000000005 L4.460019588470459,67.17482376098633 l2.35,0.6500000000000001 A0.47000000000000003,0.47000000000000003 0 0 0 7.280019588470459,67.68482376098633 z" id="svg_9"/><path class="be6317c4-6f27-486e-81da-43c25706b0d2" d="M14.460019588470459,67.91482376098632 a0.45,0.45 0 0 0 0.6200000000000001,0.12000000000000001 l2.39,-1.54 a2.33,2.33 0 0 1 0.7100000000000001,-0.31000000000000005 l-0.4,-3.94 a0.41000000000000003,0.41000000000000003 0 0 0 -0.31000000000000005,-0.22000000000000003 a0.41000000000000003,0.41000000000000003 0 0 0 -0.43000000000000005,0.17 l-3.43,4.46 z" id="svg_10"/><path class="be6317c4-6f27-486e-81da-43c25706b0d2" d="M40.64001958847046,67.28482376098633 V71.17482376098633 H46.46001958847046 v-0.22000000000000003 a2.45,2.45 0 0 1 1.09,-2 A4.27,4.27 0 0 0 49.46001958847046,65.34482376098633 V52.004823760986326 c0,-0.17 -0.16000000000000003,-0.8300000000000001 -1.56,-0.8300000000000001 s-1.54,0.6600000000000001 -1.55,0.8600000000000001 V62.39482376098633 a2.2800000000000002,2.2800000000000002 0 0 1 -4.5600000000000005,0 V56.28482376098633 s-0.28,-0.22000000000000003 -0.92,-0.22000000000000003 s-0.91,0.22000000000000003 -0.91,0.22000000000000003 V61.17482376098633 l-2,0.23 s-0.43000000000000005,-1.6700000000000002 -1.52,-1.6700000000000002 c-0.91,0 -1,1.33 -1,1.48 a4.88,4.88 0 0 0 4.25,5.08 z" id="svg_11"/><path class="be6317c4-6f27-486e-81da-43c25706b0d2" d="M7.34001958847046,73.57482376098633 l-5,0.49000000000000005 L4.460019588470459,86.46482376098633 c0.06000000000000001,0.3400000000000001 0.56,0.7100000000000001 1.27,0.7100000000000001 H17.05001958847046 c0.7100000000000001,0 1.21,-0.37000000000000005 1.27,-0.7100000000000001 L20.46001958847046,74.06482376098633 l-5,-0.49000000000000005 A42.16,42.16 0 0 0 7.34001958847046,73.57482376098633 z" id="svg_12"/><path class="be6317c4-6f27-486e-81da-43c25706b0d2" d="M40.55001958847046,73.57482376098633 l-5,0.49000000000000005 l2.11,12.4 a1.24,1.24 0 0 0 1.26,0.7100000000000001 H50.27001958847046 c0.6800000000000002,0 1.21,-0.37000000000000005 1.27,-0.7100000000000001 l2.1,-12.4 l-5,-0.49000000000000005 A42.26,42.26 0 0 0 40.55001958847046,73.57482376098633 z" id="svg_13"/><path class="be6317c4-6f27-486e-81da-43c25706b0d2" d="M72.12001958847046,56.404823760986325 c-1,-0.39000000000000007 -2.38,0.6200000000000001 -3.13,1.36 a3.79,3.79 0 0 0 2.12,1.87 A4.79,4.79 0 0 0 74.35001958847046,59.17482376098633 a9,9 0 0 1 0.19000000000000003,-0.93 A4.48,4.48 0 0 0 72.12001958847046,56.404823760986325 z" id="svg_14"/><path class="be6317c4-6f27-486e-81da-43c25706b0d2" d="M81.24001958847046,51.73482376098633 c0,0.1 0,0.19000000000000003 0,0.26 a8.4,8.4 0 0 0 3.75,1.36 c1.11,0 2,-1.47 2.38,-2.44 a3.8200000000000003,3.8200000000000003 0 0 0 -2.54,-0.8300000000000001 A6.52,6.52 0 0 0 81.24001958847046,51.73482376098633 z" id="svg_15"/><path d="M15.03001958847046,44.794823760986326 a3.18,3.18 0 0 0 4.5,0 L21.180019588470458,43.17482376098633 a0.17,0.17 0 0 1 0.12000000000000001,0 l21.14,-1 c0.12000000000000001,0 0.16000000000000003,0.05000000000000001 0.18000000000000002,0.13 l0.48000000000000004,1.42 a3.2,3.2 0 0 0 1.6600000000000001,1.87 a3.12,3.12 0 0 0 1.42,0.3400000000000001 a3.16,3.16 0 0 0 2.85,-1.7600000000000002 l0.15000000000000002,-0.29000000000000004 a3.25,3.25 0 0 0 0.33000000000000007,-1.6 l-0.49000000000000005,-9.34 a3.17,3.17 0 0 0 -0.93,-2.09 a3.22,3.22 0 0 0 -4.5600000000000005,0.06000000000000001 a3.29,3.29 0 0 0 -0.9,1.81 l-0.26,1.84 a0.19000000000000003,0.19000000000000003 0 0 1 -0.19000000000000003,0.16000000000000003 h-12 a0.16000000000000003,0.16000000000000003 0 0 1 -0.17,-0.12000000000000001 a0.17,0.17 0 0 1 0,-0.2 l9.67,-9.66 a3.2,3.2 0 0 0 0,-4.51 L24.46001958847046,4.924823760986328 l-0.24000000000000002,-0.22000000000000003 l-4.94,-4 a3.19,3.19 0 0 0 -4,0 L12.03001958847046,3.174823760986328 a3.17,3.17 0 0 0 -1.23,2.37 l-0.48000000000000004,11.2 a0.17,0.17 0 0 1 -0.06000000000000001,0.12000000000000001 L0.9300195884704587,26.174823760986328 a3.2,3.2 0 0 0 -0.93,2.26 a3.16,3.16 0 0 0 0.93,2.25 zm-12,-16.48 l9.33,-9.34 a3.11,3.11 0 0 0 0.93,-2.11 l0.49000000000000005,-11.2 a0.21000000000000002,0.21000000000000002 0 0 1 0.07,-0.14 l3.27,-2.54 a0.2,0.2 0 0 1 0.23,0 l4.95,4.06 L37.55001958847046,22.264823760986328 a0.19000000000000003,0.19000000000000003 0 0 1 0,0.26 L27.88001958847046,32.17482376098633 a3.19,3.19 0 0 0 2.25,5.44 h12 a3.21,3.21 0 0 0 3.16,-2.74 l0.26,-1.84 s0,-0.08000000000000002 0.11000000000000001,-0.16000000000000003 a0.19000000000000003,0.19000000000000003 0 0 1 0.26,0 a0.17,0.17 0 0 1 0.05000000000000001,0.12000000000000001 L46.46001958847046,42.44482376098633 l-0.15000000000000002,0.30000000000000004 a0.23,0.23 0 0 1 -0.31000000000000005,0 a0.21000000000000002,0.21000000000000002 0 0 1 -0.1,-0.11000000000000001 L45.46001958847046,41.26482376098633 a3.19,3.19 0 0 0 -3,-2.18 h-0.15000000000000002 l-21.15,1 a3.2,3.2 0 0 0 -2.1,0.93 L17.46001958847046,42.66482376098633 a0.19000000000000003,0.19000000000000003 0 0 1 -0.26,0 L3.050019588470459,28.574823760986327 A0.21000000000000002,0.21000000000000002 0 0 1 3.050019588470459,28.31482376098633 z" id="svg_16" class=""/><path d="M15.640019588470459,14.174823760986328 a1.18,1.18 0 0 0 0.8500000000000001,-0.36000000000000004 l4.46,-4.46 a1.21,1.21 0 0 0 -0.13,-1.82 L18.46001958847046,5.224823760986329 a1.3800000000000001,1.3800000000000001 0 0 0 -1,-0.4 a1.33,1.33 0 0 0 -1,0.41000000000000003 l-1.19,1.2 a1.18,1.18 0 0 0 -0.5800000000000001,1 L14.460019588470459,12.93482376098633 A1.21,1.21 0 0 0 15.640019588470459,14.174823760986328 zm1.09,-6.35 l0,0 l0.7400000000000001,-0.7400000000000001 l1.46,1.45 l-2.41,2.42 z" id="svg_17" class=""/><rect x="61.88001775741577" y="45.49482345581055" width="1" height="1.6799999475479126" id="svg_18" class=""/><path d="M58.34001958847046,41.10482376098633 A3.94,3.94 0 0 1 60.71001958847046,42.17482376098633 l0.7000000000000001,-0.7100000000000001 a4.94,4.94 0 0 0 -3,-1.3900000000000001 z" id="svg_19" class=""/><rect x="51.39001989364624" y="40.08482360839844" width="3" height="1" id="svg_20" class=""/><path d="M64.92001958847045,37.35482376098633 l-0.6300000000000001,0.77 a3.93,3.93 0 0 1 1.35,2.24 l1,-0.21000000000000002 A5,5 0 0 0 64.92001958847045,37.35482376098633 z" id="svg_21" class=""/><rect x="57.84002065658569" y="36.234825134277344" width="3" height="1" id="svg_22" class=""/><rect x="50.84002065658569" y="36.234825134277344" width="3" height="1" id="svg_23" class=""/><rect x="51.39001989364624" y="32.39482498168945" width="3" height="1" id="svg_24" class=""/><path d="M67.93001958847046,34.17482376098633 l0.5800000000000001,-0.81 a4.9,4.9 0 0 0 -2.8600000000000003,-0.92 h-0.26 v1 h0.26 A3.89,3.89 0 0 1 67.93001958847046,34.17482376098633 z" id="svg_25" class=""/><rect x="58.39001989364624" y="32.39482498168945" width="3" height="1" id="svg_26" class=""/><path d="M69.57001958847046,39.48482376098633 h1 V37.32482376098633 a1.6900000000000002,1.6900000000000002 0 0 0 0,-0.23 l-1,0 a1,1 0 0 1 0,0.18000000000000002 z" id="svg_27" class=""/><path d="M84.72001958847046,48.09482376098633 a7.75,7.75 0 0 0 -3.7600000000000002,1.35 A8.48,8.48 0 0 0 79.46001958847046,45.74482376098633 c-2,-2.38 -6.09,-0.8 -6.26,-0.7400000000000001 l-0.5800000000000001,0.23 l-0.05000000000000001,0.6200000000000001 a6,6 0 0 0 1.4,4.66 a8.14,8.14 0 0 0 4,2.2800000000000002 A13,13 0 0 0 75.37001958847046,56.17482376098633 a7.14,7.14 0 0 0 -2.55,-1.61 c-2.92,-1.09 -5.69,2.29 -5.8100000000000005,2.44 l-0.39000000000000007,0.48000000000000004 l0.26,0.56 a6,6 0 0 0 3.68,3.54 a5.41,5.41 0 0 0 1.52,0.21000000000000002 a7,7 0 0 0 2.27,-0.4 a7.22,7.22 0 0 0 0.41000000000000003,1.58 c-2.6500000000000004,-0.8500000000000001 -5.43,1.8800000000000001 -5.5600000000000005,2 l-0.44000000000000006,0.44000000000000006 l0.2,0.5900000000000001 a6,6 0 0 0 3.17,3.7600000000000002 a7,7 0 0 0 3,0.6100000000000001 a10.7,10.7 0 0 0 2.75,-0.39000000000000007 c0.17,0.54 0.30000000000000004,1 0.41000000000000003,1.44 a44.32,44.32 0 0 0 -4.890000000000001,0.19000000000000003 l-5.29,0.52 a1.8,1.8 0 0 0 -1.26,0.6800000000000002 a1.47,1.47 0 0 0 -0.29000000000000004,1.1600000000000001 l2.19,12.85 A3.11,3.11 0 0 0 71.94001958847046,89.17482376098633 H83.27001958847046 a3.13,3.13 0 0 0 3.24,-2.38 l2.18,-12.85 a1.48,1.48 0 0 0 -0.29000000000000004,-1.1600000000000001 a1.8,1.8 0 0 0 -1.26,-0.6800000000000002 l-5.29,-0.52 c-0.5,0 -1,-0.08000000000000002 -1.52,-0.11000000000000001 a30.53,30.53 0 0 0 -2,-5.74 h0 l-0.15000000000000002,-0.24000000000000002 c-0.2,-0.43000000000000005 -0.41000000000000003,-0.8500000000000001 -0.6400000000000001,-1.29 a14.4,14.4 0 0 0 2,0.14 a7.25,7.25 0 0 0 3,-0.54 c2.83,-1.29 2.4,-5.65 2.39,-5.83 l-0.07,-0.6200000000000001 L84.27001958847046,57.17482376098633 a6,6 0 0 0 -4.87,0.1 a7.93,7.93 0 0 0 -3.13,3 c0,-3.33 2.89,-6 3.74,-6.67 a10.25,10.25 0 0 0 4.92,1.77 h0.12000000000000001 c3.11,-0.08000000000000002 4.42,-4.26 4.47,-4.44 l0.18000000000000002,-0.5900000000000001 l-0.45,-0.43000000000000005 A6,6 0 0 0 84.72001958847046,48.09482376098633 zM74.35001958847046,59.17482376098633 a4.79,4.79 0 0 1 -3.24,0.42000000000000004 a3.79,3.79 0 0 1 -2.12,-1.87 c0.7500000000000001,-0.7400000000000001 2.08,-1.75 3.13,-1.36 a4.48,4.48 0 0 1 2.42,1.8800000000000001 A9,9 0 0 0 74.35001958847046,59.17482376098633 zM81.66001958847046,73.57482376098633 l5,0.49000000000000005 l-2.1,12.4 c-0.06000000000000001,0.3400000000000001 -0.5900000000000001,0.7100000000000001 -1.27,0.7100000000000001 H71.94001958847046 a1.24,1.24 0 0 1 -1.26,-0.7100000000000001 l-2.11,-12.4 l5,-0.49000000000000005 A42.26,42.26 0 0 1 81.66001958847046,73.57482376098633 zM80.28001958847045,59.03482376098633 a3.75,3.75 0 0 1 2.67,-0.22000000000000003 c0,1 -0.23,2.7 -1.25,3.16 A8.36,8.36 0 0 1 77.46001958847046,62.17482376098633 A6.73,6.73 0 0 1 80.28001958847045,59.03482376098633 zM76.46001958847046,66.48482376098633 c0.25,0.55 0.47000000000000003,1.07 0.6700000000000002,1.58 a6.7,6.7 0 0 1 -4.2,-0.14 a3.84,3.84 0 0 1 -1.8800000000000001,-2 c0.8300000000000001,-0.6500000000000001 2.26,-1.52 3.25,-1 A6.7,6.7 0 0 1 76.46001958847046,66.48482376098633 zm2.5700000000000003,-15.47 A6.62,6.62 0 0 1 75.46001958847046,49.17482376098633 A3.77,3.77 0 0 1 74.46001958847046,46.67482376098633 c1,-0.28 2.67,-0.5 3.38,0.36000000000000004 a8.09,8.09 0 0 1 1.28,3.88 zm5.93,2.34 a8.4,8.4 0 0 1 -3.75,-1.36 c0,-0.07 0,-0.16000000000000003 0,-0.26 a6.52,6.52 0 0 1 3.6,-1.6500000000000001 a3.8200000000000003,3.8200000000000003 0 0 1 2.54,0.8300000000000001 C86.97001958847046,51.88482376098633 86.11001958847046,53.32482376098633 85.00001958847047,53.35482376098633 z" id="svg_28" class=""/><path d="M54.14001958847046,72.10482376098633 l-5.29,-0.52 l-0.35000000000000003,0 v-0.6100000000000001 a0.46,0.46 0 0 1 0.2,-0.38000000000000006 A6.28,6.28 0 0 0 51.46001958847046,65.34482376098633 V52.004823760986326 c0,-0.78 -0.6400000000000001,-2.83 -3.56,-2.83 s-3.55,2 -3.55,2.83 V62.39482376098633 c0,0.22000000000000003 -0.14,0.22000000000000003 -0.28,0.22000000000000003 s-0.27,0 -0.28,-0.22000000000000003 V56.28482376098633 c0,-0.77 -0.6100000000000001,-2.22 -2.92,-2.22 s-2.91,1.45 -2.91,2.22 v1.83 a3,3 0 0 0 -1.5,-0.38000000000000006 c-2.2800000000000002,0 -3,2.23 -3,3.44 a6.84,6.84 0 0 0 5.14,6.93 v3.6500000000000004 l-3.5700000000000003,0.35000000000000003 a1.8,1.8 0 0 0 -1.26,0.6800000000000002 a1.47,1.47 0 0 0 -0.29000000000000004,1.1600000000000001 l2.19,12.85 A3.11,3.11 0 0 0 38.940019588470456,89.17482376098633 H50.27001958847046 a3.13,3.13 0 0 0 3.24,-2.38 l2.18,-12.85 a1.48,1.48 0 0 0 -0.29000000000000004,-1.1600000000000001 A1.8,1.8 0 0 0 54.14001958847046,72.10482376098633 zM35.46001958847046,61.17482376098633 c0,-0.15000000000000002 0.09000000000000002,-1.48 1,-1.48 c1.09,0 1.52,1.6600000000000001 1.52,1.6700000000000002 l2,-0.23 V56.28482376098633 s0.21000000000000002,-0.22000000000000003 0.91,-0.22000000000000003 s0.9,0.17 0.92,0.22000000000000003 v6.11 a2.2800000000000002,2.2800000000000002 0 0 0 4.5600000000000005,0 V52.03482376098633 c0,-0.2 0.16000000000000003,-0.8600000000000001 1.55,-0.8600000000000001 s1.55,0.6600000000000001 1.56,0.8300000000000001 V65.34482376098633 a4.27,4.27 0 0 1 -1.9100000000000001,3.5700000000000003 a2.45,2.45 0 0 0 -1.09,2 V71.17482376098633 H40.64001958847046 V67.28482376098633 l-0.8900000000000001,-1 A4.88,4.88 0 0 1 35.46001958847046,61.17482376098633 zm16,25.25 c-0.06000000000000001,0.3400000000000001 -0.5900000000000001,0.7100000000000001 -1.27,0.7100000000000001 H38.940019588470456 a1.24,1.24 0 0 1 -1.26,-0.7100000000000001 l-2.11,-12.4 l5,-0.49000000000000005 a42.26,42.26 0 0 1 8.11,0 l5,0.49000000000000005 z" id="svg_29" class=""/><polygon points="60.97002172470093,59.40482711791992 60.27001714706421,58.7048225402832 59.0000205039978,59.96482467651367 59.0000205039978,58.17482376098633 58.0000205039978,58.17482376098633 58.0000205039978,59.96482467651367 56.73002004623413,58.7048225402832 56.020020961761475,59.40482711791992 57.29002141952515,60.67482376098633 55.5000205039978,60.67482376098633 55.5000205039978,61.67482376098633 57.29002141952515,61.67482376098633 56.020020961761475,62.944820404052734 56.73002004623413,63.64482498168945 58.0000205039978,62.384822845458984 58.0000205039978,64.17482376098633 59.0000205039978,64.17482376098633 59.0000205039978,62.384822845458984 60.27001714706421,63.64482498168945 60.97002172470093,62.944820404052734 59.71001958847046,61.67482376098633 61.5000205039978,61.67482376098633 61.5000205039978,60.67482376098633 59.71001958847046,60.67482376098633 60.97002172470093,59.40482711791992 " id="svg_30" class=""/><polygon points="12.380019664764404,50.55482482910156 10.580020427703857,50.55482482910156 11.850018978118896,49.28482437133789 11.14001989364624,48.574825286865234 9.880019664764404,49.84482192993164 9.880019664764404,48.05482482910156 8.880019664764404,48.05482482910156 8.880019664764404,49.84482192993164 7.610019207000732,48.574825286865234 6.90001916885376,49.28482437133789 8.170019626617432,50.55482482910156 6.380019664764404,50.55482482910156 6.380019664764404,51.55482482910156 8.170019626617432,51.55482482910156 6.90001916885376,52.824825286865234 7.610019207000732,53.52482223510742 8.880019664764404,52.26482391357422 8.880019664764404,54.05482482910156 9.880019664764404,54.05482482910156 9.880019664764404,52.26482391357422 11.14001989364624,53.52482223510742 11.850018978118896,52.824825286865234 10.580020427703857,51.55482482910156 12.380019664764404,51.55482482910156 12.380019664764404,50.55482482910156 " id="svg_31" class=""/><polygon points="83.90002202987671,43.064823150634766 84.61002111434937,43.77482223510742 85.88001775741577,42.504825592041016 85.88001775741577,44.294822692871094 86.88001775741577,44.294822692871094 86.88001775741577,42.504825592041016 88.15002202987671,43.77482223510742 88.8500189781189,43.064823150634766 87.58002233505249,41.794822692871094 89.38001775741577,41.794822692871094 89.38001775741577,40.794822692871094 87.58002233505249,40.794822692871094 88.8500189781189,39.52482223510742 88.15002202987671,38.824825286865234 86.88001775741577,40.08482360839844 86.88001775741577,38.294822692871094 85.88001775741577,38.294822692871094 85.88001775741577,40.08482360839844 84.61002111434937,38.824825286865234 83.90002202987671,39.52482223510742 85.17001867294312,40.794822692871094 83.38001775741577,40.794822692871094 83.38001775741577,41.794822692871094 85.17001867294312,41.794822692871094 83.90002202987671,43.064823150634766 " id="svg_32" class=""/><path d="M20.92001958847046,72.10482376098633 l-0.6100000000000001,-0.06000000000000001 l0.15000000000000002,-0.14 l0.7400000000000001,-2.7 a2.45,2.45 0 0 0 -0.91,-2.63 h0 l-0.47000000000000003,-4.67 l-0.05000000000000001,-0.23 A2.45,2.45 0 0 0 15.460019588470459,60.974823760986325 l-0.1,0.13 l-0.56,-1 a3.89,3.89 0 0 0 -6.5,-0.41000000000000003 l-1.6600000000000001,2.23 a2.45,2.45 0 0 0 -3.9,1.75 L2.460019588470459,67.43482376098633 a2.75,2.75 0 0 0 -0.53,0.44000000000000006 A2.44,2.44 0 0 0 1.460019588470459,70.41482376098632 l0.6500000000000001,1.6700000000000002 l-0.25,0 a1.8,1.8 0 0 0 -1.26,0.6800000000000002 a1.47,1.47 0 0 0 -0.30000000000000004,1.1600000000000001 L2.460019588470459,86.79482376098633 A3.12,3.12 0 0 0 5.730019588470459,89.17482376098633 H17.05001958847046 a3.12,3.12 0 0 0 3.24,-2.38 L22.46001958847046,73.94482376098632 a1.48,1.48 0 0 0 -0.30000000000000004,-1.1600000000000001 A1.78,1.78 0 0 0 20.92001958847046,72.10482376098633 zM17.08001958847046,62.17482376098633 a0.41000000000000003,0.41000000000000003 0 0 1 0.43000000000000005,-0.17 a0.41000000000000003,0.41000000000000003 0 0 1 0.31000000000000005,0.22000000000000003 l0.4,3.94 a2.33,2.33 0 0 0 -0.7100000000000001,0.31000000000000005 l-2.39,1.54 a0.45,0.45 0 0 1 -0.6200000000000001,-0.12000000000000001 l-0.8500000000000001,-1.26 zm-7.15,-1.28 a1.8900000000000001,1.8900000000000001 0 0 1 3.16,0.2 l1,1.71 l-1.7400000000000002,2.26 a2.39,2.39 0 0 0 -1.12,-0.36000000000000004 a2.15,2.15 0 0 0 -0.7200000000000001,0.07 L8.27001958847046,63.17482376098633 zm-5.17,3 a0.45,0.45 0 0 1 0.27,-0.37000000000000005 a0.42000000000000004,0.42000000000000004 0 0 1 0.45,0 l3.3,2.46 l-1.5,1.6700000000000002 a0.47000000000000003,0.47000000000000003 0 0 1 -0.46,0.14 L4.460019588470459,67.17482376098633 zM3.4000195884704585,69.17482376098633 a0.41000000000000003,0.41000000000000003 0 0 1 0.45,-0.13 l2.44,0.6700000000000002 a2.44,2.44 0 0 0 2.47,-0.7300000000000001 l1.9500000000000002,-2.16 a0.45,0.45 0 0 1 0.36000000000000004,-0.15000000000000002 a0.45,0.45 0 0 1 0.3400000000000001,0.2 l1.4300000000000002,2.12 a2.47,2.47 0 0 0 3.36,0.6800000000000002 L18.60001958847046,68.17482376098633 a0.42000000000000004,0.42000000000000004 0 0 1 0.5,0 a0.43000000000000005,0.43000000000000005 0 0 1 0.17,0.49000000000000005 l-0.5900000000000001,2.16 a10.91,10.91 0 0 1 -1.18,0.93 l-1.86,-0.18000000000000002 a44.7,44.7 0 0 0 -8.5,0 l-3,0.29000000000000004 l-0.8600000000000001,-2.2 A0.42000000000000004,0.42000000000000004 0 0 1 3.4000195884704585,69.17482376098633 zM18.32001958847046,86.46482376098633 c-0.06000000000000001,0.3400000000000001 -0.56,0.7100000000000001 -1.27,0.7100000000000001 H5.730019588470459 c-0.7100000000000001,0 -1.21,-0.37000000000000005 -1.27,-0.7100000000000001 L2.3500195884704596,74.06482376098633 l5,-0.49000000000000005 a42.16,42.16 0 0 1 8.1,0 l5,0.49000000000000005 z" id="svg_33" class=""/></g></svg>